<svg width="36" height="36" viewBox="0 0 36 36" fill="none" xmlns="http://www.w3.org/2000/svg">
<mask id="mask0_324_353" style="mask-type:alpha" maskUnits="userSpaceOnUse" x="0" y="0" width="36" height="36">
<rect width="36" height="36" fill="#D9D9D9"/>
</mask>
<g mask="url(#mask0_324_353)">
<path d="M32.5065 23.5626V14.4137L18.0213 5.53887L3.5574 14.3926V17.5125H4.94201C5.24024 17.5125 5.47456 17.7444 5.47456 18.0395V28.6851H6.83787C6.58225 28.3057 6.43314 27.863 6.43314 27.3781C6.43314 26.0501 7.51953 24.975 8.86154 24.975C10.1822 24.975 11.2473 26.0501 11.2473 27.3781C11.2473 27.863 11.0982 28.3057 10.8426 28.6851H12.568C12.6959 26.6192 13.5692 25.502 17.0414 25.502H26.7763C28.1396 25.502 29.2686 26.4295 29.2686 27.61V28.6851H30.568V24.0896C30.568 23.7945 30.8024 23.5626 31.1006 23.5626H32.5065ZM2.49231 17.5125V15.0461L0.809467 16.0791C0.468639 16.2688 0 16.0369 0 15.6364V11.2516C0 11.0619 0.106509 10.8933 0.23432 10.809L17.7657 0.0790514C17.9361 -0.0263505 18.1491 -0.0263505 18.2982 0.0790514L35.7657 10.809C35.9148 10.8933 36 11.0619 36 11.2516V15.6364C36 16.0158 35.574 16.2899 35.2331 16.0791L33.5716 15.0672V23.5626H34.8497C35.1479 23.5626 35.3822 23.7945 35.3822 24.0896V35.473C35.3609 35.7681 35.1266 36 34.8497 36H31.1006C30.8024 36 30.568 35.7681 30.568 35.473V33.4704H5.47456V35.473C5.47456 35.7681 5.24024 36 4.98462 36H1.1929C0.894675 36 0.660355 35.7681 0.660355 35.473V18.0395C0.660355 17.7444 0.894675 17.5125 1.1929 17.5125H2.49231ZM5.47456 32.4163H30.568V29.7391H5.47456V32.4163ZM1.72544 34.9881H4.45207V18.5665H1.72544V34.9881ZM18.0213 17.9763C15.9763 17.9763 14.3148 16.332 14.3148 14.3505C14.3148 12.3267 15.9763 10.6825 18.0213 10.6825C20.0663 10.6825 21.7278 12.3267 21.7278 14.3505C21.7278 16.332 20.0663 17.9763 18.0213 17.9763ZM18.0213 11.7154C16.5728 11.7154 15.3586 12.8748 15.3586 14.3505C15.3586 15.7839 16.5515 16.9433 18.0213 16.9433C19.4698 16.9433 20.684 15.7839 20.684 14.3505C20.684 12.8748 19.4911 11.7154 18.0213 11.7154ZM18.2982 4.50593L34.9775 14.751V11.5257L18.0213 1.11199L1.06509 11.5257V14.7299L17.7657 4.48485C17.9148 4.37945 18.1491 4.42161 18.2982 4.50593ZM13.6331 28.6851H28.2035V27.61C28.2035 26.9987 27.5432 26.5138 26.755 26.5138H17.0414C14.2509 26.5138 13.697 27.1884 13.6331 28.6851ZM31.5905 34.9881H34.3172V24.6166H31.5905V34.9881ZM8.86154 25.9868C8.07337 25.9868 7.45562 26.6192 7.45562 27.3781C7.45562 28.0105 7.92426 28.5586 8.56331 28.6851H9.13846C9.73491 28.5586 10.2036 28.0105 10.2036 27.3781C10.2036 26.6192 9.6284 25.9868 8.86154 25.9868Z" fill="#16191E"/>
</g>
</svg>
