<svg width="36" height="36" viewBox="0 0 36 36" fill="none" xmlns="http://www.w3.org/2000/svg">
<mask id="mask0_324_100" style="mask-type:alpha" maskUnits="userSpaceOnUse" x="0" y="0" width="36" height="36">
<rect width="36" height="36" fill="#D9D9D9"/>
</mask>
<g mask="url(#mask0_324_100)">
<path d="M2.9034 30.7746C3.22408 30.7746 3.48404 30.5146 3.48404 30.1939C3.48404 29.8732 3.22408 29.6133 2.9034 29.6133C2.58272 29.6133 2.32275 29.8732 2.32275 30.1939C2.32275 30.5146 2.58272 30.7746 2.9034 30.7746Z" fill="#16191E"/>
<path d="M11.0327 16.8386H12.194V17.9999H11.0327V16.8386ZM15.6779 16.8386H16.8392V17.9999H15.6779V16.8386ZM13.3553 16.8386H14.5166V17.9999H13.3553V16.8386ZM11.0327 19.1612H12.194V20.3225H11.0327V19.1612ZM13.3553 19.1612H14.5166V20.3225H13.3553V19.1612ZM15.6779 19.1612H16.8392V20.3225H15.6779V19.1612ZM11.0327 21.4838H12.194V22.6451H11.0327V21.4838ZM15.6779 21.4838H16.8392V22.6451H15.6779V21.4838ZM13.3553 21.4838H14.5166V22.6451H13.3553V21.4838ZM11.0327 23.8064H12.194V24.9677H11.0327V23.8064ZM15.6779 23.8064H16.8392V24.9677H15.6779V23.8064ZM13.3553 23.8064H14.5166V24.9677H13.3553V23.8064Z" fill="#16191E"/>
<path d="M36 29.0323V26.5047L35.8717 26.3456C34.8544 25.0827 33.2506 24.3871 31.3548 24.3871C31.1295 24.3871 30.9077 24.4057 30.6877 24.4312C31.6815 22.8979 32.3851 21.1951 32.7635 19.4075L34.2581 19.0341V13.482L32.7635 13.1081C32.3833 11.3052 31.6726 9.58834 30.6674 8.04426L31.4588 6.72387L27.5336 2.79813L26.2132 3.59071C24.6694 2.58481 22.9524 1.87389 21.1494 1.494L20.7761 0H15.2234L14.85 1.49458C13.047 1.87448 11.33 2.58539 9.78619 3.59129L8.46639 2.79871L4.54123 6.72445L5.33264 8.04484C4.32737 9.58893 3.61668 11.3058 3.23652 13.1086L1.74194 13.482V19.0341L3.23652 19.4075C3.61643 21.2104 4.32713 22.9273 5.33264 24.4713L4.54123 25.7917L6.03987 27.2903H2.90323C1.30239 27.2903 0 28.5927 0 30.1935C0 31.7944 1.30239 33.0968 2.90323 33.0968H26.3317C27.3693 34.8968 29.2622 36 31.3548 36C33.2472 36 34.8509 35.305 35.8711 34.0426L36 33.883V31.3548H31.3548V29.0323H36ZM6.00329 25.6111L6.70994 24.4335L6.49974 24.1264C5.40469 22.5333 4.65708 20.7277 4.30548 18.8268L4.23697 18.4605L2.90323 18.1272V14.389L4.23639 14.0557L4.3049 13.6893C4.65666 11.7886 5.40426 9.98324 6.49916 8.39032L6.70935 8.08316L6.00271 6.90561L8.64639 4.26194L9.82394 4.96858L10.1311 4.75781C11.724 3.66258 13.5297 2.91495 15.4306 2.56355L15.797 2.49503L16.1309 1.16129H19.8691L20.2024 2.49445L20.5688 2.56297C22.4697 2.91436 24.2754 3.66199 25.8683 4.75723L26.1755 4.968L27.353 4.26135L29.9967 6.90503L29.2901 8.08258L29.5003 8.38974C30.5953 9.98258 31.3429 11.788 31.6945 13.6887L31.763 14.0551L33.0968 14.389V18.1272L31.7636 18.4605L31.6951 18.8268C31.3455 20.7165 30.6046 22.5121 29.52 24.0985L28.6978 25.0397C27.7092 25.5469 26.8877 26.3283 26.3317 27.2903H24.4376C26.369 26.1691 27.9713 24.5594 29.0836 22.6229C30.1958 20.6864 30.7789 18.4913 30.7742 16.2581C30.7742 9.21426 25.0438 3.48387 18 3.48387C10.9562 3.48387 5.22581 9.21426 5.22581 16.2581C5.22581 20.8992 7.6831 25.0421 11.5548 27.2903H7.68193L6.00329 25.6111ZM14.382 27.2903C12.6894 26.7407 11.146 25.8091 9.87097 24.5677V15.6774H18V27.2903H14.382ZM19.1613 19.1613H26.129V20.3226H19.1613V19.1613ZM21.8839 12.1935H23.4058L23.7687 18H21.521L21.8839 12.1935ZM21.9565 11.0323L22.0291 9.87097H23.2606L23.3332 11.0323H21.9565ZM24.9323 18L24.3517 8.70968H20.9381L20.3574 18H19.1613V14.5161H16.8387V12.1935H15.6774V14.5161H14.5161V11.0323H13.3548V14.5161H12.1935V12.1935H11.0323V14.5161H8.70968V23.2438C7.19704 21.2294 6.38172 18.7771 6.3871 16.2581C6.3871 9.85471 11.5966 4.64516 18 4.64516C24.4034 4.64516 29.6129 9.85471 29.6129 16.2581C29.6162 18.7741 28.801 21.223 27.2903 23.2351V18H24.9323ZM19.1613 21.4839H26.129V24.5601C25.7642 24.9163 25.3763 25.248 24.9677 25.553V22.6452H20.3226V27.2903H19.1613V21.4839ZM21.4839 23.8065H23.8065V26.3131C23.1152 26.7126 22.3848 27.04 21.6267 27.2903H21.4839V23.8065ZM34.8387 32.5161V33.4643C33.8243 34.5954 32.3954 34.8387 31.3548 34.8387C30.4899 34.8409 29.6417 34.6001 28.9069 34.1438C28.1721 33.6875 27.5802 33.034 27.1986 32.2577L27.0377 31.9355H2.90323C1.94284 31.9355 1.16129 31.1539 1.16129 30.1935C1.16129 29.2332 1.94284 28.4516 2.90323 28.4516H14.184L14.2014 28.458L14.2032 28.4516H27.0377L27.198 28.1294C27.5798 27.3531 28.1718 26.6997 28.9067 26.2434C29.6416 25.7871 30.4898 25.5463 31.3548 25.5484C32.3977 25.5484 33.8278 25.7917 34.8387 26.9222V27.871H30.1935V32.5161H34.8387Z" fill="#16191E"/>
</g>
</svg>
