<svg width="40" height="40" viewBox="0 0 40 40" fill="none" xmlns="http://www.w3.org/2000/svg">
<mask id="mask0_324_23" style="mask-type:alpha" maskUnits="userSpaceOnUse" x="0" y="0" width="40" height="40">
<rect width="40" height="40" fill="#D9D9D9"/>
</mask>
<g mask="url(#mask0_324_23)">
<path d="M17.7555 29.1247L14.7844 28.3267C14.7639 28.3203 14.7467 28.3064 14.7361 28.2877C14.7255 28.269 14.7225 28.247 14.7275 28.2261L15.5801 25.0374C15.7051 24.5645 15.6384 24.0612 15.3946 23.6376C15.1508 23.2139 14.7497 22.9044 14.2791 22.7767L13.2982 22.5123C13.0863 22.4553 12.8605 22.4851 12.6705 22.595C12.4804 22.7049 12.3416 22.8859 12.2844 23.0984L11.7219 25.2112C11.3265 26.6927 10.3206 27.1463 8.08507 26.7894L8.12788 26.6292C8.2055 26.3376 8.16481 26.0271 8.01472 25.7656C7.86463 25.5041 7.61738 25.3129 7.3271 25.2339L4.21015 24.3963C3.91957 24.3184 3.61008 24.3593 3.34944 24.5099C3.0888 24.6604 2.89825 24.9085 2.81952 25.1998L0.0386643 35.6191C-0.0391385 35.9105 0.00146523 36.2209 0.15156 36.4822C0.301656 36.7435 0.548973 36.9344 0.839211 37.0129L3.9564 37.8504C4.10064 37.8898 4.25125 37.8999 4.39944 37.8803C4.54763 37.8606 4.69044 37.8115 4.81952 37.7359C4.94822 37.6618 5.06094 37.5627 5.1511 37.4444C5.24126 37.3262 5.30706 37.1911 5.34468 37.047L5.46968 36.5802C6.20406 36.8851 6.8182 37.2309 7.2339 37.5766C7.96219 38.1945 8.82032 38.6391 9.74405 38.8772L13.6843 39.9372C13.9952 40.0202 14.3224 40.0201 14.6333 39.937C14.9442 39.8538 15.2281 39.6904 15.4565 39.4631C15.685 39.2358 15.8503 38.9525 15.9358 38.6412C16.0213 38.33 16.0242 38.0017 15.9441 37.689C16.2057 37.6483 16.4554 37.5516 16.6763 37.4053C16.8972 37.2591 17.084 37.0667 17.2242 36.8415C17.3643 36.6162 17.4544 36.3633 17.4883 36.0999C17.5222 35.8366 17.4992 35.569 17.4207 35.3154C17.6973 35.2459 17.9541 35.1129 18.1707 34.9269C18.3874 34.7408 18.558 34.5068 18.669 34.2433C18.7801 33.9798 18.8287 33.694 18.8108 33.4084C18.793 33.1228 18.7093 32.8453 18.5662 32.5978C18.5202 32.5176 18.4683 32.4409 18.411 32.3684C18.6819 32.1573 18.8886 31.8746 19.0079 31.552C19.1272 31.2293 19.1543 30.8797 19.0861 30.5425C19.018 30.2052 18.8573 29.8938 18.6222 29.6433C18.3871 29.3928 18.0869 29.2132 17.7555 29.1247ZM4.27109 36.7866C4.26657 36.7894 4.2615 36.7912 4.25624 36.7919C4.25097 36.7926 4.24562 36.7921 4.24054 36.7905L1.12421 35.9531C1.11434 35.95 1.10594 35.9434 1.10059 35.9345C1.09523 35.9256 1.0933 35.9151 1.09515 35.9048L3.8764 25.4855C3.87928 25.4768 3.88477 25.4692 3.89211 25.4638C3.89945 25.4583 3.90828 25.4553 3.91741 25.455C3.92029 25.455 3.92316 25.4554 3.92593 25.4562H3.92671L7.04296 26.2934C7.05314 26.2967 7.06173 26.3037 7.06709 26.313C7.07245 26.3223 7.07421 26.3333 7.07202 26.3438L4.28765 36.7655C4.2865 36.77 4.2844 36.7742 4.28149 36.7778C4.27858 36.7814 4.27492 36.7843 4.27077 36.7864L4.27109 36.7866ZM18.003 31.1048C17.9512 31.2973 17.8256 31.4614 17.6536 31.5613C17.4816 31.6612 17.2772 31.6887 17.0851 31.6379L14.4273 30.9221C14.2872 30.8844 14.1379 30.9041 14.0122 30.9768C13.8866 31.0495 13.7949 31.1694 13.7573 31.31C13.7197 31.4506 13.7393 31.6004 13.8118 31.7265C13.8843 31.8526 14.0037 31.9446 14.1438 31.9823L17.1651 32.7957C17.3565 32.8485 17.5194 32.9748 17.6185 33.1473C17.7176 33.3198 17.7449 33.5245 17.6945 33.7171C17.6429 33.9095 17.5173 34.0735 17.3453 34.1731C17.1733 34.2727 16.969 34.2998 16.7771 34.2485L16.1902 34.0902C16.1725 34.085 16.1548 34.0799 16.1369 34.0751L13.7276 33.4263C13.6582 33.4076 13.5858 33.4028 13.5146 33.4122C13.4434 33.4215 13.3747 33.4449 13.3125 33.4809C13.1868 33.5536 13.095 33.6734 13.0574 33.814C13.0198 33.9546 13.0394 34.1044 13.1118 34.2305C13.1843 34.3566 13.3037 34.4487 13.4438 34.4864L15.8871 35.1449C16.0702 35.2046 16.2236 35.3323 16.3159 35.5018C16.4082 35.6713 16.4324 35.8698 16.3835 36.0566C16.3318 36.249 16.2062 36.413 16.0342 36.5126C15.8622 36.6122 15.6578 36.6393 15.4659 36.5879L14.7028 36.3825C14.6811 36.3757 14.6593 36.3693 14.6373 36.3634L13.0602 35.9401L13.0561 35.9391C12.9867 35.9204 12.9143 35.9156 12.8431 35.925C12.7718 35.9344 12.7031 35.9578 12.6409 35.9938C12.5787 36.0299 12.5241 36.0779 12.4804 36.135C12.4366 36.1922 12.4045 36.2575 12.3859 36.3271C12.3673 36.3967 12.3626 36.4694 12.3719 36.5408C12.3813 36.6123 12.4046 36.6812 12.4405 36.7437C12.4764 36.8061 12.5242 36.8609 12.5812 36.9048C12.6382 36.9487 12.7033 36.9809 12.7726 36.9995L14.3952 37.4365C14.5797 37.4985 14.7329 37.63 14.8225 37.8032C14.912 37.9765 14.931 38.1779 14.8753 38.3649C14.8196 38.5519 14.6937 38.7098 14.524 38.8054C14.3544 38.9009 14.1544 38.9265 13.9663 38.8768L10.0267 37.8169C9.25553 37.6182 8.53911 37.2471 7.93109 36.7314C7.29609 36.2031 6.46116 35.7955 5.75484 35.5116L7.80046 27.8548C8.99343 28.0552 9.87202 28.0503 10.6041 27.8437C11.7147 27.5302 12.4464 26.7401 12.7789 25.4941L13.2721 23.6413L13.9957 23.8363C14.1862 23.8886 14.3485 24.0141 14.4473 24.1857C14.5461 24.3572 14.5735 24.561 14.5235 24.7527L13.6705 27.9431C13.5905 28.2453 13.6332 28.567 13.7893 28.8377C13.9453 29.1084 14.2019 29.3059 14.5029 29.3871L17.4716 30.1844C17.6633 30.2364 17.8266 30.3624 17.9261 30.5347C18.0256 30.7071 18.0531 30.9119 18.0027 31.1046L18.003 31.1048ZM5.67109 27.2127V27.2349C5.67109 27.3804 5.61347 27.52 5.51091 27.6229C5.40835 27.7258 5.26925 27.7836 5.12421 27.7836C4.97917 27.7836 4.84007 27.7258 4.73751 27.6229C4.63495 27.52 4.57734 27.3804 4.57734 27.2349V27.2127C4.57734 27.0672 4.63495 26.9276 4.73751 26.8247C4.84007 26.7218 4.97917 26.664 5.12421 26.664C5.26925 26.664 5.40835 26.7218 5.51091 26.8247C5.61347 26.9276 5.67109 27.0672 5.67109 27.2127ZM39.9601 35.6208L37.1779 25.198C37.0989 24.9073 36.9084 24.6598 36.6481 24.5096C36.3879 24.3593 36.0789 24.3186 35.7887 24.3962L32.6722 25.234C32.3824 25.3135 32.1356 25.5045 31.9854 25.7656C31.8351 26.0266 31.7936 26.3366 31.8698 26.6282L31.9129 26.7893C29.679 27.146 28.6729 26.6929 28.2762 25.2112L27.7137 23.0974C27.6563 22.8851 27.5174 22.7042 27.3274 22.5945C27.1373 22.4848 26.9117 22.4551 26.6999 22.5121L25.7223 22.7762C25.2509 22.9031 24.8489 23.2125 24.6045 23.6363C24.36 24.0602 24.293 24.564 24.4182 25.0374L25.2703 28.2243C25.2731 28.2351 25.2738 28.2464 25.2722 28.2575C25.2707 28.2686 25.2669 28.2792 25.2612 28.2888C25.2561 28.2981 25.2491 28.3063 25.2408 28.3128C25.2324 28.3194 25.2228 28.3241 25.2126 28.3268L22.2414 29.1247C21.9102 29.2135 21.6102 29.3933 21.3753 29.6439C21.1405 29.8945 20.98 30.206 20.912 30.5431C20.8441 30.8803 20.8713 31.2299 20.9907 31.5524C21.11 31.8748 21.3167 32.1575 21.5876 32.3684C21.5303 32.441 21.4785 32.5176 21.4324 32.5977C21.2894 32.8453 21.2057 33.1228 21.1878 33.4083C21.17 33.6939 21.2186 33.9797 21.3297 34.2432C21.4408 34.5067 21.6114 34.7407 21.828 34.9267C22.0447 35.1128 22.3015 35.2457 22.5781 35.3151C22.4743 35.6483 22.4674 36.0043 22.558 36.3414C22.6514 36.6868 22.8424 36.9977 23.1079 37.2367C23.3735 37.4757 23.7022 37.6325 24.0545 37.6883C23.9737 38.0012 23.9761 38.3298 24.0614 38.6414C24.1467 38.953 24.312 39.2367 24.5407 39.4643C24.7694 39.6918 25.0536 39.8552 25.3649 39.9381C25.6761 40.0211 26.0037 40.0207 26.3148 39.937L30.2544 38.8771C31.1783 38.6388 32.0366 38.194 32.7649 37.5758C33.1805 37.2301 33.7949 36.8845 34.5287 36.5803L34.6526 37.0439C34.7166 37.2859 34.8584 37.4999 35.056 37.6529C35.2536 37.8058 35.4959 37.889 35.7455 37.8897C35.8452 37.8897 35.9444 37.8765 36.0407 37.8505L39.1596 37.0125C39.4495 36.9342 39.6965 36.7436 39.8466 36.4827C39.9967 36.2218 40.0375 35.9119 39.9601 35.6208ZM32.0671 36.731C31.459 37.2469 30.7424 37.6181 29.9711 37.8169L26.0317 38.8768C25.8398 38.927 25.6359 38.8991 25.4644 38.7993C25.2928 38.6995 25.1675 38.5358 25.1156 38.3437C25.0663 38.1575 25.0901 37.9594 25.182 37.7902C25.274 37.621 25.4272 37.4937 25.6099 37.4344L27.2262 36.9996H27.2272C27.3673 36.962 27.4868 36.87 27.5593 36.7439C27.6319 36.6179 27.6516 36.4681 27.6141 36.3275C27.5765 36.1869 27.4849 36.067 27.3593 35.9942C27.2336 35.9214 27.0843 35.9017 26.9442 35.9393L25.3616 36.3641C25.3432 36.3691 25.3249 36.3744 25.3069 36.3798L24.5335 36.588C24.3903 36.6269 24.2389 36.6223 24.0983 36.5746C23.9578 36.5269 23.8346 36.4384 23.7444 36.3203C23.6541 36.2021 23.6009 36.0598 23.5916 35.9112C23.5822 35.7627 23.617 35.6147 23.6917 35.4861C23.7837 35.3242 23.9328 35.2028 24.1096 35.1458L26.557 34.4864C26.6971 34.4487 26.8166 34.3566 26.889 34.2306C26.9615 34.1045 26.9811 33.9547 26.9435 33.8141C26.9059 33.6735 26.8142 33.5537 26.6885 33.4809C26.5628 33.4082 26.4135 33.3886 26.2734 33.4263L23.8625 34.075C23.8433 34.0802 23.8242 34.0856 23.8051 34.0913L23.2225 34.248C23.1274 34.2736 23.0283 34.2802 22.9307 34.2673C22.8331 34.2544 22.739 34.2224 22.6538 34.173C22.5685 34.1237 22.4938 34.0579 22.4338 33.9796C22.3739 33.9013 22.3299 33.8119 22.3044 33.7165C22.2789 33.6211 22.2724 33.5216 22.2853 33.4237C22.2981 33.3258 22.33 33.2314 22.3792 33.1458C22.4284 33.0603 22.4939 32.9853 22.572 32.9252C22.65 32.865 22.7391 32.8209 22.8342 32.7953L25.8569 31.9821C25.9971 31.9444 26.1165 31.8524 26.189 31.7263C26.2615 31.6002 26.2812 31.4504 26.2436 31.3098C26.206 31.1692 26.1143 31.0494 25.9887 30.9766C25.863 30.9039 25.7137 30.8842 25.5736 30.9219L22.9145 31.6372C22.8195 31.6628 22.7203 31.6693 22.6227 31.6565C22.5251 31.6436 22.431 31.6116 22.3458 31.5622C22.2605 31.5129 22.1858 31.4472 22.1259 31.3688C22.0659 31.2905 22.0219 31.2011 21.9964 31.1057C21.9709 31.0104 21.9644 30.9109 21.9772 30.813C21.99 30.715 22.0219 30.6206 22.0711 30.5351C22.1203 30.4495 22.1858 30.3746 22.2639 30.3144C22.3419 30.2543 22.431 30.2101 22.5261 30.1846L25.4944 29.3873C25.7957 29.306 26.0526 29.1082 26.2088 28.8372C26.3649 28.5661 26.4076 28.244 26.3273 27.9415L25.4748 24.7532C25.4247 24.561 25.4524 24.3567 25.5518 24.1849C25.6512 24.0131 25.8143 23.8877 26.0055 23.8361L26.7262 23.6414L27.2194 25.4953C27.553 26.7407 28.2851 27.5308 29.3956 27.8441C30.1277 28.0505 31.0058 28.0557 32.1977 27.8551L34.2434 35.5121C33.5369 35.7955 32.7023 36.2026 32.0671 36.731ZM38.8993 35.9336C38.8969 35.9382 38.8935 35.9422 38.8895 35.9455C38.8855 35.9487 38.8808 35.9512 38.8759 35.9526L35.757 36.7905C35.7521 36.7919 35.7468 36.7922 35.7417 36.7915C35.7366 36.7908 35.7317 36.789 35.7273 36.7863C35.7229 36.7839 35.7191 36.7806 35.7161 36.7765C35.7131 36.7724 35.7111 36.7678 35.7101 36.7628L35.4337 35.7281C35.4314 35.7179 35.4284 35.7077 35.4255 35.6975L32.9273 26.3468C32.9247 26.336 32.9262 26.3246 32.9315 26.3148C32.9368 26.3051 32.9456 26.2977 32.956 26.294L36.0719 25.4561H36.0726C36.0754 25.4553 36.0783 25.4549 36.0812 25.4549C36.09 25.4551 36.0986 25.4579 36.1059 25.463C36.1131 25.4682 36.1186 25.4754 36.1217 25.4837L38.9036 35.9066C38.9047 35.9111 38.9049 35.9159 38.9042 35.9205C38.9034 35.9252 38.9018 35.9296 38.8993 35.9336ZM35.4211 27.2127V27.2349C35.4211 27.307 35.4069 27.3783 35.3795 27.4449C35.352 27.5115 35.3117 27.5719 35.2609 27.6229C35.2101 27.6739 35.1498 27.7143 35.0835 27.7418C35.0171 27.7694 34.946 27.7836 34.8742 27.7836C34.8024 27.7836 34.7313 27.7694 34.6649 27.7418C34.5986 27.7143 34.5383 27.6739 34.4875 27.6229C34.4367 27.5719 34.3964 27.5115 34.369 27.4449C34.3415 27.3783 34.3273 27.307 34.3273 27.2349V27.2127C34.3273 27.1407 34.3415 27.0693 34.369 27.0027C34.3964 26.9362 34.4367 26.8757 34.4875 26.8247C34.5383 26.7738 34.5986 26.7333 34.6649 26.7058C34.7313 26.6782 34.8024 26.664 34.8742 26.664C34.946 26.664 35.0171 26.6782 35.0835 26.7058C35.1498 26.7333 35.2101 26.7738 35.2609 26.8247C35.3117 26.8757 35.352 26.9362 35.3795 27.0027C35.4069 27.0693 35.4211 27.1407 35.4211 27.2127ZM24.7445 21.902C24.8617 21.8164 24.9489 21.6957 24.9934 21.5572C25.0379 21.4188 25.0375 21.2697 24.9922 21.1315L23.4776 16.4885L27.427 13.6213C27.5437 13.535 27.6303 13.4139 27.6744 13.2753C27.7184 13.1367 27.7177 12.9877 27.6724 12.8495C27.627 12.7113 27.5393 12.591 27.4218 12.5058C27.3043 12.4206 27.163 12.3748 27.018 12.375L22.1487 12.3852L20.653 7.73762C20.6095 7.59926 20.5234 7.47835 20.407 7.39231C20.2905 7.30627 20.1499 7.25956 20.0053 7.2589H19.9998C19.8544 7.25859 19.7128 7.3046 19.5952 7.39029C19.4777 7.47597 19.3903 7.59691 19.3456 7.73566L17.8494 12.3852L12.979 12.375C12.8336 12.375 12.692 12.4212 12.5745 12.507C12.457 12.5928 12.3696 12.7137 12.3248 12.8525C12.2801 12.9912 12.2803 13.1406 12.3255 13.2792C12.3707 13.4178 12.4585 13.5385 12.5763 13.6239L16.5206 16.4885L15.0081 21.1316C14.9625 21.2702 14.962 21.4197 15.0065 21.5585C15.051 21.6974 15.1384 21.8185 15.256 21.9044C15.3735 21.9903 15.5152 22.0365 15.6606 22.0364C15.8061 22.0362 15.9477 21.9897 16.0651 21.9037L19.9992 19.0241L23.9359 21.9054C24.0537 21.9907 24.1955 22.0364 24.3408 22.0358C24.4861 22.0352 24.6274 21.9883 24.7445 21.902ZM20.3214 17.9014C20.2278 17.8329 20.1149 17.7959 19.9991 17.7959C19.8832 17.7959 19.7703 17.8329 19.6767 17.9014L16.4394 20.2708L17.6844 16.4488C17.7204 16.3383 17.7205 16.2192 17.6847 16.1087C17.6489 15.9982 17.5791 15.9019 17.4852 15.8338L14.2373 13.4743L18.2462 13.4827H18.2473C18.363 13.4828 18.4757 13.446 18.5693 13.3777C18.6628 13.3094 18.7323 13.213 18.7679 13.1026L19.9992 9.27684L21.2304 13.1028C21.266 13.2135 21.3357 13.3099 21.4294 13.3782C21.5232 13.4466 21.6361 13.4832 21.752 13.483L25.7626 13.4745L22.5131 15.8335C22.4192 15.9017 22.3493 15.998 22.3135 16.1086C22.2777 16.2192 22.2778 16.3384 22.3139 16.4489L23.5611 20.2722L20.3214 17.9014ZM27.2791 15.6118C27.2366 15.7425 27.2366 15.8833 27.2792 16.014C27.3217 16.1446 27.4045 16.2583 27.5157 16.3386L30.2905 18.3527L29.2273 21.6189C29.1845 21.7497 29.1841 21.8907 29.2262 22.0216C29.2684 22.1526 29.3508 22.2667 29.4616 22.3478C29.5725 22.4288 29.7061 22.4724 29.8432 22.4725C29.9803 22.4725 30.1139 22.4289 30.2248 22.348L32.9914 20.3217L35.7604 22.3491C35.8716 22.4297 36.0053 22.4728 36.1424 22.4724C36.2795 22.472 36.413 22.4281 36.5237 22.3469C36.6344 22.2658 36.7167 22.1515 36.7587 22.0206C36.8008 21.8896 36.8004 21.7487 36.7577 21.6179L35.693 18.3526L38.4671 16.339C38.5784 16.2584 38.6614 16.1445 38.7041 16.0136C38.7468 15.8827 38.747 15.7416 38.7046 15.6106C38.6623 15.4796 38.5796 15.3654 38.4685 15.2846C38.3574 15.2037 38.2236 15.1603 38.0863 15.1606L34.6609 15.1666L33.6097 11.897L33.608 11.8919C33.5644 11.761 33.4806 11.6475 33.3686 11.5675C33.2567 11.4875 33.1223 11.4452 32.9848 11.4467C32.849 11.4475 32.7168 11.4914 32.6074 11.5723C32.498 11.6531 32.417 11.7667 32.3759 11.8966L31.3227 15.1666L27.896 15.1606C27.7588 15.1605 27.625 15.2041 27.5141 15.2852C27.4032 15.3663 27.3209 15.4807 27.2791 15.6118ZM31.7196 16.2651H31.7205C31.8363 16.2651 31.9491 16.2284 32.0427 16.1601C32.1362 16.0918 32.2058 15.9955 32.2414 15.8849L32.9927 13.5522L33.7427 15.8846C33.7782 15.9952 33.8478 16.0915 33.9413 16.1599C34.0349 16.2283 34.1476 16.2651 34.2634 16.2651H34.2643L36.709 16.2607L34.7289 17.698C34.635 17.7661 34.5651 17.8624 34.5292 17.973C34.4934 18.0836 34.4935 18.2028 34.5296 18.3133L35.2903 20.6457L33.3141 19.1991C33.2204 19.1306 33.1075 19.0936 32.9916 19.0936C32.8757 19.0936 32.7628 19.1306 32.6692 19.1991L30.6954 20.6444L31.4544 18.313C31.4903 18.2025 31.4904 18.0834 31.4546 17.9729C31.4187 17.8623 31.3488 17.7661 31.2549 17.698L29.2748 16.2607L31.7196 16.2651ZM1.53046 16.3386L4.30515 18.3526L3.24007 21.6181C3.23882 21.6221 3.23757 21.6259 3.2364 21.6301C3.19664 21.7608 3.19882 21.9007 3.24265 22.0301C3.28647 22.1595 3.36971 22.2718 3.4806 22.3511C3.5915 22.4305 3.72444 22.4728 3.86064 22.4722C3.99684 22.4716 4.1294 22.4281 4.2396 22.3478L7.0064 20.3217L9.77538 22.3491C9.88571 22.4288 10.0182 22.4718 10.1541 22.472C10.2901 22.4722 10.4227 22.4296 10.5332 22.3502C10.6438 22.2708 10.7268 22.1586 10.7704 22.0294C10.8141 21.9002 10.8163 21.7606 10.7766 21.6301C10.7754 21.626 10.7741 21.6222 10.7728 21.6179L9.70773 18.3526L12.4819 16.339C12.5932 16.2584 12.6762 16.1444 12.7189 16.0135C12.7616 15.8826 12.7617 15.7415 12.7194 15.6104C12.677 15.4794 12.5943 15.3653 12.4831 15.2844C12.3719 15.2036 12.2381 15.1603 12.1008 15.1606L8.67531 15.1666L7.62421 11.897L7.62257 11.892C7.57925 11.7619 7.49609 11.6487 7.38496 11.5687C7.27382 11.4888 7.14037 11.446 7.0036 11.4465C6.86684 11.4471 6.73373 11.4909 6.62323 11.5718C6.51273 11.6527 6.43049 11.7665 6.3882 11.897L5.33726 15.1666L1.91085 15.1606C1.77373 15.1605 1.6401 15.204 1.52916 15.2849C1.41823 15.3658 1.33569 15.4798 1.29343 15.6107C1.25116 15.7416 1.25133 15.8826 1.29392 16.0133C1.33651 16.1441 1.41933 16.258 1.53046 16.3386ZM5.73437 16.2651H5.7353C5.85103 16.2651 5.96376 16.2282 6.0573 16.1599C6.15084 16.0915 6.22036 15.9951 6.25585 15.8846L7.0064 13.5501L7.75702 15.8849C7.79252 15.9955 7.86203 16.0918 7.95557 16.1602C8.04911 16.2285 8.16185 16.2654 8.27757 16.2654H8.27851L10.7233 16.2611L8.74312 17.6983C8.64921 17.7665 8.57931 17.8628 8.5435 17.9734C8.5077 18.084 8.50784 18.2031 8.5439 18.3136L9.3046 20.646L7.3289 19.1991C7.23528 19.1305 7.12236 19.0936 7.00644 19.0936C6.89052 19.0936 6.7776 19.1305 6.68398 19.1991L4.70827 20.6457L5.46898 18.3133C5.50503 18.2028 5.50516 18.0836 5.46934 17.973C5.43352 17.8624 5.3636 17.7661 5.26968 17.698L3.2896 16.2607L5.73437 16.2651ZM26.6328 8.65727L30.413 6.4664C30.4752 6.43037 30.5438 6.40699 30.615 6.39758C30.6862 6.38818 30.7586 6.39294 30.828 6.41159C30.8973 6.43024 30.9624 6.46242 31.0193 6.50629C31.0763 6.55016 31.1241 6.60486 31.16 6.66727C31.1959 6.72968 31.2192 6.79857 31.2286 6.87002C31.238 6.94146 31.2332 7.01406 31.2147 7.08366C31.1961 7.15327 31.164 7.21852 31.1203 7.27569C31.0766 7.33286 31.022 7.38083 30.9598 7.41685L27.1797 9.60772C27.1175 9.64375 27.0488 9.66713 26.9776 9.67654C26.9064 9.68594 26.8341 9.68118 26.7647 9.66253C26.6953 9.64388 26.6303 9.6117 26.5733 9.56783C26.5163 9.52396 26.4685 9.46926 26.4326 9.40685C26.3967 9.34444 26.3734 9.27555 26.364 9.2041C26.3546 9.13266 26.3594 9.06006 26.378 8.99046C26.3966 8.92085 26.4286 8.8556 26.4724 8.79843C26.5161 8.74126 26.5706 8.69329 26.6328 8.65727ZM13.5726 3.50083C13.5001 3.37477 13.4805 3.22497 13.518 3.08438C13.5556 2.94379 13.6473 2.82393 13.7729 2.75116C13.8986 2.6784 14.0479 2.65869 14.188 2.69638C14.3281 2.73406 14.4476 2.82605 14.5201 2.95211L16.7036 6.74719C16.7761 6.87323 16.7958 7.02303 16.7582 7.16361C16.7206 7.30419 16.629 7.42405 16.5034 7.49681C16.3777 7.56957 16.2284 7.58929 16.0883 7.55161C15.9482 7.51393 15.8288 7.42195 15.7562 7.2959L13.5726 3.50083ZM23.4338 6.22967L25.6151 2.43459C25.651 2.37216 25.6988 2.31743 25.7558 2.27353C25.8128 2.22963 25.8778 2.19742 25.9472 2.17875C26.0166 2.16008 26.089 2.1553 26.1602 2.16469C26.2315 2.17408 26.3001 2.19746 26.3624 2.23349C26.4246 2.26952 26.4792 2.31749 26.5229 2.37467C26.5667 2.43186 26.5988 2.49712 26.6174 2.56675C26.636 2.63638 26.6407 2.709 26.6314 2.78047C26.622 2.85195 26.5987 2.92087 26.5628 2.98331L24.3816 6.77838C24.309 6.90448 24.1896 6.99652 24.0494 7.03423C23.9093 7.07194 23.7599 7.05225 23.6343 6.97949C23.5086 6.90672 23.4169 6.78685 23.3793 6.64623C23.3417 6.50561 23.3613 6.35577 23.4338 6.22967ZM9.35406 7.56477C9.38997 7.50235 9.43779 7.44763 9.49479 7.40376C9.55179 7.35988 9.61684 7.3277 9.68624 7.30906C9.75563 7.29042 9.82801 7.28567 9.89923 7.2951C9.97045 7.30454 10.0391 7.32795 10.1013 7.36402L13.8816 9.55496C13.9438 9.59099 13.9983 9.63896 14.042 9.69613C14.0857 9.7533 14.1178 9.81855 14.1364 9.88815C14.155 9.95776 14.1597 10.0304 14.1503 10.1018C14.141 10.1732 14.1177 10.2421 14.0817 10.3045C14.0458 10.367 13.998 10.4217 13.9411 10.4655C13.8841 10.5094 13.819 10.5416 13.7497 10.5602C13.6803 10.5789 13.608 10.5836 13.5367 10.5742C13.4655 10.5648 13.3969 10.5414 13.3347 10.5054L9.5539 8.31447C9.49171 8.27842 9.43721 8.23042 9.39351 8.17323C9.34982 8.11604 9.31777 8.05077 9.29921 7.98116C9.28066 7.91154 9.27595 7.83893 9.28536 7.76749C9.29477 7.69605 9.31811 7.62716 9.35406 7.56477ZM19.4523 5.73065V1.34876C19.4523 1.20324 19.51 1.06367 19.6125 0.960764C19.7151 0.85786 19.8542 0.800049 19.9992 0.800049C20.1443 0.800049 20.2833 0.85786 20.3859 0.960764C20.4885 1.06367 20.5461 1.20324 20.5461 1.34876V5.73065C20.5461 5.87618 20.4885 6.01575 20.3859 6.11865C20.2833 6.22156 20.1443 6.27937 19.9992 6.27937C19.8542 6.27937 19.7151 6.22156 19.6125 6.11865C19.51 6.01575 19.4523 5.87618 19.4523 5.73065Z" fill="#16191E"/>
</g>
</svg>
