<svg width="36" height="36" viewBox="0 0 36 36" fill="none" xmlns="http://www.w3.org/2000/svg">
<mask id="mask0_324_357" style="mask-type:alpha" maskUnits="userSpaceOnUse" x="0" y="0" width="36" height="36">
<rect width="36" height="36" fill="#D9D9D9"/>
</mask>
<g mask="url(#mask0_324_357)">
<path d="M18 6.6C15.7453 6.6 13.5412 7.2686 11.6665 8.52125C9.79178 9.7739 8.33061 11.5543 7.46777 13.6374C6.60494 15.7205 6.37918 18.0126 6.81905 20.224C7.25892 22.4354 8.34467 24.4667 9.93898 26.061C11.5333 27.6553 13.5646 28.7411 15.776 29.181C17.9874 29.6208 20.2795 29.3951 22.3626 28.5322C24.4457 27.6694 26.2261 26.2082 27.4788 24.3335C28.7314 22.4588 29.4 20.2547 29.4 18C29.3965 14.9776 28.1943 12.08 26.0572 9.94284C23.92 7.80568 21.0224 6.60349 18 6.6ZM18 28.2C15.9826 28.2 14.0106 27.6018 12.3332 26.481C10.6558 25.3602 9.34844 23.7672 8.57643 21.9034C7.80442 20.0396 7.60242 17.9887 7.99599 16.0101C8.38956 14.0315 9.36102 12.214 10.7875 10.7875C12.214 9.36102 14.0315 8.38956 16.0101 7.99599C17.9887 7.60242 20.0396 7.80442 21.9034 8.57643C23.7672 9.34844 25.3602 10.6558 26.481 12.3332C27.6018 14.0106 28.2 15.9826 28.2 18C28.197 20.7043 27.1214 23.2969 25.2092 25.2092C23.2969 27.1214 20.7043 28.197 18 28.2ZM34.6368 14.1906L32.3448 13.6176C32.0638 12.6967 31.6943 11.8051 31.2414 10.9554L32.4576 8.9292C32.6644 8.58516 32.7502 8.18179 32.7011 7.78337C32.6521 7.38495 32.4711 7.01441 32.187 6.7308L29.2692 3.8124C28.9853 3.52863 28.6146 3.34792 28.2162 3.299C27.8177 3.25008 27.4144 3.33575 27.0702 3.5424L25.0446 4.7586C24.1949 4.30551 23.3034 3.93579 22.3824 3.6546L21.8094 1.3626C21.7124 0.973101 21.4877 0.627303 21.1713 0.380345C20.8548 0.133387 20.4648 -0.000511193 20.0634 1.46666e-06H15.936C15.5345 -0.000477935 15.1444 0.133506 14.828 0.380581C14.5115 0.627656 14.2869 0.973589 14.19 1.3632L13.617 3.6552C12.6965 3.93608 11.8053 4.3054 10.956 4.758L8.9298 3.5418C8.58579 3.33486 8.1824 3.24907 7.78395 3.29812C7.38551 3.34716 7.01496 3.52821 6.7314 3.8124L3.813 6.7302C3.52914 7.01409 3.34837 7.38475 3.29944 7.78322C3.25052 8.18169 3.33625 8.58507 3.543 8.9292L4.7592 10.9548C4.30612 11.8045 3.93639 12.696 3.6552 13.617L1.3632 14.19C0.97349 14.2869 0.627482 14.5116 0.380397 14.8282C0.133311 15.1448 -0.000611466 15.535 2.09893e-06 15.9366V20.0634C-0.000477303 20.4649 0.133507 20.855 0.380582 21.1714C0.627657 21.4879 0.97359 21.7125 1.3632 21.8094L3.6552 22.3824C3.93604 23.3031 4.30536 24.1945 4.758 25.044L3.5418 27.0702C3.33496 27.4142 3.24924 27.8176 3.29828 28.216C3.34732 28.6144 3.52831 28.985 3.8124 29.2686L6.7302 32.187C7.01403 32.471 7.38471 32.6518 7.7832 32.7007C8.18169 32.7496 8.5851 32.6639 8.9292 32.457L10.9548 31.2408C11.8045 31.6939 12.696 32.0636 13.617 32.3448L14.19 34.6368C14.2869 35.0265 14.5116 35.3725 14.8282 35.6196C15.1448 35.8667 15.535 36.0006 15.9366 36H20.0634C20.4649 36.0005 20.855 35.8665 21.1714 35.6194C21.4879 35.3723 21.7125 35.0264 21.8094 34.6368L22.3824 32.3448C23.3033 32.0638 24.1949 31.6943 25.0446 31.2414L27.0708 32.4576C27.4148 32.6645 27.8182 32.7503 28.2166 32.7013C28.6151 32.6522 28.9856 32.4712 29.2692 32.187L32.1876 29.2692C32.4715 28.9853 32.6522 28.6146 32.7012 28.2162C32.7501 27.8177 32.6643 27.4143 32.4576 27.0702L31.2414 25.0446C31.6945 24.1949 32.0642 23.3034 32.3454 22.3824L34.6374 21.8094C35.0269 21.7124 35.3727 21.4877 35.6197 21.1713C35.8666 20.8548 36.0005 20.4648 36 20.0634V15.936C36.0005 15.5345 35.8665 15.1444 35.6194 14.828C35.3723 14.5115 35.0264 14.2875 34.6368 14.1906ZM34.8 20.0628C34.8001 20.1967 34.7555 20.3267 34.6732 20.4323C34.5909 20.5379 34.4756 20.6129 34.3458 20.6454L31.7202 21.3018C31.6175 21.3275 31.5235 21.3799 31.4477 21.4536C31.3718 21.5274 31.3168 21.6199 31.2882 21.7218C30.9916 22.7827 30.5684 23.8041 30.0276 24.7638C29.9756 24.8561 29.949 24.9605 29.9504 25.0664C29.9519 25.1724 29.9814 25.276 30.036 25.3668L31.428 27.6876C31.4968 27.8024 31.5254 27.9368 31.509 28.0697C31.4927 28.2025 31.4325 28.3261 31.338 28.4208L28.4208 31.3374C28.3264 31.4325 28.2029 31.4932 28.07 31.5097C27.937 31.5263 27.8024 31.4977 27.6876 31.4286L25.3668 30.036C25.2759 29.9813 25.1722 29.9517 25.0661 29.9503C24.9601 29.9488 24.8556 29.9755 24.7632 30.0276C23.8036 30.5681 22.7825 30.9912 21.7218 31.2876C21.6198 31.3162 21.5273 31.3713 21.4535 31.4473C21.3797 31.5233 21.3274 31.6174 21.3018 31.7202L20.6454 34.3452C20.613 34.4751 20.5381 34.5904 20.4327 34.6728C20.3272 34.7552 20.1972 34.8 20.0634 34.8H15.936C15.8022 34.8 15.6723 34.7553 15.5669 34.673C15.4614 34.5907 15.3865 34.4755 15.354 34.3458L14.6976 31.7202C14.6719 31.6175 14.6195 31.5235 14.5458 31.4477C14.472 31.3718 14.3795 31.3168 14.2776 31.2882C13.2167 30.9916 12.1953 30.5684 11.2356 30.0276C11.1433 29.9756 11.0389 29.9491 10.933 29.9505C10.8271 29.952 10.7234 29.9815 10.6326 30.036L8.3118 31.428C8.19697 31.4966 8.06255 31.525 7.92977 31.5087C7.79699 31.4924 7.67343 31.4324 7.5786 31.338L4.662 28.4208C4.56708 28.3263 4.50653 28.2028 4.49 28.0699C4.47347 27.937 4.50192 27.8024 4.5708 27.6876L5.9634 25.3668C6.01807 25.2759 6.04766 25.1722 6.04913 25.0661C6.05061 24.9601 6.02392 24.8556 5.9718 24.7632C5.43128 23.8036 5.00824 22.7825 4.7118 21.7218C4.68317 21.6198 4.62807 21.5273 4.55209 21.4535C4.47611 21.3797 4.38196 21.3274 4.2792 21.3018L1.6542 20.6454C1.52455 20.6129 1.40946 20.5381 1.32718 20.4328C1.2449 20.3274 1.20014 20.1977 1.2 20.064V15.936C1.20001 15.8022 1.2447 15.6723 1.327 15.5669C1.40929 15.4614 1.52445 15.3865 1.6542 15.354L4.2798 14.6976C4.38245 14.6719 4.47647 14.6195 4.55234 14.5458C4.62821 14.472 4.68322 14.3795 4.7118 14.2776C5.00838 13.2167 5.43163 12.1953 5.9724 11.2356C6.02441 11.1433 6.05103 11.0389 6.04956 10.933C6.04808 10.827 6.01856 10.7234 5.964 10.6326L4.572 8.3118C4.50317 8.19703 4.47465 8.06256 4.49095 7.92973C4.50726 7.7969 4.56746 7.67332 4.662 7.5786L7.5792 4.662C7.67377 4.56727 7.79728 4.50684 7.93012 4.49032C8.06295 4.47379 8.1975 4.50212 8.3124 4.5708L10.6332 5.9634C10.7241 6.01795 10.8279 6.04747 10.9339 6.04894C11.0399 6.05042 11.1444 6.0238 11.2368 5.9718C12.1964 5.43128 13.2175 5.00824 14.2782 4.7118C14.3802 4.68317 14.4727 4.62807 14.5465 4.55209C14.6203 4.47611 14.6726 4.38196 14.6982 4.2792L15.3546 1.6542C15.3871 1.52455 15.4619 1.40946 15.5672 1.32718C15.6726 1.2449 15.8023 1.20014 15.936 1.2H20.0628C20.1966 1.2 20.3265 1.2447 20.4319 1.32699C20.5374 1.40929 20.6123 1.52445 20.6448 1.6542L21.3012 4.2798C21.3269 4.38245 21.3793 4.47647 21.453 4.55234C21.5268 4.62821 21.6193 4.68322 21.7212 4.7118C22.7821 5.00838 23.8035 5.43163 24.7632 5.9724C24.8555 6.02429 24.9599 6.05084 25.0658 6.04937C25.1717 6.04789 25.2754 6.01844 25.3662 5.964L27.687 4.572C27.8018 4.50338 27.9363 4.47497 28.069 4.49127C28.2018 4.50757 28.3254 4.56764 28.4202 4.662L31.3374 7.5792C31.4321 7.67381 31.4925 7.7974 31.5088 7.93029C31.5251 8.06317 31.4964 8.19769 31.4274 8.3124L30.0354 10.6332C29.9807 10.7241 29.9511 10.8278 29.9497 10.9339C29.9482 11.0399 29.9749 11.1444 30.027 11.2368C30.5675 12.1964 30.9906 13.2175 31.287 14.2782C31.3156 14.3802 31.3707 14.4727 31.4467 14.5465C31.5227 14.6203 31.6168 14.6726 31.7196 14.6982L34.3446 15.3546C34.4745 15.387 34.5898 15.4619 34.6722 15.5673C34.7546 15.6728 34.7994 15.8028 34.7994 15.9366L34.8 20.0628ZM16.902 9.9732L9.834 15.4104C9.70797 15.5076 9.62569 15.6509 9.60521 15.8087C9.58473 15.9665 9.62775 16.1261 9.7248 16.2522L11.1768 18.1362C11.2716 18.2592 11.4106 18.3404 11.5643 18.3625C11.718 18.3847 11.8743 18.3461 12 18.255V24.6C12 24.7591 12.0632 24.9117 12.1757 25.0243C12.2883 25.1368 12.4409 25.2 12.6 25.2H23.3646C23.5237 25.2 23.6763 25.1368 23.7889 25.0243C23.9014 24.9117 23.9646 24.7591 23.9646 24.6V18.2328L23.9826 18.246C24.1086 18.3428 24.2679 18.3857 24.4255 18.3652C24.5831 18.3448 24.7261 18.2626 24.8232 18.1368L26.2752 16.2522C26.3722 16.126 26.4151 15.9664 26.3945 15.8086C26.3739 15.6507 26.2915 15.5075 26.1654 15.4104L19.098 9.9738C18.7831 9.73179 18.3971 9.60059 18 9.60059C17.6029 9.60059 17.2169 9.73119 16.902 9.9732ZM19.2 24H16.7646V19.8H19.2V24ZM22.7646 24H20.4V19.2C20.4 19.0409 20.3368 18.8883 20.2243 18.7757C20.1117 18.6632 19.9591 18.6 19.8 18.6H16.1646C16.0055 18.6 15.8529 18.6632 15.7403 18.7757C15.6278 18.8883 15.5646 19.0409 15.5646 19.2V24H13.2V17.3364L18 13.6428L22.7646 17.3088V24ZM24.2382 16.929L18.3654 12.4104C18.2606 12.3299 18.1321 12.2863 18 12.2863C17.8679 12.2863 17.7394 12.3299 17.6346 12.4104L11.7618 16.9284L11.0418 15.9954L17.634 10.9248C17.739 10.8441 17.8677 10.7998 18.0001 10.7999C18.1325 10.8 18.2612 10.8439 18.366 10.9248L24.9582 15.9954L24.2382 16.929Z" fill="#16191E"/>
</g>
</svg>
