<svg width="40" height="40" viewBox="0 0 40 40" fill="none" xmlns="http://www.w3.org/2000/svg">
<mask id="mask0_324_62" style="mask-type:alpha" maskUnits="userSpaceOnUse" x="0" y="0" width="40" height="40">
<rect width="40" height="40" fill="#D9D9D9"/>
</mask>
<g mask="url(#mask0_324_62)">
<path d="M34.1683 30.826H30.6341C30.278 30.826 29.9228 30.8631 29.574 30.9339C28.4911 29.53 27.0073 28.4674 25.3634 27.9281C25.1398 27.8548 24.8976 27.9568 24.787 28.1708L21.9244 33.6818L21.2984 31.3636C21.2179 31.0662 21.265 30.7881 21.4382 30.5361L22.9748 28.3073C23.0813 28.1531 23.0951 27.9509 23.0114 27.7823C22.9276 27.6138 22.7602 27.5076 22.5772 27.5076H17.4203C17.3307 27.5076 17.2427 27.5332 17.1662 27.5816C17.0896 27.63 17.0274 27.6993 16.9864 27.7819C16.9453 27.8645 16.927 27.9572 16.9334 28.0499C16.9398 28.1426 16.9707 28.2316 17.0228 28.3073L18.5626 30.5403C18.735 30.7898 18.7821 31.067 18.7041 31.3628L18.0854 33.7037L15.2114 28.1708C15.1576 28.0671 15.0706 27.9861 14.9654 27.9417C14.8601 27.8974 14.7433 27.8926 14.635 27.9281C12.9919 28.4674 11.5073 29.53 10.4244 30.9339C10.0756 30.8622 9.72032 30.826 9.36423 30.826H5.83171C2.61626 30.826 0 33.7239 0 37.2866V37.9776C0 39.0925 0.874797 40 1.95122 40H38.0488C39.1244 40 40 39.0933 40 37.9776V37.2866C40 33.7239 37.3837 30.826 34.1683 30.826ZM19.3577 29.9522L18.3691 28.5188H21.6293L20.6439 29.948C20.3 30.4468 20.1984 31.0459 20.3577 31.6358L21.2569 34.9643L20 37.3869L18.7569 34.9938L19.6463 31.6299C19.8016 31.0426 19.6992 30.4468 19.3577 29.9522ZM0.97561 37.9776V37.2866C0.97561 34.2817 3.15366 31.8372 5.83171 31.8372H9.36585C9.51057 31.8372 9.65447 31.8465 9.79837 31.8608C8.95772 33.2807 8.51545 34.8952 8.51545 36.5788V38.9888H1.95122C1.41301 38.988 0.97561 38.5346 0.97561 37.9776ZM30.5089 38.988H26.9553V36.3159C26.9553 36.037 26.7366 35.8103 26.4675 35.8103C26.1984 35.8103 25.9797 36.037 25.9797 36.3159V38.988H14.0203V36.3159C14.0203 36.037 13.8016 35.8103 13.5325 35.8103C13.2634 35.8103 13.0447 36.037 13.0447 36.3159V38.988H9.49106V36.578C9.49106 33.1871 11.5081 30.2033 14.5504 29.0269L19.5707 38.6922C19.6561 38.8557 19.8211 38.9585 20 38.9585C20.1789 38.9585 20.3447 38.8565 20.4293 38.6922L25.4496 29.0269C28.4919 30.2033 30.5089 33.1871 30.5089 36.578V38.988ZM39.0244 37.9776C39.0244 38.5346 38.587 38.9888 38.0488 38.9888H31.4846V36.5788C31.4846 34.8952 31.0423 33.2807 30.2016 31.8608C30.3455 31.8465 30.4894 31.8372 30.6341 31.8372H34.1683C36.8455 31.8372 39.0244 34.2817 39.0244 37.2866V37.9776ZM32.4041 20.5464C31.122 20.5464 30.152 20.94 29.3512 21.7843C28.2569 22.9387 27.9862 25.2923 28.735 27.1436C29.3959 28.7783 30.7333 29.7162 32.4024 29.7162C34.0707 29.7162 35.4073 28.7783 36.0683 27.1436C36.8171 25.2923 36.5463 22.9379 35.452 21.7843C34.6504 20.94 33.6821 20.5464 32.4041 20.5464ZM35.1683 26.7526C34.8081 27.6433 34.0358 28.705 32.4016 28.705C30.7667 28.705 29.9943 27.6433 29.6341 26.7526C29.0463 25.2999 29.235 23.3491 30.0472 22.493C30.6691 21.8374 31.374 21.5568 32.4041 21.5568C33.4163 21.5568 34.1423 21.845 34.7553 22.493C35.5675 23.3491 35.7561 25.2999 35.1683 26.7526ZM7.59919 29.7162C9.26748 29.7162 10.6041 28.7783 11.265 27.1436C12.0138 25.2923 11.7431 22.9379 10.6488 21.7843C9.84797 20.94 8.87967 20.5464 7.60163 20.5464C6.31951 20.5464 5.34959 20.94 4.54878 21.7843C3.45447 22.9387 3.18374 25.2923 3.93252 27.1436C4.5935 28.7783 5.93008 29.7162 7.59919 29.7162ZM5.2439 22.493C5.86585 21.8374 6.57073 21.5568 7.60081 21.5568C8.61301 21.5568 9.33821 21.8458 9.95203 22.493C10.7634 23.3483 10.952 25.299 10.3642 26.7526C10.0041 27.6433 9.23171 28.705 7.59756 28.705C5.9626 28.705 5.19024 27.6433 4.83008 26.7526C4.2439 25.299 4.43252 23.3491 5.2439 22.493ZM20.0041 13.8616C18.2081 13.8616 16.8512 14.4102 15.7333 15.5891C14.2033 17.2019 13.8309 20.5068 14.8854 23.1123C15.8219 25.4279 17.639 26.7029 20.0008 26.7029C22.3618 26.7029 24.178 25.4279 25.1146 23.1123C26.1691 20.506 25.7959 17.2011 24.2667 15.5883C23.1488 14.4102 21.7943 13.8616 20.0041 13.8616ZM24.2146 22.7213C23.7659 23.8303 22.622 25.6917 20.0008 25.6917C17.378 25.6917 16.2341 23.8303 15.7854 22.7213C14.887 20.5009 15.1764 17.6191 16.4293 16.2978C17.3634 15.3119 18.4667 14.8728 20.0041 14.8728C21.5358 14.8728 22.6358 15.3127 23.5707 16.2978C24.8244 17.6191 25.113 20.5009 24.2146 22.7213ZM14.3992 4.49468L16.8537 6.60385L16.0642 9.8051C16.0401 9.90327 16.045 10.0067 16.0782 10.1019C16.1114 10.1972 16.1714 10.28 16.2505 10.3395C16.3295 10.399 16.424 10.4326 16.5217 10.4359C16.6194 10.4392 16.7158 10.412 16.7984 10.3579L19.4919 8.58999L22.1854 10.3579C22.265 10.4101 22.3561 10.4363 22.4463 10.4363C22.5472 10.4363 22.648 10.4042 22.7333 10.3393C22.8124 10.2798 22.8724 10.1971 22.9056 10.1019C22.9388 10.0066 22.9436 9.90324 22.9195 9.8051L22.1301 6.60385L24.5837 4.49468C24.7374 4.36239 24.7984 4.14667 24.7366 3.94949C24.6748 3.7523 24.5033 3.61411 24.3041 3.60147L21.1228 3.39081L19.9463 0.319324C19.9103 0.225121 19.8478 0.144314 19.7669 0.0873777C19.686 0.0304412 19.5905 0 19.4927 0C19.3949 0 19.2994 0.0304412 19.2185 0.0873777C19.1376 0.144314 19.0751 0.225121 19.039 0.319324L17.8618 3.38996L14.6797 3.60063C14.4805 3.61411 14.3089 3.7523 14.2472 3.94864C14.2169 4.04498 14.2152 4.1485 14.2423 4.24584C14.2694 4.34318 14.3241 4.42986 14.3992 4.49468ZM18.2317 4.3784C18.3238 4.37222 18.4124 4.33909 18.487 4.28286C18.5617 4.22663 18.6195 4.1496 18.6537 4.06072L19.4911 1.87487L20.3285 4.06072C20.3624 4.14972 20.4202 4.22687 20.4949 4.28312C20.5696 4.33938 20.6582 4.37243 20.7504 4.3784L23.0146 4.52839L21.2683 6.02916C21.1971 6.09012 21.1441 6.17085 21.1156 6.26189C21.0871 6.35293 21.0842 6.4505 21.1073 6.54318L21.6691 8.82172L19.752 7.56364C19.6739 7.51245 19.5835 7.48527 19.4911 7.48527C19.3987 7.48527 19.3082 7.51245 19.2301 7.56364L17.313 8.82172L17.8748 6.54318C17.9211 6.35358 17.8585 6.15387 17.7138 6.02916L15.9675 4.52839L18.2317 4.3784ZM3.70081 11.5081L6.15691 13.6156L5.36911 16.8177C5.31951 17.0182 5.3935 17.2297 5.55528 17.3519C5.63437 17.4111 5.72874 17.4445 5.82625 17.4476C5.92376 17.4508 6.01995 17.4236 6.10244 17.3696L8.79512 15.6L11.4902 17.3654C11.6593 17.4758 11.8764 17.4691 12.0382 17.3469C12.2 17.2247 12.2732 17.0132 12.2236 16.8126L11.4317 13.6114L13.8846 11.5005C13.9596 11.4358 14.0142 11.3493 14.0413 11.2521C14.0684 11.1549 14.0668 11.0515 14.0366 10.9553C14.0063 10.859 13.9488 10.7743 13.8715 10.7123C13.7943 10.6502 13.7008 10.6136 13.6033 10.6073L10.4211 10.3983L9.24228 7.32769C9.20612 7.23379 9.14367 7.15327 9.06295 7.0965C8.98224 7.03972 8.88697 7.00931 8.78943 7.00917C8.69173 7.00908 8.59626 7.0395 8.51549 7.09647C8.43471 7.15343 8.37237 7.23431 8.33659 7.32854L7.16179 10.4009L3.98049 10.6141C3.7813 10.6275 3.60976 10.7657 3.54797 10.9629C3.48618 11.1601 3.54715 11.3767 3.70081 11.5081ZM7.53333 11.3893C7.62556 11.3831 7.71419 11.3499 7.7889 11.2935C7.86361 11.2371 7.92131 11.1599 7.95528 11.0708L8.79106 8.88492L9.63008 11.0699C9.66427 11.159 9.72216 11.2361 9.79701 11.2923C9.87185 11.3486 9.96058 11.3816 10.0528 11.3876L12.3171 11.5359L10.5715 13.0384C10.5004 13.0996 10.4476 13.1805 10.4191 13.2716C10.3906 13.3628 10.3876 13.4604 10.4106 13.5532L10.974 15.8309L9.0561 14.5745C8.97801 14.5233 8.88752 14.4962 8.79512 14.4962C8.70273 14.4962 8.61223 14.5233 8.53415 14.5745L6.61789 15.8343L7.17805 13.5558C7.22439 13.3662 7.16179 13.1665 7.01626 13.0417L5.26829 11.5418L7.53333 11.3893ZM25.6041 10.6014L28.0618 12.7064L27.2772 15.9093C27.2285 16.1099 27.3024 16.3214 27.4642 16.4435C27.5496 16.5076 27.6496 16.5396 27.7504 16.5396C27.8415 16.5396 27.9317 16.5135 28.0122 16.4604L30.7033 14.6875L33.4 16.4503C33.4827 16.5042 33.579 16.5311 33.6767 16.5277C33.7743 16.5242 33.8686 16.4905 33.9476 16.4309C34.0265 16.3713 34.0864 16.2886 34.1195 16.1933C34.1527 16.0981 34.1575 15.9948 34.1333 15.8967L33.3382 12.6963L35.7894 10.5829C35.9431 10.4506 36.0033 10.234 35.9415 10.0368C35.8797 9.83965 35.7073 9.7023 35.5081 9.68966L32.326 9.48405L31.1439 6.4151C31.1077 6.3212 31.0453 6.24067 30.9646 6.1839C30.8839 6.12713 30.7886 6.09671 30.6911 6.09657H30.6902C30.4902 6.09657 30.3106 6.22381 30.2374 6.41678L29.0659 9.48995L25.8846 9.70651C25.6854 9.72 25.5138 9.85819 25.452 10.0554C25.3902 10.2526 25.4496 10.4691 25.6041 10.6014ZM29.4358 10.4784C29.528 10.4721 29.6165 10.4388 29.6912 10.3824C29.7659 10.326 29.8236 10.2489 29.8577 10.1599L30.6911 7.97317L31.5325 10.1573C31.5667 10.2463 31.6247 10.3233 31.6995 10.3794C31.7744 10.4355 31.8631 10.4684 31.9553 10.4742L34.2195 10.62L32.4756 12.1241C32.4046 12.1854 32.3519 12.2663 32.3235 12.3575C32.2951 12.4486 32.2924 12.5462 32.3154 12.639L32.8813 14.9158L30.9626 13.6611C30.8844 13.61 30.7939 13.583 30.7015 13.5832C30.6091 13.5833 30.5187 13.6106 30.4407 13.6619L28.526 14.9234L29.0837 12.644C29.1301 12.4544 29.0667 12.2547 28.9219 12.13L27.1724 10.6326L29.4358 10.4784Z" fill="#16191E"/>
</g>
</svg>
