<svg width="36" height="36" viewBox="0 0 36 36" fill="none" xmlns="http://www.w3.org/2000/svg">
<mask id="mask0_324_361" style="mask-type:alpha" maskUnits="userSpaceOnUse" x="0" y="0" width="36" height="36">
<rect width="36" height="36" fill="#D9D9D9"/>
</mask>
<g mask="url(#mask0_324_361)">
<path d="M35.7312 11.7777L18.2936 0.88436C18.2052 0.829226 18.1036 0.800049 18 0.800049C17.8964 0.800049 17.7948 0.829226 17.7064 0.88436L0.268813 11.7777C0.142256 11.8567 0.05144 11.9834 0.0161451 12.1303C-0.0191497 12.2772 0.00393629 12.4324 0.0803747 12.562L1.76788 15.4287C1.80607 15.4934 1.85645 15.5499 1.91611 15.5947C1.97577 15.6395 2.04353 15.6719 2.11552 15.69C2.1875 15.7081 2.26227 15.7114 2.33554 15.6999C2.40881 15.6885 2.47912 15.6623 2.54245 15.623L3.93745 14.7602V31.1867C3.93879 32.2507 4.35406 33.2707 5.0922 34.0231C5.83034 34.7754 6.83108 35.1987 7.87496 35.2001H15.75C15.8992 35.2001 16.0423 35.1396 16.1477 35.0321C16.2532 34.9246 16.3125 34.7788 16.3125 34.6267C16.3125 34.4747 16.2532 34.3288 16.1477 34.2213C16.0423 34.1138 15.8992 34.0534 15.75 34.0534H7.87496C7.12931 34.0525 6.41446 33.7502 5.88721 33.2128C5.35995 32.6753 5.06335 31.9467 5.06245 31.1867V14.0636L18 6.05754L30.9375 14.0636V31.1867C30.9367 31.9467 30.64 32.6753 30.1128 33.2128C29.5855 33.7502 28.8707 34.0525 28.125 34.0534H20.25C20.1008 34.0534 19.9577 34.1138 19.8523 34.2213C19.7468 34.3288 19.6875 34.4747 19.6875 34.6267C19.6875 34.7788 19.7468 34.9246 19.8523 35.0321C19.9577 35.1396 20.1008 35.2001 20.25 35.2001H28.125C29.1689 35.1987 30.1697 34.7754 30.9078 34.0231C31.6459 33.2707 32.0612 32.2507 32.0625 31.1867V14.7602L33.4576 15.6202C33.5454 15.6759 33.6466 15.7058 33.7501 15.7067C33.7955 15.7066 33.8409 15.701 33.8851 15.6901C33.9569 15.672 34.0246 15.6395 34.0842 15.5947C34.1437 15.5498 34.194 15.4934 34.2321 15.4287L35.9196 12.562C35.9961 12.4324 36.0191 12.2772 35.9839 12.1303C35.9486 11.9834 35.8577 11.8567 35.7312 11.7777ZM33.5588 14.3439L18.2919 4.89712C18.2039 4.84265 18.103 4.81385 18 4.81385C17.897 4.81385 17.7961 4.84265 17.7081 4.89712L4.20801 13.2506L2.4412 14.3439L1.33138 12.4588L18 2.04593L34.6686 12.4588L33.5588 14.3439Z" fill="#16191E"/>
<path d="M27.6929 23.1823C28.349 21.6791 28.6878 20.0522 28.6874 18.407C28.6941 16.8076 28.1058 15.2652 27.041 14.0904C26.5391 13.5207 25.9259 13.0641 25.2407 12.7501C24.5556 12.436 23.8137 12.2713 23.0624 12.2666C22.3216 12.2822 21.5917 12.4513 20.9171 12.7637C20.2425 13.076 19.6373 13.5251 19.1384 14.0835L17.9999 14.9813L16.8608 14.0829C16.3582 13.535 15.7586 13.0888 15.0935 12.7677C14.4198 12.4408 13.6835 12.2696 12.9374 12.2666C12.1862 12.2713 11.4442 12.436 10.7591 12.7501C10.0739 13.0641 9.46075 13.5207 8.95882 14.0904C7.89402 15.2652 7.30569 16.8076 7.31238 18.407C7.29942 20.0368 7.6318 21.6503 8.28679 23.1372C8.94178 24.6241 9.90396 25.9494 11.1076 27.0225L17.6326 32.7673C17.7347 32.857 17.8651 32.9064 17.9999 32.9064C18.1348 32.9064 18.2651 32.857 18.3672 32.7673L24.8922 27.023C26.0872 25.9642 27.0428 24.6538 27.6929 23.1823ZM17.9999 31.5759L11.8422 26.1544C10.7612 25.1888 9.89734 23.9968 9.30972 22.6597C8.72211 21.3226 8.42455 19.872 8.43738 18.407C8.43109 17.0967 8.91228 15.8326 9.78401 14.8695C10.1812 14.4164 10.6668 14.0528 11.2098 13.802C11.7528 13.5512 12.3413 13.4188 12.9374 13.4133C13.5191 13.4164 14.0929 13.551 14.6176 13.8071C15.1658 14.0717 15.6587 14.4416 16.0694 14.8965C16.0902 14.9194 17.6557 16.1578 17.6557 16.1578C17.7542 16.2355 17.8753 16.2777 17.9999 16.2777C18.1245 16.2777 18.2456 16.2355 18.3442 16.1578C18.3442 16.1578 19.9102 14.9194 19.9315 14.8965C20.3261 14.4441 20.8075 14.079 21.3461 13.8239C21.8846 13.5688 22.4688 13.429 23.0624 13.4133C23.6586 13.4188 24.247 13.5512 24.79 13.802C25.333 14.0528 25.8187 14.4164 26.2158 14.8695C27.0875 15.8326 27.5687 17.0967 27.5624 18.407C27.5629 19.8897 27.258 21.356 26.6675 22.711C26.0841 24.0301 25.2277 25.2049 24.1571 26.155L17.9999 31.5759Z" fill="#16191E"/>
<path d="M22.5 20.2935H20.25V17.9945C20.25 17.8424 20.1908 17.6966 20.0853 17.5891C19.9798 17.4815 19.8367 17.4211 19.6875 17.4211H16.3125C16.1633 17.4211 16.0203 17.4815 15.9148 17.5891C15.8093 17.6966 15.75 17.8424 15.75 17.9945V20.2935H13.5C13.3508 20.2935 13.2077 20.3539 13.1023 20.4615C12.9968 20.569 12.9375 20.7148 12.9375 20.8669V24.3069C12.9375 24.4589 12.9968 24.6048 13.1023 24.7123C13.2077 24.8198 13.3508 24.8802 13.5 24.8802H15.75V27.1735C15.75 27.3256 15.8093 27.4714 15.9148 27.5789C16.0203 27.6865 16.1633 27.7469 16.3125 27.7469H19.6875C19.8367 27.7469 19.9798 27.6865 20.0853 27.5789C20.1908 27.4714 20.25 27.3256 20.25 27.1735V24.8802H22.5C22.6492 24.8802 22.7923 24.8198 22.8978 24.7123C23.0033 24.6048 23.0625 24.4589 23.0625 24.3069V20.8669C23.0625 20.7148 23.0033 20.569 22.8978 20.4615C22.7923 20.3539 22.6492 20.2935 22.5 20.2935ZM21.9375 23.7335H19.6875C19.5383 23.7335 19.3953 23.7939 19.2898 23.9015C19.1843 24.009 19.125 24.1548 19.125 24.3069V26.6002H16.875V24.3069C16.875 24.1548 16.8158 24.009 16.7103 23.9015C16.6048 23.7939 16.4617 23.7335 16.3125 23.7335H14.0625V21.4402H16.3125C16.4617 21.4402 16.6048 21.3798 16.7103 21.2723C16.8158 21.1648 16.875 21.0189 16.875 20.8669V18.5678H19.125V20.8669C19.125 21.0189 19.1843 21.1648 19.2898 21.2723C19.3953 21.3798 19.5383 21.4402 19.6875 21.4402H21.9375V23.7335Z" fill="#16191E"/>
</g>
</svg>
