<svg width="40" height="40" viewBox="0 0 40 40" fill="none" xmlns="http://www.w3.org/2000/svg">
<mask id="mask0_324_72" style="mask-type:alpha" maskUnits="userSpaceOnUse" x="0" y="0" width="40" height="40">
<rect width="40" height="40" fill="#D9D9D9"/>
</mask>
<g mask="url(#mask0_324_72)">
<path d="M37.0776 15.3871L23.5019 3.22461C23.3626 1.42341 21.8524 0 20.0146 0C18.1769 0 16.6667 1.42341 16.5273 3.22461L2.95173 15.3871C1.31211 15.5078 0.0146484 16.8784 0.0146484 18.5471V36.8303C0.0146484 38.5781 1.43762 40 3.18665 40H36.8427C38.5917 40 40.0146 38.5781 40.0146 36.8303V18.5471C40.0146 16.8784 38.7172 15.5078 37.0776 15.3871ZM20.0146 1.17063C21.2979 1.17063 22.342 2.21397 22.342 3.49636C22.342 4.77874 21.2979 5.82201 20.0146 5.82201C18.7313 5.82201 17.6873 4.77874 17.6873 3.49636C17.6873 2.21397 18.7313 1.17063 20.0146 1.17063ZM38.8432 36.8303C38.8432 37.9326 37.9457 38.8294 36.8427 38.8294H3.18665C2.08358 38.8294 1.18614 37.9326 1.18614 36.8303V18.5471C1.18614 17.4449 2.08358 16.5481 3.18665 16.5481H8.89601C9.05136 16.5481 9.20035 16.4864 9.3102 16.3767C9.42005 16.2669 9.48176 16.118 9.48176 15.9628C9.48176 15.8075 9.42005 15.6587 9.3102 15.5489C9.20035 15.4391 9.05136 15.3775 8.89601 15.3775H4.71739L16.7075 4.63553C17.1815 6.00564 18.4845 6.99263 20.0147 6.99263C21.5449 6.99263 22.8479 6.00556 23.3219 4.63553L35.312 15.3775H11.3922C11.2369 15.3775 11.0879 15.4392 10.978 15.549C10.8682 15.6587 10.8065 15.8076 10.8065 15.9629C10.8065 16.1181 10.8682 16.267 10.978 16.3767C11.0879 16.4865 11.2369 16.5482 11.3922 16.5482H36.8427C37.9458 16.5482 38.8432 17.4449 38.8432 18.5472V36.8303H38.8432Z" fill="#16191E"/>
<path d="M37.0858 25.471C36.9305 25.471 36.7815 25.5326 36.6716 25.6424C36.5618 25.7522 36.5001 25.901 36.5001 26.0563V33.7252C35.1084 33.975 34.0197 35.1019 33.8046 36.4881H6.30315C6.08518 35.0622 4.95531 33.9319 3.52899 33.7122V30.9227C3.52899 30.7674 3.46728 30.6186 3.35743 30.5088C3.24758 30.399 3.09859 30.3374 2.94324 30.3374C2.7879 30.3374 2.63891 30.399 2.52906 30.5088C2.41921 30.6186 2.3575 30.7674 2.3575 30.9227V34.2608C2.35749 34.339 2.37318 34.4164 2.40364 34.4885C2.4341 34.5606 2.47872 34.6258 2.53485 34.6804C2.59098 34.7349 2.65749 34.7777 2.73044 34.8061C2.80339 34.8345 2.8813 34.848 2.95957 34.8458L2.98636 34.845C2.99799 34.8446 3.00955 34.844 3.02134 34.844C4.20595 34.844 5.1697 35.8071 5.1697 36.9908C5.1697 37.0049 5.16915 37.0187 5.1686 37.0326L5.16782 37.0555C5.16544 37.1338 5.17882 37.2118 5.20716 37.2849C5.23551 37.358 5.27825 37.4246 5.33285 37.4808C5.38745 37.5371 5.45279 37.5818 5.52501 37.6123C5.59722 37.6429 5.67484 37.6586 5.75325 37.6586H34.3537C34.4321 37.6586 34.5097 37.6429 34.5819 37.6124C34.6542 37.5818 34.7195 37.5371 34.7741 37.4809C34.8287 37.4246 34.8715 37.358 34.8998 37.2849C34.9281 37.2119 34.9415 37.1338 34.9391 37.0555L34.9383 37.0326C34.9378 37.0188 34.9372 37.0049 34.9372 36.9908C34.9372 35.8793 35.8043 34.9394 36.9114 34.851C37.3376 34.8168 37.6713 34.4571 37.6713 34.0319V26.0563C37.6714 25.9794 37.6562 25.9033 37.6268 25.8323C37.5974 25.7613 37.5543 25.6968 37.4999 25.6424C37.4456 25.588 37.381 25.5449 37.3099 25.5155C37.2389 25.4861 37.1627 25.471 37.0858 25.471ZM36.9115 20.687C35.8045 20.5985 34.9374 19.6586 34.9374 18.5454C34.9379 18.4365 34.9167 18.3287 34.8752 18.2281C34.8337 18.1275 34.7726 18.0361 34.6955 17.9593C34.6194 17.8828 34.529 17.8221 34.4293 17.7809C34.3296 17.7396 34.2227 17.7185 34.1148 17.7188H5.99224C5.77286 17.7188 5.5666 17.8042 5.41157 17.9593C5.25537 18.1155 5.16946 18.3237 5.1697 18.5472C5.1697 19.7309 4.20595 20.6939 3.02134 20.6939C3.009 20.6939 2.99674 20.6934 2.98448 20.693L2.96035 20.6922C2.882 20.6898 2.80396 20.7031 2.73089 20.7315C2.65782 20.7599 2.59123 20.8027 2.5351 20.8574C2.47888 20.9119 2.43419 20.9772 2.40367 21.0493C2.37315 21.1214 2.35743 21.1989 2.35742 21.2772V28.4282C2.35742 28.5834 2.41913 28.7323 2.52898 28.8421C2.63883 28.9519 2.78782 29.0135 2.94317 29.0135C3.09852 29.0135 3.2475 28.9519 3.35735 28.8421C3.4672 28.7323 3.52891 28.5834 3.52891 28.4282V21.8258C5.00756 21.5981 6.16757 20.3915 6.3233 18.8893H33.7837C33.9366 20.3484 35.0549 21.5535 36.5 21.8127V23.5618C36.5 23.7171 36.5617 23.8659 36.6715 23.9757C36.7814 24.0855 36.9304 24.1471 37.0857 24.1471C37.2411 24.1471 37.3901 24.0855 37.4999 23.9757C37.6098 23.8659 37.6715 23.7171 37.6715 23.5618V21.5061C37.6715 21.0809 37.3377 20.7211 36.9115 20.687Z" fill="#16191E"/>
<path d="M23.3379 23.736C23.1825 23.736 23.0335 23.7977 22.9237 23.9074C22.8138 24.0172 22.7521 24.1661 22.7521 24.3213V30.1959C22.7521 30.334 22.8009 30.4676 22.89 30.5732C22.979 30.6787 23.1025 30.7494 23.2387 30.7728C23.2805 30.78 23.3184 30.7865 23.9642 30.7865C24.2772 30.7865 24.7333 30.785 25.4015 30.7813C25.5568 30.7809 25.7056 30.7188 25.8152 30.6088C25.9247 30.4987 25.986 30.3496 25.9856 30.1944C25.9852 30.0392 25.9231 29.8905 25.8129 29.781C25.7028 29.6715 25.5536 29.6103 25.3983 29.6107H25.3949C24.8786 29.6136 24.3224 29.6155 23.9236 29.6157V24.3214C23.9236 24.2445 23.9085 24.1684 23.879 24.0974C23.8496 24.0264 23.8065 23.9618 23.7521 23.9075C23.6977 23.8531 23.6331 23.81 23.562 23.7806C23.491 23.7511 23.4148 23.736 23.3379 23.736ZM27.998 30.0213C27.998 30.0634 28.0026 30.1043 28.011 30.1439C28.0182 30.2893 28.0794 30.4268 28.1826 30.5295C28.2923 30.6383 28.4406 30.6994 28.5953 30.6994H28.5974C28.6463 30.6992 29.7985 30.6948 30.2584 30.6867C31.9005 30.6581 33.0924 29.2174 33.0924 27.2612C33.0924 25.2048 31.9304 23.8231 30.2009 23.8231H28.5837C28.5067 23.8231 28.4304 23.8382 28.3593 23.8677C28.2881 23.8972 28.2235 23.9404 28.1691 23.9949C28.1146 24.0493 28.0715 24.114 28.0422 24.1851C28.0128 24.2563 27.9978 24.3325 27.998 24.4095V24.4143V30.0213ZM30.2008 24.9937C31.4691 24.9937 31.9209 26.165 31.9209 27.2612C31.9209 28.3331 31.3942 29.496 30.2378 29.5162C29.9965 29.5204 29.5471 29.5237 29.179 29.5259C29.1768 28.8537 29.1716 25.6922 29.1705 24.9937H30.2008ZM9.72703 29.5959C9.10068 29.5959 8.49642 29.342 8.11061 28.9167C8.00629 28.8016 7.86051 28.7327 7.70535 28.7251C7.55018 28.7175 7.39834 28.7718 7.28323 28.876C7.16812 28.9802 7.09916 29.1259 7.09153 29.281C7.0839 29.436 7.13822 29.5877 7.24254 29.7028C7.84664 30.3689 8.77539 30.7666 9.72695 30.7666C10.8755 30.7666 11.8765 30.0114 12.0555 29.0098C12.1913 28.2497 11.8384 27.2539 10.4406 26.7387C9.69361 26.4633 9.00001 26.163 8.81358 26.0812C8.64778 25.9568 8.56757 25.7602 8.59811 25.5476C8.63763 25.2723 8.85185 25.0506 9.17112 24.9545C10.0818 24.68 10.9103 25.3413 10.9285 25.3561C11.0478 25.4551 11.2014 25.5028 11.3558 25.4887C11.5102 25.4747 11.6527 25.4001 11.7522 25.2812C11.8516 25.1624 11.8998 25.009 11.8863 24.8547C11.8727 24.7004 11.7985 24.5577 11.6799 24.458C11.627 24.4135 10.3639 23.3726 8.83319 23.8336C8.07734 24.0611 7.54291 24.6541 7.43849 25.3811C7.34094 26.0598 7.63514 26.7124 8.20621 27.0845C8.23213 27.1013 8.25924 27.1161 8.28751 27.1286C8.3214 27.1438 9.12723 27.5022 10.0351 27.8369C10.6552 28.0654 10.9712 28.4179 10.9022 28.804C10.8328 29.1933 10.3742 29.5959 9.72703 29.5959ZM21.0447 27.2612C21.0447 25.3174 19.4622 23.7361 17.517 23.7361C15.5719 23.7361 13.9894 25.3174 13.9894 27.2612C13.9894 29.2049 15.5719 30.7862 17.517 30.7862C19.4622 30.7862 21.0447 29.205 21.0447 27.2612ZM15.1608 27.2612C15.1608 25.9629 16.2178 24.9067 17.517 24.9067C18.8161 24.9067 19.8731 25.9629 19.8731 27.2612C19.8731 28.5594 18.8161 29.6156 17.517 29.6156C16.2178 29.6156 15.1608 28.5594 15.1608 27.2612Z" fill="#16191E"/>
</g>
</svg>
