<svg width="24" height="24" viewBox="0 0 24 24" fill="none" xmlns="http://www.w3.org/2000/svg">
<mask id="mask0_683_5507" style="mask-type:alpha" maskUnits="userSpaceOnUse" x="0" y="0" width="24" height="24">
<rect width="24" height="24" fill="white"/>
</mask>
<g mask="url(#mask0_683_5507)">
<mask id="mask1_683_5507" style="mask-type:alpha" maskUnits="userSpaceOnUse" x="0" y="0" width="24" height="24">
<rect width="24" height="24" fill="white"/>
</mask>
<g mask="url(#mask1_683_5507)">
<path d="M22.8 16.4V15.2H23.2C23.4122 15.2 23.6157 15.1157 23.7657 14.9657C23.9157 14.8157 24 14.6122 24 14.4V14C24 13.5757 23.8314 13.1687 23.5314 12.8686C23.2313 12.5686 22.8243 12.4 22.4 12.4H19.804C19.5509 11.9177 19.1708 11.5138 18.7048 11.2318C18.2389 10.9498 17.7047 10.8005 17.16 10.8H12.76C12.3407 10.779 11.9216 10.8459 11.5296 10.9962C11.1376 11.1466 10.7813 11.3772 10.4836 11.6732C10.4187 11.6252 10.3556 11.5749 10.2944 11.5224C9.09294 10.5144 7.56808 9.97385 6 10H4.4V2.80002C4.4 2.69393 4.44214 2.59219 4.51716 2.51717C4.59217 2.44216 4.69391 2.40002 4.8 2.40002H6.936C7.0432 2.40002 7.1464 2.44322 7.2212 2.52002L7.7896 3.08842C7.40878 3.57782 7.20138 4.1799 7.2 4.80002C7.2 5.01219 7.28429 5.21567 7.43431 5.3657C7.58434 5.51573 7.78783 5.60002 8 5.60002H12C12.1977 5.59775 12.3878 5.52372 12.535 5.39171C12.6822 5.2597 12.7763 5.0787 12.8 4.88242C12.8104 4.1915 12.569 3.5204 12.121 2.99431C11.673 2.46822 11.0489 2.12306 10.3652 2.02322C10.2764 2.01251 10.1871 2.00597 10.0976 2.00362L8.92 0.821216C8.6601 0.559846 8.3509 0.352672 8.01033 0.211705C7.66976 0.0707388 7.30459 -0.00121518 6.936 1.55245e-05H4.8C4.05765 0.000862469 3.34595 0.296134 2.82104 0.821052C2.29612 1.34597 2.00085 2.05767 2 2.80002V10H1.6C1.17565 10 0.768687 10.1686 0.468629 10.4686C0.168571 10.7687 0 11.1757 0 11.6L0 12C0 12.2122 0.0842855 12.4157 0.234315 12.5657C0.384344 12.7157 0.587827 12.8 0.8 12.8H1.2V16.4C1.20088 17.272 1.42117 18.1298 1.84058 18.8943C2.25999 19.6588 2.86504 20.3055 3.6 20.7748V21.6H3.2C2.88174 21.6 2.57652 21.7264 2.35147 21.9515C2.12643 22.1765 2 22.4818 2 22.8V23.2H0.4C0.293913 23.2 0.192172 23.2422 0.117157 23.3172C0.0421427 23.3922 0 23.4939 0 23.6C0 23.7061 0.0421427 23.8078 0.117157 23.8829C0.192172 23.9579 0.293913 24 0.4 24H23.6C23.7061 24 23.8078 23.9579 23.8828 23.8829C23.9579 23.8078 24 23.7061 24 23.6C24 23.4939 23.9579 23.3922 23.8828 23.3172C23.8078 23.2422 23.7061 23.2 23.6 23.2H22V22.8C22 22.4818 21.8736 22.1765 21.6485 21.9515C21.4235 21.7264 21.1183 21.6 20.8 21.6H20.4V20.7748C21.135 20.3055 21.74 19.6588 22.1594 18.8943C22.5788 18.1298 22.7991 17.272 22.8 16.4ZM23.2 14V14.4H20.16V13.8C20.16 13.5984 20.1396 13.3976 20.0988 13.2H22.4C22.6122 13.2 22.8157 13.2843 22.9657 13.4343C23.1157 13.5844 23.2 13.7878 23.2 14ZM19.1908 12.9532C19.3026 13.2215 19.3601 13.5093 19.36 13.8V18.4C19.36 18.5061 19.3179 18.6078 19.2428 18.6829C19.1678 18.7579 19.0661 18.8 18.96 18.8H16C15.8939 18.8 15.7922 18.7579 15.7172 18.6829C15.6421 18.6078 15.6 18.5061 15.6 18.4V13.8C15.6002 13.3867 15.5148 12.9778 15.3491 12.5991C15.1834 12.2205 14.941 11.8803 14.6372 11.6H17.16C17.5943 11.6 18.0188 11.7284 18.3802 11.9692C18.7416 12.21 19.0236 12.5524 19.1908 12.9532ZM14 13.8C14.0014 13.6155 13.965 13.4327 13.8932 13.2628C13.788 13.0079 13.6096 12.7899 13.3806 12.6363C13.1516 12.4828 12.8822 12.4005 12.6064 12.4C12.1248 12.3942 11.6494 12.2905 11.2092 12.0952C11.5317 11.8321 11.9222 11.6658 12.3354 11.6158C12.7486 11.5657 13.1676 11.6339 13.5436 11.8124C13.9195 11.9909 14.2372 12.2725 14.4596 12.6243C14.682 12.9761 14.8 13.3838 14.8 13.8V18.4C14.8012 18.5364 14.8264 18.672 14.8736 18.8H14.4C14.2939 18.8 14.1922 18.7579 14.1172 18.6829C14.0421 18.6078 14 18.5061 14 18.4V13.8ZM12 4.80002H8C8 4.26958 8.21071 3.76088 8.58579 3.3858C8.96086 3.01073 9.46957 2.80002 10 2.80002C10.5304 2.80002 11.0391 3.01073 11.4142 3.3858C11.7893 3.76088 12 4.26958 12 4.80002ZM2.8 2.80002C2.80064 2.26978 3.01155 1.76144 3.38649 1.3865C3.76142 1.01157 4.26976 0.800651 4.8 0.800016H6.936C7.1992 0.799229 7.45994 0.850651 7.70314 0.951307C7.94633 1.05196 8.16714 1.19985 8.3528 1.38642L9.1128 2.14842C8.8452 2.23722 8.5928 2.36602 8.364 2.53042L7.7868 1.95322C7.67541 1.84097 7.54286 1.75195 7.39681 1.69132C7.25076 1.63069 7.09413 1.59966 6.936 1.60002H4.8C4.48174 1.60002 4.17652 1.72644 3.95147 1.95149C3.72643 2.17653 3.6 2.48176 3.6 2.80002V10H2.8V2.80002ZM0.8 11.6C0.8 11.3878 0.884285 11.1844 1.03431 11.0343C1.18434 10.8843 1.38783 10.8 1.6 10.8H6C7.3748 10.7739 8.71291 11.2444 9.7688 12.1252C10.5146 12.7704 11.455 13.1472 12.44 13.1956C12.6368 13.178 12.8332 13.2316 12.994 13.3456C13.1252 13.4604 13.2 13.6256 13.2 13.8V14.4H12.8C11.4249 14.4248 10.0868 13.9542 9.03 13.074C8.23246 12.3818 7.21203 12.0005 6.156 12H0.8V11.6ZM2 16.4V12.8H6.156C7.01907 12.8004 7.85309 13.1118 8.5052 13.6772C9.70705 14.6848 11.2318 15.2255 12.8 15.2H13.2V18.4C13.2 18.7183 13.3264 19.0235 13.5515 19.2485C13.7765 19.4736 14.0817 19.6 14.4 19.6H18.96C19.2783 19.6 19.5835 19.4736 19.8085 19.2485C20.0336 19.0235 20.16 18.7183 20.16 18.4V15.2H22V16.4C21.9972 18.8288 20.0288 20.7972 17.6 20.8H6.4C3.9712 20.7972 2.0028 18.8288 2 16.4ZM7.2728 21.6H16.7272C16.9713 21.7937 17.1727 22.0359 17.3187 22.3113C17.4646 22.5866 17.552 22.8892 17.5752 23.2H6.4244C6.4478 22.8892 6.53525 22.5866 6.68126 22.3113C6.82727 22.0359 7.02867 21.7938 7.2728 21.6ZM2.8 23.2V22.8C2.8 22.6939 2.84214 22.5922 2.91716 22.5172C2.99217 22.4422 3.09391 22.4 3.2 22.4H4C4.10609 22.4 4.20783 22.3579 4.28284 22.2829C4.35786 22.2078 4.4 22.1061 4.4 22V21.2C4.968 21.436 5.574 21.568 6.1888 21.5904C5.85778 22.066 5.66127 22.6221 5.62 23.2H2.8ZM20 22.4H20.8C20.9061 22.4 21.0078 22.4422 21.0828 22.5172C21.1579 22.5922 21.2 22.6939 21.2 22.8V23.2H18.382C18.3398 22.6216 18.1426 22.0652 17.8112 21.5892C18.4259 21.5671 19.0317 21.4353 19.6 21.2V22C19.6 22.1061 19.6421 22.2078 19.7172 22.2829C19.7922 22.3579 19.8939 22.4 20 22.4Z" fill="#5E5E5E"/>
<path d="M6.79883 19.6002C6.79883 19.4941 6.75669 19.3924 6.68167 19.3173C6.60666 19.2423 6.50491 19.2002 6.39883 19.2002C5.65648 19.1993 4.94478 18.9041 4.41986 18.3792C3.89495 17.8542 3.59968 17.1425 3.59883 16.4002C3.59883 16.2941 3.55669 16.1924 3.48167 16.1173C3.40666 16.0423 3.30491 16.0002 3.19883 16.0002C3.09274 16.0002 2.991 16.0423 2.91599 16.1173C2.84097 16.1924 2.79883 16.2941 2.79883 16.4002C2.79989 17.3546 3.17951 18.2697 3.85441 18.9446C4.52931 19.6195 5.44437 19.9991 6.39883 20.0002C6.50491 20.0002 6.60666 19.958 6.68167 19.883C6.75669 19.808 6.79883 19.7063 6.79883 19.6002ZM9.59883 6.80019V8.80019C9.59883 8.90627 9.64097 9.00802 9.71599 9.08303C9.791 9.15805 9.89274 9.20019 9.99883 9.20019C10.1049 9.20019 10.2067 9.15805 10.2817 9.08303C10.3567 9.00802 10.3988 8.90627 10.3988 8.80019V6.80019C10.3988 6.6941 10.3567 6.59236 10.2817 6.51734C10.2067 6.44233 10.1049 6.40019 9.99883 6.40019C9.89274 6.40019 9.791 6.44233 9.71599 6.51734C9.64097 6.59236 9.59883 6.6941 9.59883 6.80019ZM8.02723 6.65139L7.22723 8.65139C7.18776 8.74994 7.18907 8.86014 7.23085 8.95773C7.27263 9.05532 7.35147 9.13232 7.45003 9.17179C7.54858 9.21125 7.65878 9.20995 7.75637 9.16817C7.85397 9.12638 7.93096 9.04754 7.97043 8.94899L8.77043 6.94899C8.80989 6.85043 8.80859 6.74024 8.76681 6.64264C8.72502 6.54505 8.64618 6.46805 8.54763 6.42859C8.44907 6.38912 8.33888 6.39043 8.24128 6.43221C8.14369 6.47399 8.06669 6.55283 8.02723 6.65139ZM11.9704 6.65139C11.931 6.55283 11.854 6.47399 11.7564 6.43221C11.6588 6.39043 11.5486 6.38912 11.45 6.42859C11.3515 6.46805 11.2726 6.54505 11.2308 6.64264C11.1891 6.74024 11.1878 6.85043 11.2272 6.94899L12.0272 8.94899C12.0667 9.04754 12.1437 9.12638 12.2413 9.16817C12.3389 9.20995 12.4491 9.21125 12.5476 9.17179C12.6462 9.13232 12.725 9.05532 12.7668 8.95773C12.8086 8.86014 12.8099 8.74994 12.7704 8.65139L11.9704 6.65139Z" fill="#5E5E5E"/>
</g>
</g>
</svg>
