<svg width="130" height="50" viewBox="0 0 130 50" fill="none" xmlns="http://www.w3.org/2000/svg">
<path fill-rule="evenodd" clip-rule="evenodd" d="M129.805 9.61404C129.769 9.44284 129.605 9.32157 129.562 9.23597C129.547 9.21457 129.54 8.8579 129.383 8.67243C129.069 8.57256 129.169 9.0291 129.147 9.0933C129.119 9.16463 128.99 9.0933 128.969 9.16463C128.94 9.25737 128.99 9.51417 128.969 9.64257C128.904 10.1633 128.69 10.6413 128.669 11.0479C128.654 11.2476 128.676 11.3903 128.669 11.5258C128.647 11.8896 128.69 11.6542 128.547 11.7327C128.419 11.8111 128.519 12.6529 128.476 12.8812C128.419 13.2093 128.183 13.2806 128.283 13.7586C128.404 13.7942 128.526 13.4732 128.647 13.7657C128.719 14.2436 128.654 14.1152 128.519 14.1366C128.154 14.2008 128.44 13.9226 128.161 13.9654C128.14 14.422 127.976 14.8429 127.954 15.171C127.947 15.2923 127.847 15.2709 127.826 15.385C127.74 15.8629 127.79 16.4907 127.726 16.8688C127.697 17.0542 127.59 17.2183 127.526 17.4323C127.468 17.6463 127.426 17.8817 127.383 18.1314C127.283 18.6593 127.254 19.3583 127.09 19.5367C127.047 19.5795 126.904 19.3512 126.854 19.3155C126.583 19.1087 126.575 19.3583 126.475 19.6365C126.425 19.7721 126.297 19.9575 126.275 20.036C126.168 20.4569 126.347 21.0989 126.032 21.2558C125.897 21.32 125.854 21.156 125.732 21.0632C125.475 20.8421 125.525 20.8706 125.375 20.892C125.061 20.9348 124.761 22.2117 124.725 22.5826C124.718 22.6968 124.675 22.6468 124.654 22.7681C124.596 23.0249 124.575 23.2746 124.482 23.4601C124.439 23.5457 124.361 23.6313 124.339 23.6669C124.296 23.7383 124.289 23.8595 124.211 23.7169C124.025 23.1747 124.525 23.0035 124.361 22.4043C124.261 22.0262 124.118 21.641 123.861 21.4841C123.611 21.3343 123.718 21.8408 123.711 21.855C123.625 21.9549 123.375 21.9121 123.332 21.9906C123.268 22.1118 123.239 22.547 123.146 22.8395C123.053 23.1248 122.939 23.3103 122.846 23.5813C122.81 23.6883 122.853 23.9594 122.81 24.0664C122.76 24.1948 122.589 24.1805 122.539 24.3232C122.489 24.4659 122.539 24.6799 122.503 24.8083C122.425 25.0794 122.353 25.1293 122.282 25.2006C122.103 24.5943 121.896 24.3018 121.703 23.8381C121.524 23.9594 121.281 23.9166 121.131 24.045C121.117 24.0593 121.146 24.3232 121.103 24.366C121.031 24.4659 120.853 24.3803 120.781 24.4801C120.71 24.5871 120.674 24.8654 120.61 25.0152C120.431 25.436 120.224 25.6714 120.024 26.0138C119.931 26.1708 119.867 26.4062 119.788 26.5702C119.624 26.9198 119.531 27.5475 119.145 27.4334C119.081 27.0767 119.253 27.091 119.253 26.9198C119.253 26.7628 119.303 26.8698 119.331 26.7343C119.46 26.1422 119.445 25.9568 119.081 25.4146C118.531 24.5943 117.774 26.4775 117.595 26.7414C117.366 27.0767 117.381 27.0767 117.288 27.3264C117.266 27.3763 117.181 27.3264 117.159 27.3763C117.145 27.4049 117.209 27.6331 117.188 27.6759C117.152 27.7758 117.066 27.8257 117.045 27.8828C117.002 27.9969 117.002 28.1467 116.945 28.2252C116.888 28.3037 116.638 28.1182 116.573 28.1895C116.459 28.3108 116.445 28.7816 116.309 28.8958C116.166 29.017 115.966 28.9457 115.916 29.0242C115.88 29.0812 116.002 29.3737 115.995 29.4664C115.952 29.8445 115.216 30.0656 115.087 30.2226C114.895 30.458 114.766 30.8289 114.616 30.993C114.53 31.0857 114.373 31.0144 114.287 31.1C114.216 31.1713 114.302 31.3425 114.244 31.421C114.173 31.528 113.616 31.314 113.873 31.849C113.994 32.0915 113.923 32.4197 113.766 32.1914C113.694 31.9631 113.923 32.0559 113.873 31.849C113.687 31.6065 113.673 32.1843 113.451 31.6707C113.501 31.3639 113.366 31.0786 113.444 30.7433C113.501 30.4722 113.751 30.4294 113.83 30.1512C113.837 30.1227 113.744 29.9158 113.737 29.873C113.709 29.6234 113.901 29.4736 113.923 29.3452C113.973 29.1169 113.959 28.7816 114.016 28.5391C114.144 28.0041 114.452 27.4762 114.509 26.984C114.516 26.9341 114.587 26.8485 114.594 26.8057C114.602 26.6202 114.473 26.1779 114.487 26.0638C114.544 25.7428 114.873 25.9068 114.623 25.4004C114.594 25.3433 114.587 25.3433 114.58 25.3433C114.58 25.329 114.58 25.3076 114.573 25.2577C114.559 25.0794 114.68 25.115 114.559 24.794C114.487 24.6085 114.087 24.0165 114.087 24.0165C113.659 23.7525 112.958 24.9866 112.908 25.1721C112.83 25.4432 112.908 25.8212 112.816 25.9782C112.773 26.0495 112.558 25.8569 112.451 25.9425C112.187 26.1351 112.244 26.7985 112.123 27.1338C112.073 27.2836 111.894 27.2479 111.844 27.3763C111.801 27.4905 111.865 27.6973 111.851 27.84C111.844 27.8899 111.737 27.84 111.722 27.8828C111.644 28.0754 111.615 28.2537 111.422 28.2894C111.308 27.8614 111.472 27.5618 111.472 27.3407C111.472 27.2479 111.387 26.9769 111.401 26.8984C111.415 26.8342 111.551 27.0125 111.572 26.9983C111.637 26.9626 111.587 26.7628 111.608 26.6772C111.701 26.292 111.651 25.8284 111.287 25.2292C110.972 25.0936 111.029 25.5858 110.994 25.6358C110.908 25.757 110.622 25.7998 110.587 25.9211C110.551 26.0352 110.737 26.2635 110.658 26.3634C110.587 26.4561 110.301 26.3848 110.144 26.5274C110.136 26.5346 109.986 26.6772 109.929 26.7486C109.858 26.8484 109.986 27.091 109.936 27.2123C109.879 27.3335 109.686 27.2265 109.615 27.3121C109.615 27.3193 109.579 27.5975 109.572 27.6331C109.458 28.0897 109.186 27.8115 109.186 28.2252C109.193 28.8886 108.643 29.017 108.415 29.4022C108.143 29.8445 108.093 30.7718 107.743 30.2368C107.572 29.98 107.85 29.0099 107.85 28.96C107.915 28.1967 107.993 27.9613 107.807 27.4263C107.772 27.3193 107.65 27.2051 107.507 26.9055C107.229 26.3134 107.114 26.6986 106.972 26.77C106.893 26.8056 106.829 26.6202 106.736 26.6915C106.679 26.7343 106.586 27.0625 106.479 27.2337C106.407 27.3478 106.336 27.3407 106.264 27.4477C106.207 27.5333 106.2 27.7259 106.157 27.7829C106.086 27.8828 105.907 27.7758 105.836 27.8757C105.8 27.9185 105.8 28.1182 105.728 28.2109C105.65 28.3108 105.657 28.5034 105.621 28.5462C105.407 28.8173 105.321 28.6675 105.25 28.96C105.157 29.3737 105.014 29.2667 104.721 29.5734C104.457 29.8588 103.814 30.8146 103.557 30.672C103.314 30.5364 103.249 29.9586 102.992 29.4522C102.971 29.4022 102.828 29.281 102.778 29.2025C102.528 28.803 102.635 28.8101 102.421 28.6889C102.406 28.6817 102.292 28.4535 102.278 28.4249C101.835 27.8471 101.642 28.1467 101.313 28.2395C101.213 28.268 101.092 28.1253 100.949 28.1895C100.62 28.3322 100.449 28.6389 100.292 28.8387C100.185 28.9742 99.9345 29.1169 99.9416 29.0955C99.9059 29.1954 100.07 29.4379 99.9988 29.5378C99.9202 29.6519 99.7487 29.6804 99.6487 29.7946C99.4058 30.0514 99.2272 30.351 99.0272 30.5864C98.6557 31.0287 98.0484 31.2213 97.9198 31.6635C97.7483 32.2485 97.7912 31.6421 97.3983 31.7991C97.3268 31.8276 97.2554 32.1557 97.0554 32.3483C96.891 32.5053 96.6767 32.4767 96.5981 32.4696C96.4981 32.4625 96.4981 32.6622 96.441 32.6622C96.0623 32.6979 96.0194 32.5053 95.9909 32.0202C95.9266 30.943 95.5408 29.9087 95.2121 29.6305C95.1621 29.5877 95.0335 29.388 95.005 29.3808C94.7549 29.2596 93.8547 29.7518 93.7404 29.8588C93.6547 29.9444 93.6476 30.1512 93.5547 30.2154C93.4904 30.2582 93.4832 30.1013 93.4547 30.087C93.3761 30.0514 93.3761 30.2582 93.3618 30.2654C92.8045 30.5008 92.4616 30.9359 92.0758 31.207C91.8615 31.3568 91.6186 31.3639 91.4614 31.5209C91.3757 31.5993 91.3685 31.8205 91.2757 31.8775C90.9685 32.0487 90.597 31.9845 90.2326 32.1486C89.9111 31.6921 90.0326 31.421 89.7825 31.1999C89.5825 31.0144 89.5682 31.1999 89.5253 31.2641C89.4825 31.3283 89.361 31.1499 89.361 31.1571C89.0967 31.2926 89.0324 31.849 88.7823 31.6136C88.4894 31.3354 88.1393 29.4878 87.9465 29.0884C87.7178 28.6175 87.7393 28.6389 87.4892 28.8958C87.2035 29.1882 87.2749 29.1882 87.2034 29.4165C87.1749 29.5164 87.0748 29.5235 87.0463 29.6091C87.0177 29.6804 87.0177 29.8516 86.9891 29.9301C86.9463 30.03 86.8748 30.0086 86.8319 30.1227C86.7176 30.408 86.6248 30.8503 86.4604 31.1214C86.3461 31.3069 86.1532 31.3283 86.0104 31.5351C85.8389 31.7777 85.7746 32.3911 85.4674 32.4268C85.3745 31.8775 85.4317 30.8788 85.1673 30.0656C85.103 29.8659 85.0316 29.9301 84.9673 29.8088C84.8601 29.6091 84.8816 29.3594 84.7601 29.2524C84.5529 29.0598 84.3172 29.3594 84.0528 29.7232C83.8671 29.98 83.7528 30.4508 83.5456 30.7576C83.4599 30.886 83.2813 30.886 83.1884 30.993C83.167 31.0144 83.1598 31.2783 83.1241 31.314C83.0598 31.3853 82.9169 31.2855 82.8669 31.3782C82.8312 31.4424 82.8026 31.7563 82.774 31.8561C82.724 32.0273 82.6811 32.2128 82.6168 32.3483C82.5454 32.5124 82.3954 32.4054 82.3239 32.5695C82.2311 32.7977 82.3096 32.9618 82.2311 33.0474C82.1739 33.1116 82.0882 32.8976 82.0024 32.9475C81.9739 32.9618 81.931 33.2472 81.8738 33.2828C81.6881 33.4041 81.4952 33.3613 81.4809 33.3756C81.3595 33.504 81.3094 33.9962 81.1308 34.2173C80.9451 34.4456 80.4164 34.5668 79.9235 34.9592C79.852 35.0162 79.802 35.2374 79.7306 35.3087C79.6448 35.4015 79.5234 35.4585 79.4377 35.5299C79.1019 35.8081 78.8018 35.8295 78.5518 35.8865C78.3446 35.9293 78.2088 36.1291 78.0588 36.1505C77.8231 36.1861 77.3658 36.2575 77.1729 36.2004C77.1586 36.2004 77.0658 35.9436 77.0443 35.9293C76.9229 35.8295 76.9157 36.0149 76.8157 35.8295C76.7086 35.6369 76.7657 35.3301 76.7514 35.2374C76.7157 35.059 76.5514 34.7024 76.5514 34.6738C76.5442 34.4741 76.7657 34.2886 76.78 34.1674C76.7871 34.1246 76.7443 33.718 76.7443 33.718C76.73 33.5539 76.7157 33.3898 76.7086 33.2686C76.5585 31.5137 75.7727 31.314 75.1654 31.6493C75.0868 31.6921 75.144 31.9346 75.1011 31.9703C75.0368 32.0273 74.9511 31.7563 74.8725 31.8704C74.8582 31.8918 74.8796 32.1343 74.8725 32.1771C74.8439 32.2984 74.7653 32.2699 74.7082 32.3626C74.4153 32.8619 74.058 32.5195 73.7294 32.8905C73.6222 33.0117 73.6508 33.4041 73.6008 33.5254C73.5508 33.6395 73.3722 33.7822 73.2722 33.9034C73.165 34.0318 73.0364 34.253 72.9435 34.2815C72.7721 34.3386 72.6221 34.1388 72.4506 34.2387C72.3577 34.2958 72.3363 34.3457 72.2863 34.4242C72.1291 34.6667 71.829 34.9592 71.6647 35.0234C71.5647 35.059 71.4147 34.8094 71.2718 34.8094C71.136 34.8094 70.9932 35.0091 70.8503 35.059C70.6574 35.1232 70.4573 35.002 70.293 35.0376C70.0001 35.0947 70.1644 35.4371 69.9358 35.2731C69.6572 35.0733 69.7286 35.0519 69.6072 34.4384C69.4286 33.4968 69.4214 33.4398 69.4143 32.9689C69.4071 32.7763 69.3571 32.6265 69.35 32.3769C69.3357 31.9489 69.3929 31.6849 69.3214 31.3211C69.1857 30.6648 68.8642 29.816 68.5713 29.5235C68.6284 29.5806 68.3712 29.5449 68.1498 29.4664C67.9854 29.4094 67.8283 29.281 67.6925 29.2667C67.5925 29.2596 67.5211 29.4736 67.3996 29.4878C67.1496 29.5164 66.8066 29.3166 66.6137 29.3594C66.5137 29.3808 66.428 29.5734 66.3208 29.5734C66.1136 29.5806 65.9065 29.388 65.735 29.4022C65.6064 29.4094 65.6207 29.5734 65.5064 29.602C65.3706 29.6376 65.1849 29.5092 65.0849 29.5449C64.9491 29.5948 64.8491 29.7446 64.7277 29.7732C64.5991 29.8017 64.4276 29.6662 64.3062 29.7161C64.1633 29.766 64.149 30.0014 63.9132 30.1084C63.7918 30.1655 63.6489 30.0086 63.4917 30.0514C63.3631 30.087 63.2059 30.3153 63.0345 30.458C62.6844 30.7433 62.3201 30.8717 61.9414 31.1143V32.1629C62.1129 32.0844 62.2558 32.0987 62.3486 31.9703C63.1416 30.8931 64.5062 30.6434 65.6493 30.4722C65.7707 30.4508 65.8565 30.2725 66.0065 30.2368C66.3923 30.1512 66.9352 30.087 67.2782 30.1013C67.3639 30.1013 67.4996 30.2654 67.6711 30.3153C67.8568 30.3724 68.1498 30.2297 68.2926 30.3296C68.3712 30.3866 68.5998 30.7219 68.6856 30.8503C69.0428 31.3639 69.0356 31.5637 69.0142 31.9845C68.9999 32.2199 69.0142 32.3555 69.0142 32.5909C69.0142 32.8548 68.9642 33.5396 68.9785 33.6609C68.9928 33.8178 69.0999 33.8963 69.1071 33.932C69.1785 34.203 69.1642 34.7309 69.2071 34.9734C69.2714 35.3587 69.4643 35.4514 69.5643 35.6511C69.6643 35.8437 69.6429 36.1148 69.7572 36.2147C70.1001 36.5071 70.6074 36.1291 71.036 36.0791C71.2789 36.0506 71.5647 36.1362 71.7862 36.0577C72.0291 35.9793 72.2363 35.644 72.4434 35.6083C72.5863 35.5798 72.6863 35.7439 72.8007 35.6797C72.8864 35.6297 72.9007 35.4086 72.9935 35.3301C73.1007 35.2445 73.3008 35.3301 73.3865 35.2374C73.4008 35.2231 73.3722 34.9663 73.3865 34.9378C73.4294 34.8664 73.5365 34.952 73.5794 34.895C73.6508 34.788 73.708 34.6168 73.7723 34.5454C73.9723 34.3314 74.4224 34.0889 74.4581 33.932C74.5724 33.397 74.9154 33.4112 75.1725 33.1616C75.4154 32.9261 75.8512 32.5195 76.1227 33.0973C76.1727 33.2044 76.0799 33.4469 76.0942 33.561C76.1156 33.7679 76.2585 34.0889 76.2585 34.2815C76.2585 34.3671 76.1442 34.5312 76.1299 34.6168C76.0441 35.0448 76.3371 36.179 76.5585 36.4857C76.7514 36.7425 76.7943 36.8067 77.0872 36.9708C77.3515 37.1206 77.9731 37.1848 78.266 37.0065C78.366 36.9494 78.5375 37.0992 78.5589 37.0921C79.1162 36.8995 79.3948 36.5071 79.802 36.2004C79.9378 36.0934 80.1021 36.0363 80.2307 35.9507C80.3807 35.8437 80.5379 35.8081 80.6522 35.6939C80.6736 35.6797 80.6879 35.4015 80.7165 35.3729C80.9022 35.1732 81.0308 35.3159 81.138 35.1161C81.238 34.9378 81.1523 34.5882 81.3666 34.9092C81.4238 34.9948 81.4095 34.7452 81.3952 34.7523C81.4881 34.6881 81.6024 34.6096 81.6881 34.5312C81.8881 34.3528 82.2239 34.0604 82.3025 33.9248C82.3454 33.8606 82.3811 33.8321 82.4668 33.7322C82.7097 33.4469 82.8455 33.0545 83.0169 32.8405C83.3527 32.4125 83.6385 32.1629 83.9171 31.7135C84.06 31.4923 84.4743 30.194 84.8601 31.3354C84.9244 31.528 84.7173 31.7277 84.7101 32.1343C84.703 32.3127 84.8101 32.6765 84.8173 32.8691C84.8316 33.1473 84.7244 33.2757 84.8244 33.4754C84.9244 33.5111 84.9887 33.6609 85.0888 33.718C85.4603 33.932 84.7958 33.4041 85.2173 33.6894C85.2745 33.9391 85.3388 34.1317 85.4245 34.2458C85.6532 34.3528 85.5888 33.9534 85.7746 33.7037C85.7603 33.7251 85.9246 33.718 85.9675 33.6538C86.0461 33.5539 86.089 33.3898 86.1604 33.3042C86.289 33.1401 86.4462 33.1901 86.5176 33.0688C86.539 33.0403 86.489 32.7977 86.5105 32.7692C86.6391 32.5837 86.9034 32.5409 87.0248 32.3412C87.0463 32.3127 87.0391 32.0059 87.1177 31.8633C87.1749 31.7634 87.3535 31.7491 87.4106 31.6421C87.4678 31.528 87.4392 31.2712 87.4964 31.1642C87.9607 30.2939 87.9893 32.1415 88.418 32.919C88.4751 33.026 89.0538 33.5254 89.0538 33.5254C89.161 33.5682 89.1967 33.3613 89.2824 33.3114C89.6539 33.0973 89.7754 33.4754 90.0469 33.5753C90.5898 33.775 90.9542 33.2614 91.4471 33.0617C91.6043 32.9975 91.8472 33.0117 91.9687 32.9261C92.1044 32.8334 92.1044 32.5552 92.2473 32.3983C92.2258 32.4197 92.3187 32.5338 92.3473 32.5267C92.4045 32.5124 92.3616 32.3769 92.3759 32.3697C92.6902 32.1129 93.3618 31.9417 93.4047 31.4923C93.4118 31.4067 93.5261 31.5993 93.5047 31.6207C93.6476 31.5066 93.6476 31.3211 93.7547 31.2498C94.1762 30.9787 94.7835 30.729 95.1621 31.0358C95.5193 31.3283 95.2907 31.742 95.2979 32.0701C95.305 32.4981 95.3693 32.9119 95.4336 33.1045C95.7623 34.1103 96.3909 34.0746 96.841 33.6538C96.9196 33.5824 96.9482 33.3542 97.0268 33.3042C97.434 33.026 97.7984 33.0046 98.0627 32.7335C98.0984 32.6979 98.127 32.4482 98.1842 32.3983C98.3842 32.2128 98.5342 32.3055 98.6057 32.1272C98.6771 31.9417 98.8628 31.9845 98.9557 31.8704C98.9772 31.849 98.9772 31.5779 99.0057 31.5494C99.3344 31.1999 99.7416 30.9074 99.9559 30.6648C100.006 30.6078 100.099 30.6648 100.149 30.6078C100.17 30.5864 100.17 30.3224 100.199 30.2868C100.313 30.1584 100.435 30.1584 100.549 30.03C100.677 29.8944 100.985 29.4094 101.078 29.4165C101.263 29.445 101.135 29.3666 101.235 29.2168C101.42 28.9314 101.735 29.2453 101.899 29.3309C102.085 29.4308 102.235 29.495 102.342 29.6662C102.621 30.0799 102.678 30.8004 102.921 31.1927C103.021 31.3568 103.178 31.5137 103.242 31.5637C103.414 31.7063 104.035 31.8847 104.15 31.7634C104.378 31.5137 104.021 31.1999 104.25 31.1214C104.414 31.1785 104.228 31.4852 104.507 31.5066C104.635 31.5209 104.764 31.1357 104.907 30.9359C105.028 30.7576 105.186 30.5008 105.307 30.3581C105.443 30.2012 105.65 30.2297 105.786 30.0656C105.886 29.9515 105.943 29.6804 106.05 29.5306C106.114 29.4379 106.179 29.4308 106.271 29.3166C106.336 29.231 106.336 29.0527 106.379 28.9814C106.514 28.7745 106.686 28.696 106.814 28.5533C106.864 28.4891 106.807 28.2894 106.922 28.2109C107.007 28.161 107.157 28.1253 107.222 28.2751C107.314 29.1312 106.943 29.5235 107.322 30.2511C107.486 30.565 107.536 31.0144 107.686 31.2213C108.179 30.8931 108.858 30.2226 109.143 29.6804C109.393 29.2096 109.822 28.7816 109.936 28.3393C109.965 28.2466 109.944 28.0754 109.979 28.0183C110.036 27.9185 110.265 27.9613 110.451 27.7116C110.551 27.5761 110.879 26.2278 111.222 26.9983C111.422 27.4477 110.722 27.8899 110.894 28.6532C111.044 29.3166 111.337 29.6519 111.487 29.3951C111.63 29.1526 111.58 29.1454 111.701 29.174C111.758 29.1882 111.758 29.0313 111.787 28.9885C111.987 28.7388 112.094 28.4463 112.258 28.2181C112.423 27.9827 112.487 27.8043 112.573 27.6545C112.887 27.1195 113.108 26.7628 113.351 26.3206C113.501 26.0495 113.587 25.5502 113.966 25.8141C113.951 26.235 113.866 26.5845 113.773 26.9626C113.759 27.0125 113.651 26.9483 113.644 27.0054C113.637 27.0553 113.744 27.2408 113.737 27.2836C113.709 27.3977 113.609 27.3835 113.587 27.4833C113.551 27.6688 113.559 27.9399 113.516 28.1253C113.459 28.3322 113.28 28.3179 113.216 28.5319C113.18 28.6532 113.294 28.9814 113.266 29.1383C113.266 29.1526 113.18 29.3238 113.18 29.3238C113.137 29.4165 113.116 29.4165 113.094 29.5092C113.008 29.8445 112.844 30.087 112.801 30.3795C112.758 30.622 112.687 32.1486 112.801 32.3983C112.808 32.4125 112.916 32.3483 112.93 32.3555C113.051 32.4125 113.244 32.9404 113.351 32.9975C113.801 33.24 114.08 32.5552 114.316 32.3769C114.409 32.3055 114.587 32.4767 114.694 32.4125C114.716 32.3983 114.73 32.1415 114.802 32.0701C115.073 31.7919 115.295 31.6421 115.516 31.3782C115.738 31.1143 115.909 30.7219 116.052 30.5864C116.109 30.5364 116.18 30.7076 116.231 30.6862C116.216 30.6934 116.295 30.5364 116.316 30.5008C116.409 30.3795 116.409 30.1084 116.502 29.9729C116.573 29.8659 116.752 29.9658 116.831 29.8659C116.845 29.8516 116.788 29.5948 116.802 29.5663C116.823 29.5164 116.952 29.3666 116.952 29.3666C117.081 29.1811 117.281 29.2239 117.359 29.0812C117.538 28.7602 117.559 28.1824 117.717 28.0112C117.924 27.7829 118.074 27.9684 118.167 27.8471C118.238 27.7544 118.117 27.2836 118.167 27.2194C118.188 27.1909 118.588 27.2907 118.588 27.3835C118.231 27.4263 118.259 28.1182 118.188 28.3179C118.131 28.4677 117.995 28.5391 117.895 28.7388C117.824 28.8815 117.795 29.1098 117.717 29.2738C117.374 29.9943 116.966 30.5079 116.731 31.3069C116.581 31.8205 116.488 32.4839 116.623 32.7335C116.631 32.7478 117.116 33.0189 117.231 33.0046C117.516 32.9618 117.681 32.2913 117.852 32.0273C117.931 31.9061 118.017 32.0487 118.117 31.9417C118.145 31.9132 118.181 31.6635 118.217 31.5993C118.409 31.2498 118.481 30.9288 118.631 30.6648C118.76 30.4366 118.995 30.4508 119.124 30.1726C119.167 30.0799 119.131 29.816 119.174 29.6804C119.288 29.3238 119.453 29.2952 119.617 29.0456C119.71 28.91 119.767 28.7745 119.845 28.6461C119.931 28.5105 120.031 28.5105 120.124 28.3893C120.131 28.375 120.067 28.1396 120.088 28.0897C120.131 27.9969 120.303 28.0897 120.346 27.9969C120.353 27.9827 120.296 27.7473 120.31 27.6973C120.324 27.6403 120.381 27.5404 120.388 27.5119C120.438 27.3692 120.503 27.2337 120.546 27.1409C120.646 26.9055 120.674 26.4632 120.96 26.6772C121.117 26.9198 120.946 27.0411 120.917 27.1623C120.889 27.3193 120.91 27.5475 120.874 27.6474C120.789 27.9113 120.553 28.0112 120.438 28.2751C120.331 28.5391 120.281 28.9885 120.153 29.3238C120.096 29.4664 119.996 29.5592 119.924 29.7232C119.903 29.7732 119.924 30.0086 119.888 30.0514C119.617 30.408 119.674 30.0371 119.688 30.7504C119.695 31.0929 119.588 31.1785 119.688 31.3782C119.681 31.3639 120.267 31.7919 120.281 31.7919C120.488 31.7705 120.56 31.2141 120.696 30.8574C120.781 30.6149 120.981 30.3153 121.024 30.1084C121.046 30.0014 121.003 29.8873 121.053 29.7803C121.131 29.6234 121.31 29.6234 121.396 29.5021C121.496 29.3594 121.496 29.1026 121.574 28.9671C121.732 28.696 121.832 28.0112 122.125 28.4535C122.074 29.0812 121.839 29.5235 122.01 30.3795C122.046 30.3224 122.36 30.3652 122.389 30.4009C122.403 30.4223 122.482 30.6791 122.489 30.6791C122.789 30.6648 122.596 30.2654 122.667 30.1441C122.767 29.9586 123.032 29.9444 123.075 29.8374C123.089 29.8017 123.089 29.5806 123.103 29.5092C123.182 29.1882 123.546 28.7531 123.568 28.5533C123.596 28.2894 123.711 28.0968 123.689 27.8828C123.982 28.5819 123.675 28.6889 123.825 29.2453C124.032 29.3095 124.275 29.552 124.439 29.495C124.611 29.4308 124.646 28.9171 124.689 28.7745C124.725 28.6675 124.796 28.6817 124.832 28.5676C124.925 28.3108 125.025 28.0326 125.082 27.8471C125.139 27.6617 125.168 27.4405 125.182 27.3407C125.204 27.2479 125.304 27.2051 125.325 27.1338C125.489 26.6202 125.597 25.757 125.94 25.65C126.075 25.6072 126.404 25.864 126.497 25.757C126.583 25.6643 126.54 25.4432 126.604 25.0722C126.668 24.687 126.804 24.4302 126.84 24.1734C126.883 23.8881 126.997 23.4672 127.011 23.3031C127.033 22.9821 127.154 22.8894 127.225 22.7325C127.24 22.7039 127.168 22.4756 127.175 22.4328C127.24 22.1974 127.397 22.069 127.454 21.8408C127.533 21.5126 127.54 21.049 127.626 20.8064C127.654 20.7137 127.797 20.6923 127.818 20.5639C127.868 20.2857 127.818 19.8791 127.854 19.5866C127.926 19.0873 128.133 18.7163 128.204 18.324C128.219 18.2455 128.126 18.1171 128.154 18.0244C128.147 18.0529 128.254 18.0886 128.276 17.9744C128.304 17.8532 128.261 17.6106 128.29 17.4894C128.333 17.2968 128.469 17.2468 128.483 17.0899C128.511 16.8188 128.411 16.3694 128.447 16.1483C128.469 15.9985 128.597 15.8843 128.64 15.7488C128.654 15.706 128.569 15.4991 128.583 15.4492C128.704 15.0997 128.819 15.5919 128.711 15.0783C128.704 15.0497 128.776 14.9213 128.776 14.8928C128.797 14.5932 128.89 14.4077 128.904 14.2008C128.919 14.0154 128.89 13.8228 128.912 13.7158C128.99 13.3234 129.154 13.887 129.04 13.3448C128.976 13.0595 129.254 12.8384 129.29 12.7599C129.297 12.7385 129.326 11.9039 129.354 12.0965C129.304 11.7683 128.847 11.1406 129.119 11.2333L129.39 11.7113C129.454 11.4687 129.526 11.1763 129.569 10.9979C129.597 10.8981 129.555 10.7697 129.569 10.6769C129.64 10.3131 129.869 9.92791 129.805 9.61404Z" fill="black"/>
<path fill-rule="evenodd" clip-rule="evenodd" d="M78.3945 5.16349C78.4374 4.99918 78.5303 4.94917 78.6446 4.92773C78.6446 5.19207 78.516 5.39925 78.3945 5.16349Z" fill="#16191E"/>
<path fill-rule="evenodd" clip-rule="evenodd" d="M85.4375 35.5947C85.5018 35.4519 85.7233 35.1661 85.7447 35.7019C85.6161 35.7662 85.5447 35.6305 85.4375 35.5947Z" fill="#16191E"/>
<path fill-rule="evenodd" clip-rule="evenodd" d="M85.916 36.2509C85.916 36.0009 86.1161 36.2009 86.2018 36.1366C86.2232 36.4581 85.9803 36.4009 85.916 36.2509Z" fill="#16191E"/>
<path fill-rule="evenodd" clip-rule="evenodd" d="M86.6816 31.4503C86.7317 31.2789 86.8817 31.1288 86.9746 31.336C86.9674 31.5861 86.7602 31.386 86.6816 31.4503Z" fill="#16191E"/>
<path fill-rule="evenodd" clip-rule="evenodd" d="M87.6309 36.3368C87.7023 36.0368 87.8666 35.9367 88.1024 36.001C88.0524 36.3511 87.8023 36.2582 87.6309 36.3368Z" fill="#16191E"/>
<path fill-rule="evenodd" clip-rule="evenodd" d="M87.2168 11.9482C87.4954 11.8982 88.0527 11.4338 88.2956 11.941C87.9241 11.641 87.5597 12.1982 87.2168 11.9482Z" fill="#16191E"/>
<path fill-rule="evenodd" clip-rule="evenodd" d="M88.7461 22.5194C89.039 21.8407 89.6891 22.5266 90.0892 22.0693C90.1821 22.6123 89.4605 22.1836 89.3676 22.6266C89.2605 22.5909 89.1747 22.4908 89.089 22.4051C88.9819 22.4551 88.8961 22.8266 88.7461 22.5194Z" fill="#16191E"/>
<path fill-rule="evenodd" clip-rule="evenodd" d="M92.9468 23.8965C92.9254 23.6036 92.9468 23.4179 93.0611 23.4536C93.0969 23.5536 93.1183 23.7037 93.1183 23.9037L92.9468 23.8965Z" fill="#16191E"/>
<path fill-rule="evenodd" clip-rule="evenodd" d="M94.5254 20.0512C94.7897 19.5368 95.4256 19.4868 95.7828 19.8797C95.8256 19.8083 95.8256 19.6225 95.9185 19.6654C96.1257 19.6011 96.6044 19.8011 96.1471 19.7868C95.5899 20.1369 95.1398 19.794 94.5254 20.0512Z" fill="#16191E"/>
<path fill-rule="evenodd" clip-rule="evenodd" d="M94.8965 25.6364C94.9536 25.4649 95.0608 25.4077 95.1965 25.422C95.168 25.6935 94.9465 25.7578 94.8965 25.6364Z" fill="#16191E"/>
<path fill-rule="evenodd" clip-rule="evenodd" d="M94.9473 11.0266C94.9973 10.7766 95.2545 10.9981 95.3831 10.9338C95.2902 11.0838 95.0616 11.2553 94.9473 11.0266Z" fill="#16191E"/>
<path fill-rule="evenodd" clip-rule="evenodd" d="M95.168 23.7538C95.268 23.4681 95.5109 23.5395 95.6466 23.3252C95.7681 23.7681 95.3323 23.6896 95.168 23.7538Z" fill="#16191E"/>
<path fill-rule="evenodd" clip-rule="evenodd" d="M95.4023 25.3228C95.4809 24.9728 95.731 25.0799 95.9167 25.0156C95.8096 25.2871 95.5667 25.2014 95.4023 25.3228Z" fill="#16191E"/>
<path fill-rule="evenodd" clip-rule="evenodd" d="M95.3613 8.36615C95.3685 7.98751 95.5685 8.03038 95.7114 7.9375C95.69 8.28757 95.4828 8.23756 95.3613 8.36615Z" fill="#16191E"/>
<path fill-rule="evenodd" clip-rule="evenodd" d="M95.6328 11.0554C95.79 10.7411 96.3401 10.8268 96.6116 10.8768C96.2686 11.1412 96.0043 11.1269 95.6328 11.0554Z" fill="#16191E"/>
<path fill-rule="evenodd" clip-rule="evenodd" d="M96.0039 25.0159C96.2182 24.5015 96.5469 24.9016 96.7326 24.9445C96.5326 25.2445 96.2325 24.7087 96.0039 25.0159Z" fill="#16191E"/>
<path fill-rule="evenodd" clip-rule="evenodd" d="M96.5098 19.8017C96.5955 19.6088 96.7455 19.5802 96.8741 19.4873C96.9027 19.9731 96.6598 19.7731 96.5098 19.8017Z" fill="#16191E"/>
<path fill-rule="evenodd" clip-rule="evenodd" d="M96.918 20.9432C97.0251 20.6646 97.118 20.7932 97.2752 20.8503C97.2395 21.1004 97.0251 20.8789 96.918 20.9432Z" fill="#16191E"/>
<path fill-rule="evenodd" clip-rule="evenodd" d="M97.3125 22.2988C97.3625 22.0059 97.6911 21.9487 97.6197 22.5488C97.5268 22.5917 97.534 22.3845 97.534 22.2059C97.4268 22.1559 97.434 22.406 97.3125 22.2988Z" fill="#16191E"/>
<path fill-rule="evenodd" clip-rule="evenodd" d="M98.2903 13.7735C98.0474 14.2307 97.6401 13.5306 98.2903 13.7735Z" fill="#16191E"/>
<path fill-rule="evenodd" clip-rule="evenodd" d="M98.8633 9.67882C99.0705 9.45021 99.2776 9.51451 99.5206 9.61453C99.3562 9.75741 98.9633 9.7717 98.8633 9.67882Z" fill="#16191E"/>
<path fill-rule="evenodd" clip-rule="evenodd" d="M99.026 9.01592C98.9546 8.66586 99.3618 8.69443 99.2761 9.03021L99.026 9.01592Z" fill="#16191E"/>
<path fill-rule="evenodd" clip-rule="evenodd" d="M99.6055 3.13752C99.6841 2.9089 99.8555 2.85889 99.9913 2.94462C99.9413 3.21611 99.6626 3.25897 99.6055 3.13752Z" fill="#16191E"/>
<path fill-rule="evenodd" clip-rule="evenodd" d="M101.092 3.70087C101.692 3.73659 101.556 3.20077 101.092 3.70087Z" fill="#16191E"/>
<path fill-rule="evenodd" clip-rule="evenodd" d="M89.4453 3.6949C89.5168 3.53772 89.6311 3.46628 89.6739 3.25195C89.8525 3.6949 90.1097 3.28053 90.3312 3.47342C90.1026 3.97352 89.7954 3.36626 89.4453 3.6949Z" fill="#16191E"/>
<path fill-rule="evenodd" clip-rule="evenodd" d="M95.3039 13.0528C95.4182 13.01 95.4111 13.2597 95.5468 13.1741C95.5611 13.3524 95.504 13.3667 95.504 13.5094C95.7469 13.595 95.8755 13.4238 96.0755 13.4238C96.0469 13.5165 96.0255 13.6021 96.0255 13.759C96.2898 13.1527 96.6113 14.1014 97.1757 13.8161C96.647 14.4653 95.4468 14.0016 94.9824 14.1585C95.0396 13.7162 95.4611 14.1157 95.4968 13.6235C95.5111 13.2668 95.2396 13.5593 95.3039 13.0528Z" fill="#16191E"/>
<path fill-rule="evenodd" clip-rule="evenodd" d="M95.99 23.568C96.04 23.5466 96.0115 23.4608 95.99 23.4537C95.9972 23.1965 96.1829 23.4037 96.2115 23.468C96.1615 23.7823 95.5828 23.6109 95.99 23.568Z" fill="#16191E"/>
<path fill-rule="evenodd" clip-rule="evenodd" d="M99.2545 22.334L99.2402 22.7834C99.5188 22.7691 99.9761 22.6764 100.155 23.0901C99.8189 23.3969 99.1259 22.5979 98.8758 23.3113C98.8187 23.19 98.7187 23.19 98.6615 23.0759C97.8828 23.7749 97.0469 23.0117 96.2539 23.4753C96.604 22.284 97.4256 23.8962 97.8328 22.6764C97.8971 22.7406 97.8328 22.7905 97.7899 22.7834C98.1471 22.7691 98.783 23.0402 99.2545 22.334Z" fill="#16191E"/>
<path fill-rule="evenodd" clip-rule="evenodd" d="M99.1465 8.13147C99.2251 7.93143 99.3751 7.88857 99.468 7.70996C99.5108 7.73139 99.2465 8.43867 99.1465 8.13147Z" fill="#16191E"/>
<path fill-rule="evenodd" clip-rule="evenodd" d="M11.1372 4.27841C10.9443 4.27128 10.73 4.68502 10.5228 4.68502C10.0441 4.69215 9.61549 4.25701 9.12969 4.47815C8.70103 4.67075 8.30095 5.26996 7.85087 5.39836C7.52223 5.4911 7.41507 5.6623 7.1936 5.79784C6.54347 6.20444 6.0148 5.99757 5.73617 7.14606C5.28609 7.90934 4.71455 8.35161 4.31447 9.05782C4.25017 9.17196 4.12157 9.11489 4.093 9.15769C3.07852 10.9339 2.45697 13.8301 1.26388 15.0999C1.15671 15.7561 1.08527 16.7049 0.885232 17.5324C0.792357 17.8962 0.585175 18.1387 0.520877 18.5168C0.277973 19.9078 0.485155 21.6769 0.0350681 22.7255C0.00649112 23.075 0.0922211 23.1678 0.113654 23.4032C0.0993653 26.1781 0.277973 28.5179 0.163665 30.665C0.470867 31.9348 0.406569 33.4043 0.642329 34.6027C0.792358 35.3517 1.08527 36.0508 1.27817 36.7641C1.49964 37.5845 1.72825 38.2122 1.914 39.0397C1.914 39.8743 2.19263 40.0384 2.24978 40.7375C2.59271 41.2582 2.8499 41.9715 3.19997 42.478C3.23569 42.7562 3.31428 42.9274 3.32142 43.2698C4.05013 44.6965 4.78599 46.4585 5.79333 47.0149C5.8862 47.0648 6.0791 47.1576 6.18626 47.1504C6.92926 47.1219 8.07948 47.4144 8.47242 48.5343C8.60816 48.6271 8.60816 48.3488 8.73675 48.4416C8.82248 48.9766 9.21542 49.9824 9.56549 49.9467C9.68694 49.9396 9.89412 49.2191 10.1513 49.0907C10.5371 48.8981 10.9086 49.8683 11.2515 49.7185C11.4087 49.6543 11.5802 49.0051 11.7445 48.8553C12.1803 48.4701 13.0662 48.7412 13.4305 48.9695C13.7163 49.1478 13.8306 49.6757 14.0521 49.5687C14.2521 49.4688 14.395 48.8839 14.3736 48.0278C14.938 46.1375 16.4025 47.5927 17.2741 46.7652C17.9171 47.4429 18.5315 46.3158 19.1459 46.4371C19.2674 46.4656 19.4174 46.6939 19.546 46.6868C19.7603 46.6725 20.0389 46.3087 20.3033 46.1731C20.7677 45.9377 21.1749 45.9877 21.5535 45.6881C22.1536 46.7938 22.5751 45.5097 23.0681 45.5525C23.2539 45.5668 23.4396 45.9235 23.6468 45.9163C23.8254 45.9163 23.9897 45.5882 24.1826 45.6096C24.3755 45.631 24.5755 45.9877 24.7613 45.9734C24.897 45.9663 25.0042 45.7451 25.1185 45.7737C25.2685 45.8022 25.3614 46.0661 25.5186 46.0162C25.6829 45.9663 25.8472 45.5383 26.0115 45.4883C26.6188 45.3029 27.2832 45.7594 27.8476 44.9177C28.8978 45.6025 29.7908 44.4683 31.0339 45.1959C31.334 44.9676 31.5626 44.8035 31.8841 45.0175C31.9555 44.9319 31.9484 44.668 32.0627 44.6894C32.7128 45.0033 33.3701 44.0545 34.0345 44.4469C34.0559 44.3185 34.0774 44.1972 34.1202 44.1187C35.0419 44.6323 36.1992 44.6894 36.9065 44.0188C37.478 44.561 38.1139 43.9047 38.7997 43.869C39.1212 43.8548 39.4498 44.1472 39.7499 44.0188C40.3357 43.762 41.1216 44.0331 41.686 43.869C41.8575 43.8191 42.0075 43.4981 42.1718 43.441C42.4719 43.334 42.8005 43.6479 43.122 43.4696C44.3365 42.799 45.7725 43.1842 46.8656 43.1343C47.2013 43.12 47.4728 42.7491 47.8443 42.5993C48.4587 42.3568 49.1303 42.9274 49.7518 42.7562C49.909 42.7134 50.0519 42.4852 50.1948 42.4281C50.5663 42.2926 50.9306 42.4852 51.3307 42.4495C52.3023 42.3496 53.2382 41.6862 54.1813 42.1642C55.3029 41.3723 57.0175 41.5007 58.3678 41.3081C58.6321 40.6804 58.9536 41.1869 59.268 41.0941C60.2253 40.7874 61.4112 40.017 62.4614 40.4165C66.6408 39.0468 71.156 39.1253 75.2282 37.4917C75.5997 37.9197 76.0712 37.5702 76.3284 37.2278C76.4213 37.5131 76.607 37.4703 76.7642 37.5488C77.2 36.757 77.9073 37.2849 78.536 37.0423C78.6289 36.3076 79.0647 36.8069 79.2504 36.2363C79.3933 36.6215 79.1432 36.5929 79.3433 36.7927C79.6219 35.4444 81.0865 35.9081 81.6652 35.4872C81.6223 35.4872 81.5937 35.2946 81.6437 35.2661C81.8295 35.58 81.8295 34.9166 82.0009 34.9237C83.1083 34.6669 83.7799 33.2973 84.6872 32.7337C84.8229 32.9049 85.1944 33.4328 85.2587 32.9406C85.0801 32.8764 84.8658 32.9335 84.8301 32.3913C85.1301 32.5411 85.4873 32.2629 85.6374 31.8135C85.9874 31.7351 86.1946 32.0061 86.4732 31.5781C86.5518 31.5781 86.3518 31.0217 86.5161 31.0217C87.0376 31.2642 87.2448 30.7649 87.702 31.0074C87.7878 30.4867 88.295 30.2941 88.4808 30.558C88.6094 30.3226 88.2879 30.1372 88.4022 30.0016C88.7951 29.809 89.1452 29.5665 89.5381 29.8875C89.6096 29.6378 89.6524 29.3097 89.7953 29.2169C89.8953 29.1741 89.8025 29.7234 89.9382 29.5522C90.0597 29.2526 89.7953 29.0457 89.8025 28.6605C89.9882 28.4679 89.9311 28.1969 90.0168 27.883C90.3168 28.1683 90.4669 27.5334 90.7169 27.3337C90.967 27.1268 91.2742 27.298 91.5171 27.1197C91.7243 26.9699 91.8029 26.5776 92.0529 26.5704C92.2529 26.5704 92.4458 26.9628 92.6673 26.92C92.7816 26.8201 92.5673 26.5062 92.7387 26.4777C93.5175 26.3065 94.2962 26.1424 94.8534 25.4291C93.989 26.3208 93.3031 25.4219 92.5601 26.2494C92.4173 25.7572 92.2244 26.5776 92.0743 25.907C92.0386 26.1995 92.2244 26.3921 92.0529 26.3493C91.9958 26.3136 91.9672 26.1852 91.8743 26.2352C91.9529 25.6288 91.7886 25.6431 91.7028 25.2293C91.0313 25.3007 90.524 25.6074 89.9525 25.6574C89.8525 25.8072 90.0525 25.9926 89.9311 26.0996C89.7167 26.2138 89.5453 26.1424 89.2952 26.3208C89.1881 25.8856 88.9952 25.6788 89.0452 25.0938C89.831 25.0724 90.8455 24.1451 91.7814 23.9953C92.0672 23.9525 92.3815 24.3947 92.5101 23.6743C92.1029 23.9097 91.7171 23.1464 91.3456 23.0964C90.8598 23.0322 90.3954 23.7599 89.9239 23.6386C89.7882 23.6029 89.7239 23.4032 89.6024 23.4175C89.5095 23.4246 89.3738 23.767 89.2666 23.7527C89.1523 23.7385 89.1309 23.4959 89.0309 23.5316C88.838 23.5958 88.7094 23.9739 88.4879 23.9739C88.1164 23.9739 87.7235 23.5887 87.3306 23.7599C87.2377 23.5673 87.2305 23.075 87.3234 22.9823C87.8092 22.9752 87.8878 22.9395 88.3736 22.861C88.3165 22.8182 88.2736 22.7184 88.2664 22.5258C88.4236 22.5472 88.4879 22.6827 88.5665 22.4116C88.2022 22.4616 88.1736 21.5984 88.2664 21.1847C89.1881 21.2703 90.2883 20.7995 91.067 21.0777C91.1384 20.8351 91.1742 20.5141 91.3028 20.4143C92.1458 20.0933 93.1174 20.3287 94.0319 20.0291C92.9531 19.4013 91.86 19.8436 90.6669 20.186C90.6169 20.0861 90.6312 19.7723 90.5169 19.8507C90.0168 20.1931 89.4095 20.1503 89.0166 20.293C88.8023 19.8222 88.5951 19.3443 88.3879 18.8449C87.1448 19.3443 86.0517 17.4539 84.8229 17.5609C84.8015 17.2256 84.6943 17.1329 84.6372 16.8975C84.7086 16.6121 84.7443 16.2483 84.8372 15.9987C85.0373 15.963 85.2301 15.7633 85.4302 15.9844C86.3875 14.9001 87.9307 15.4922 89.2095 14.8288C89.3309 14.2652 89.1809 13.8444 89.038 13.3807C88.3808 13.1025 87.8449 13.9228 87.1234 13.2808C86.7804 11.9897 86.9591 11.0481 87.4877 10.9339C88.3522 10.7484 89.881 10.777 90.474 10.9268C93.0459 9.99944 95.7036 10.2348 98.5184 9.64276C96.9467 9.37883 95.5321 10.0993 94.1533 9.65703C94.1676 9.89957 94.1176 10.0137 94.0104 9.98517C92.6602 9.89243 91.1884 9.97804 90.0668 10.4774C89.531 9.69983 88.6665 10.7056 88.1378 9.92097C88.1664 8.65122 88.5308 8.04487 89.0166 7.6882C88.5094 7.7952 87.995 7.41 87.5592 7.36719C87.1948 7.32439 86.6161 7.7524 86.4232 7.4956C86.3732 7.4314 86.4375 7.16746 86.3518 7.16032C86.4947 7.16746 86.1017 7.25306 86.0732 7.27446C85.8946 7.43853 85.9374 7.52413 85.7088 7.50273C85.4159 7.4742 85.4159 7.4528 85.2087 7.17459C84.2014 7.06046 83.2655 7.53126 82.2724 7.36006C82.1724 7.34579 81.9652 7.38146 81.9509 7.36719C81.8509 7.29586 81.9081 7.06759 81.7866 7.03906C81.7152 7.01766 81.7723 7.28159 81.6652 7.26733C81.2722 7.19599 80.8364 7.13179 80.4649 7.19599C79.529 7.36006 78.4074 7.16032 77.6572 7.29586C77.4786 7.23166 77.6644 6.83219 77.4358 6.85359C76.1212 6.71805 74.7495 6.63958 73.4064 6.66098C73.2993 6.63245 73.335 6.13311 73.1921 6.21871C72.9992 6.15451 73.0992 6.68952 72.9349 6.67525C72.8206 6.53971 72.7063 6.38278 72.6277 6.12597C71.0631 5.8763 69.5914 6.46838 68.0768 6.79652C66.6694 7.10326 65.2334 7.21739 63.876 7.41713C62.8115 7.57406 61.8185 8.13761 60.8326 7.8808C59.568 8.34448 58.4464 8.40154 57.239 8.54421C56.3674 8.63695 55.3815 8.43721 54.6671 8.73682C54.5456 8.78675 54.4099 9.05782 54.2599 9.06495C54.0384 9.07922 53.7883 8.71542 53.5669 8.72255C52.9668 8.75108 52.3666 9.23616 51.7665 9.25042C51.0878 9.25756 50.4305 9.21476 49.7661 9.20762C49.3875 9.20049 49.0446 9.5857 48.6731 9.6285C48.423 9.65703 48.1515 9.36456 47.8943 9.38596C47.1728 9.43589 46.4655 9.95664 45.7796 9.87817C44.8652 9.78543 43.915 9.33603 43.0077 9.89957C41.9718 9.63563 40.7287 9.66416 39.757 9.89243C38.9355 9.02215 38.1353 9.96377 37.228 9.78543C37.1351 9.76403 37.0637 9.59283 36.9708 9.55003C35.592 8.92942 34.0988 10.1492 32.9772 9.5857C32.5699 10.1778 32.2056 9.5429 31.8127 9.41449C31.3911 9.27896 31.0125 9.6713 30.6124 9.68556C30.4838 9.6927 30.3552 9.47156 30.2266 9.44303C29.8194 9.36456 29.4265 9.74263 28.9764 9.8211C28.3048 9.94237 27.5833 8.98649 26.8188 9.59283C26.2187 9.18622 25.3328 8.70828 24.6541 9.24329C23.4968 8.41581 22.3465 9.40736 21.1534 9.03642C20.7534 8.90802 20.3819 8.32308 19.9818 8.85095C19.5603 8.25174 19.0602 8.60841 18.5529 8.53708C18.0528 8.47288 17.5242 8.12334 16.9955 7.99494C16.2454 7.80233 15.3095 8.28741 14.7451 7.06759C14.4807 4.52808 13.9949 8.26601 13.3948 7.75953C13.0733 7.24593 13.1162 6.53258 12.9733 5.61237C12.6875 5.23429 12.4232 5.46256 12.1446 5.66943C11.8016 5.43403 11.5659 4.28554 11.1372 4.27841ZM88.295 27.7546C88.295 27.883 88.3165 27.9543 88.3522 27.9757C88.3022 28.5179 88.045 27.7546 88.295 27.7546ZM88.3665 27.5335C88.7165 27.4621 89.1809 26.9271 89.4667 27.3123C89.5381 27.3123 89.3595 26.6846 89.4667 26.5348C89.6381 26.7987 89.831 26.9984 90.0954 26.977C90.174 27.8973 89.6167 27.3836 89.6524 28.204C89.4453 28.1398 89.3452 28.1041 89.2881 28.5393C88.8594 28.2611 88.8094 28.8317 88.4736 28.5393C88.5165 27.9971 88.3879 28.1327 88.3665 27.5335Z" fill="#16191E"/>
</svg>
