<svg width="98" height="15" viewBox="0 0 98 15" fill="none" xmlns="http://www.w3.org/2000/svg">
<mask id="mask0_952_2127" style="mask-type:alpha" maskUnits="userSpaceOnUse" x="34" y="0" width="30" height="15">
<rect x="34" width="30" height="15" fill="#D9D9D9"/>
</mask>
<g mask="url(#mask0_952_2127)">
<path d="M36.1083 6.39479C36.1083 6.06962 36.375 5.9445 36.8167 5.9445C37.45 5.9445 38.25 6.13634 38.8833 6.47822V4.51858C38.1917 4.24343 37.5084 4.13502 36.8167 4.13502C35.125 4.13502 34 5.01894 34 6.49493C34 8.79634 37.1666 8.42948 37.1666 9.42182C37.1666 9.80533 36.8334 9.93045 36.3667 9.93045C35.675 9.93045 34.7917 9.6469 34.0916 9.26334V11.248C34.8667 11.5815 35.65 11.7232 36.3667 11.7232C38.1 11.7232 39.2917 10.8644 39.2917 9.37175C39.2833 6.88683 36.1083 7.32873 36.1083 6.39479ZM41.7416 2.4673L39.7083 2.90088L39.7 9.58018C39.7 10.8144 40.625 11.7232 41.8584 11.7232C42.5417 11.7232 43.0417 11.5982 43.3166 11.4481V9.75531C43.05 9.86372 41.7333 10.2473 41.7333 9.01316V6.05291H43.3166V4.27679H41.7333L41.7416 2.4673ZM45.9084 4.89383L45.775 4.27679H43.975V11.5731H46.0584V6.62832C46.55 5.98625 47.3833 6.10298 47.6417 6.19468V4.27679C47.375 4.1767 46.4 3.99325 45.9084 4.89383ZM48.15 4.27679H50.2417V11.5731H48.15V4.27679ZM48.15 3.64304L50.2417 3.19275V1.5L48.15 1.94196V3.64304ZM54.5917 4.13502C53.775 4.13502 53.25 4.51858 52.9584 4.78547L52.85 4.26846H51.0167V13.9913L53.1 13.5494L53.1084 11.1896C53.4084 11.4064 53.85 11.7149 54.5833 11.7149C56.075 11.7149 57.4333 10.5141 57.4333 7.87078C57.425 5.45252 56.05 4.13502 54.5917 4.13502ZM54.0917 9.88037C53.6 9.88037 53.3083 9.7053 53.1084 9.48848L53.1 6.39479C53.3167 6.153 53.6167 5.98625 54.0917 5.98625C54.85 5.98625 55.375 6.83676 55.375 7.92912C55.375 9.04652 54.8583 9.88037 54.0917 9.88037ZM64 7.95415C64 5.81944 62.9666 4.13502 60.9917 4.13502C59.0083 4.13502 57.8083 5.8195 57.8083 7.9375C57.8083 10.4474 59.225 11.7149 61.2583 11.7149C62.25 11.7149 63 11.4897 63.5666 11.1729V9.50513C63 9.78868 62.35 9.96381 61.525 9.96381C60.7166 9.96381 60 9.68027 59.9083 8.69631H63.9834C63.9834 8.58784 64 8.15426 64 7.95415ZM59.8833 7.16198C59.8833 6.21972 60.4584 5.82777 60.9834 5.82777C61.4917 5.82777 62.0334 6.21972 62.0334 7.16198H59.8833Z" fill="#6772E5"/>
</g>
<mask id="mask1_952_2127" style="mask-type:alpha" maskUnits="userSpaceOnUse" x="68" y="0" width="30" height="15">
<rect x="68" width="30" height="15" fill="#D9D9D9"/>
</mask>
<g mask="url(#mask1_952_2127)">
<path fill-rule="evenodd" clip-rule="evenodd" d="M76.5769 11.7565L79.2311 3.18802H81.5994L78.945 11.7565H76.5769ZM75.5183 3.19036L73.3879 6.82255C72.8456 7.77384 72.5286 8.25433 72.3762 8.85549H72.3438C72.3815 8.09339 72.2729 7.15781 72.2627 6.62901L72.0275 3.19036H68.041L68 3.42083C69.0242 3.42083 69.6315 3.92455 69.7987 4.95489L70.5757 11.7565H73.0291L77.99 3.19036H75.5183ZM93.9351 11.7565L93.8698 10.4821L90.9126 10.4798L90.3078 11.7563H87.7367L92.3987 3.20423H95.5546L96.344 11.7563L93.9351 11.7565ZM93.6636 6.70222C93.6373 6.06897 93.6153 5.20943 93.6593 4.68933H93.6243C93.4802 5.11467 92.8611 6.39203 92.5888 7.02026L91.7077 8.89844H93.7841L93.6636 6.70222ZM84.0856 12C82.4136 12 81.3041 11.4807 80.5119 11.0178L81.64 9.33097C82.3512 9.72038 82.9095 10.1698 84.1942 10.1698C84.6073 10.1698 85.0054 10.0647 85.2314 9.68144C85.5608 9.12406 85.1554 8.82424 84.2302 8.31149L83.7734 8.02069C82.402 7.10316 81.8089 6.23175 82.4544 4.71055C82.8675 3.73754 83.9571 3 85.7546 3C86.9942 3 88.1563 3.52495 88.8335 4.03786L87.5365 5.52714C86.8757 5.00386 86.3279 4.73913 85.7011 4.73913C85.2013 4.73913 84.8217 4.92782 84.6906 5.18235C84.4439 5.66084 84.7703 5.98707 85.491 6.42512L86.0342 6.76338C87.6992 7.79155 88.0959 8.8697 87.6785 9.87764C86.9609 11.6126 85.5557 12 84.0856 12ZM96.9919 4.51334H96.8358V3.58445H97.1958C97.4249 3.58445 97.5418 3.663 97.5418 3.85152C97.5418 4.01965 97.4362 4.08917 97.2942 4.10488L97.5599 4.51334H97.3836L97.1385 4.11625H96.9919V4.51334ZM97.1658 3.98605C97.2829 3.98605 97.3858 3.97486 97.3858 3.84015C97.3858 3.72801 97.2735 3.71447 97.1798 3.71447H96.9917V3.98605H97.1658ZM97.1612 4.87233C96.6687 4.87233 96.3181 4.51117 96.3181 4.03318C96.3181 3.52829 96.7075 3.19404 97.1612 3.19404C97.6106 3.19404 98 3.52829 98 4.03318C98 4.53791 97.6106 4.87233 97.1612 4.87233ZM97.1612 3.33994C96.7901 3.33994 96.5014 3.62472 96.5014 4.03318C96.5014 4.41457 96.7536 4.72643 97.1612 4.72643C97.5278 4.72643 97.8167 4.44382 97.8167 4.03318C97.8167 3.62472 97.5278 3.33994 97.1612 3.33994Z" fill="#1D5B99"/>
</g>
<mask id="mask2_952_2127" style="mask-type:alpha" maskUnits="userSpaceOnUse" x="0" y="0" width="30" height="15">
<rect width="30" height="15" fill="#D9D9D9"/>
</mask>
<g mask="url(#mask2_952_2127)">
<path fill-rule="evenodd" clip-rule="evenodd" d="M14.7132 13.0558C16.0266 14.266 17.7903 15 19.7087 15C23.8289 15 27.1636 11.6395 27.1636 7.50636C27.1636 3.36063 23.8289 0 19.7087 0C17.7903 0 16.0266 0.733892 14.7132 1.94421C13.2068 3.32183 12.2539 5.30469 12.2539 7.50636C12.2541 9.70804 13.2068 11.691 14.7132 13.0558Z" fill="#E9B040"/>
<path fill-rule="evenodd" clip-rule="evenodd" d="M26.1719 11.678C26.1719 11.5492 26.2749 11.4463 26.4036 11.4463C26.5451 11.4463 26.648 11.5493 26.648 11.678C26.648 11.8198 26.545 11.9227 26.4036 11.9227C26.2749 11.9227 26.1719 11.8198 26.1719 11.678ZM26.4036 11.8713C26.5066 11.8713 26.5965 11.781 26.5965 11.6781C26.5965 11.5752 26.5065 11.498 26.4036 11.498C26.3133 11.498 26.2234 11.5752 26.2234 11.6781C26.2234 11.781 26.3134 11.8713 26.4036 11.8713ZM26.3778 11.7941H26.3263V11.5751H26.4163C26.4293 11.5751 26.4551 11.5751 26.4678 11.5881C26.4936 11.6009 26.4936 11.6139 26.4936 11.6396C26.4936 11.6654 26.4809 11.6912 26.4551 11.6912L26.5066 11.7942H26.4421L26.4163 11.7039H26.3778V11.7941V11.6653H26.4293C26.4421 11.6653 26.4421 11.6522 26.4421 11.6395C26.4421 11.6265 26.4421 11.6265 26.4293 11.6137H26.3778V11.7941Z" fill="#E9B040"/>
<path fill-rule="evenodd" clip-rule="evenodd" d="M17.121 6.70822C17.0953 6.43788 17.0438 6.18042 16.9922 5.90993H12.4343C12.4858 5.63959 12.5631 5.38212 12.6403 5.12451H16.7734C16.6837 4.85346 16.5806 4.58704 16.4644 4.32622H12.9623C13.0911 4.05349 13.2329 3.78709 13.3872 3.52792H16.0268C15.857 3.25294 15.6677 2.99047 15.4604 2.74251H13.9538C14.1868 2.45791 14.4407 2.19108 14.7134 1.94421C13.3873 0.746772 11.6362 0 9.70484 0C5.59759 0 2.25 3.36063 2.25 7.50636C2.25 11.6395 5.59759 15 9.70484 15C11.6362 15 13.3872 14.266 14.7134 13.0558C14.982 12.8132 15.2316 12.5506 15.4604 12.2702H13.9538C13.7477 12.0128 13.5675 11.7553 13.3872 11.4719H16.0268C16.1928 11.2173 16.3391 10.9505 16.4646 10.6736H12.9623C12.8463 10.4162 12.7306 10.1587 12.6403 9.88806H16.7734C16.8634 9.6306 16.928 9.36041 16.9921 9.08977C17.0436 8.83231 17.0951 8.56212 17.1209 8.29148C17.147 8.03044 17.1599 7.76825 17.1597 7.50591C17.1597 7.23602 17.1468 6.96568 17.121 6.70822Z" fill="#CC2131"/>
<path fill-rule="evenodd" clip-rule="evenodd" d="M26.1719 9.24492C26.1719 9.10338 26.2749 9.00049 26.4036 9.00049C26.5451 9.00049 26.648 9.10353 26.648 9.24492C26.648 9.37372 26.545 9.48965 26.4036 9.48965C26.2749 9.48965 26.1719 9.37357 26.1719 9.24492ZM26.4036 9.42509C26.5066 9.42509 26.5965 9.34781 26.5965 9.24492C26.5965 9.14202 26.5065 9.06474 26.4036 9.06474C26.3133 9.06474 26.2234 9.14202 26.2234 9.24492C26.2234 9.34781 26.3134 9.42509 26.4036 9.42509ZM26.3778 9.34781H26.3263V9.14187H26.4678C26.4936 9.1549 26.4936 9.18067 26.4936 9.20643C26.4936 9.21916 26.4809 9.24492 26.4551 9.25795L26.5066 9.34796H26.4421L26.4163 9.27068H26.3778V9.34781V9.23204H26.4036C26.4163 9.23204 26.4293 9.23204 26.4293 9.219C26.4421 9.219 26.4421 9.20628 26.4421 9.19324C26.4421 9.19324 26.4421 9.18051 26.4293 9.18051C26.4293 9.16748 26.4163 9.18051 26.4036 9.18051H26.3778V9.34781Z" fill="white"/>
<path fill-rule="evenodd" clip-rule="evenodd" d="M12.1771 9.66976C11.9326 9.73401 11.7522 9.77281 11.5721 9.77281C11.1858 9.77281 10.9539 9.52808 10.9539 9.09029C10.9539 9.00027 10.9668 8.91011 10.9797 8.80706L11.0312 8.51111L11.0699 8.26638L11.4175 6.15487H12.19L12.0999 6.61842H12.5892L12.4732 7.39095H11.9839L11.778 8.65265C11.7651 8.7172 11.7651 8.75569 11.7651 8.78145C11.7651 8.9489 11.8424 9.01315 12.0355 9.01315C12.1256 9.01315 12.2028 9.00043 12.28 8.98739L12.1771 9.66976ZM14.6751 9.644C14.3918 9.72128 14.1344 9.75977 13.851 9.75977C12.9754 9.75977 12.4732 9.29622 12.4732 8.38231C12.4732 7.31352 13.0656 6.54099 13.8895 6.54099C14.5461 6.54099 14.971 6.97878 14.971 7.66099C14.971 7.893 14.9453 8.11181 14.881 8.4208H13.2715C13.2587 8.47232 13.2587 8.49808 13.2587 8.52384C13.2587 8.88435 13.5032 9.06452 13.9668 9.06452C14.2629 9.06452 14.5204 9.00027 14.8037 8.87162L14.6751 9.644ZM14.1986 7.80283V7.64826C14.1986 7.3908 14.057 7.24912 13.8124 7.24912C13.5548 7.24912 13.3746 7.44217 13.2973 7.80268L14.1986 7.80283ZM5.99687 9.70825H5.19858L5.66213 6.78572L4.61925 9.70825H4.06569L4.00129 6.7986L3.51198 9.70825H2.72656L3.35741 5.91014H4.52909L4.55485 8.25365L5.34027 5.91014H6.62787L5.99687 9.70825ZM7.94124 8.33079C7.86396 8.31775 7.83819 8.31775 7.78667 8.31775C7.32312 8.31775 7.09142 8.49793 7.09142 8.7813C7.09142 8.97451 7.20735 9.10332 7.38752 9.10332C7.77379 9.10332 7.92821 8.7813 7.94124 8.33079ZM8.58497 9.70825H7.88972L7.9026 9.38654C7.72227 9.63097 7.47769 9.75977 7.05278 9.75977C6.66651 9.75977 6.33177 9.4123 6.33177 8.91011C6.33177 8.76857 6.35753 8.63992 6.39617 8.51111C6.52483 8.03453 7.00126 7.73858 7.73515 7.72555C7.82531 7.72555 7.96685 7.72555 8.09565 7.73858C8.12126 7.63553 8.12126 7.59674 8.12126 7.53249C8.12126 7.3264 7.95397 7.262 7.58058 7.262C7.34888 7.262 7.09127 7.30064 6.91109 7.36504L6.79517 7.3908L6.74365 7.40353L6.85957 6.70828C7.23296 6.59236 7.5033 6.54099 7.79955 6.54099C8.4948 6.54099 8.86819 6.86285 8.86819 7.45506C8.86819 7.60962 8.88107 7.72555 8.82955 8.06029L8.64937 9.16757L8.62361 9.36078L8.61073 9.51535L8.59785 9.61839L8.58497 9.70825ZM18.5635 6.64403C18.7952 6.64403 19.0013 6.70843 19.2845 6.84997L19.426 6.02591C19.3488 5.98727 19.323 5.98727 19.2201 5.94863L18.8984 5.85847C18.7953 5.8327 18.6667 5.81982 18.5249 5.81982C18.1256 5.81982 17.8939 5.8327 17.6494 5.97439C17.5206 6.06456 17.3532 6.18048 17.1728 6.38642L17.0698 6.36066L16.2457 6.93998L16.2845 6.61812H15.4346L14.9327 9.7081H15.744L16.04 8.04741C16.04 8.04741 16.156 7.81541 16.2074 7.73843C16.362 7.54522 16.4906 7.54522 16.6579 7.54522H16.7225C16.6955 7.74144 16.6825 7.93935 16.6837 8.13742C16.6837 9.14166 17.2501 9.77266 18.1257 9.77266C18.3447 9.77266 18.538 9.74689 18.834 9.66961L18.9758 8.79418C18.7184 8.93572 18.4865 9.00012 18.2933 9.00012C17.817 9.00012 17.5335 8.63962 17.5335 8.07317C17.5332 7.23624 17.9583 6.64403 18.5635 6.64403ZM25.4001 5.91014L25.22 6.99166C25.0268 6.69555 24.795 6.55387 24.486 6.55387C24.0609 6.55387 23.6619 6.79845 23.4172 7.262V7.24927L22.9023 6.94013L22.9538 6.61827H22.0911L21.6018 9.70825H22.4001L22.6706 8.04756C22.6706 8.04756 22.8765 7.81556 22.9281 7.73858C23.0569 7.58401 23.1855 7.5581 23.2886 7.54537C23.1985 7.80283 23.147 8.11181 23.147 8.45959C23.147 9.23212 23.546 9.74705 24.1382 9.74705C24.4345 9.74705 24.6662 9.644 24.885 9.39927L24.8465 9.70825H25.6063L26.2243 5.91014H25.4001ZM24.4089 8.97451C24.1384 8.97451 23.9968 8.76857 23.9968 8.36928C23.9968 7.76404 24.2543 7.3264 24.6275 7.3264C24.9108 7.3264 25.0526 7.54537 25.0526 7.93164C25.0526 8.5496 24.7951 8.97451 24.4089 8.97451ZM20.688 8.33079C20.6108 8.31775 20.585 8.31775 20.5335 8.31775C20.0696 8.31775 19.8379 8.49793 19.8379 8.7813C19.8379 8.97451 19.954 9.10332 20.1342 9.10332C20.5204 9.10332 20.675 8.7813 20.688 8.33079ZM21.3318 9.70825H20.6235L20.6492 9.38654C20.4691 9.63097 20.2242 9.75977 19.7996 9.75977C19.4003 9.75977 19.0528 9.42503 19.0528 8.91011C19.0528 8.17637 19.6062 7.7257 20.4818 7.7257C20.5721 7.7257 20.7135 7.7257 20.8296 7.73873C20.8553 7.63569 20.8684 7.59689 20.8684 7.53264C20.8684 7.32655 20.7009 7.26215 20.3147 7.26215C20.0957 7.26215 19.8253 7.30079 19.6452 7.36519L19.5421 7.39095L19.4906 7.40368L19.6064 6.70843C19.9799 6.59251 20.2504 6.54114 20.5464 6.54114C21.2416 6.54114 21.6021 6.863 21.6021 7.45521C21.6021 7.60977 21.6279 7.7257 21.5636 8.06044L21.3962 9.16772L21.3704 9.36093L21.3446 9.5155L21.3319 9.61854V9.70825H21.3318ZM10.2716 7.27488C10.4261 7.27488 10.645 7.28776 10.8768 7.3264L10.9927 6.60539C10.7609 6.57963 10.4519 6.54099 10.2716 6.54099C9.37038 6.54099 9.07428 7.0303 9.07428 7.59674C9.07428 7.97028 9.24157 8.24047 9.67936 8.44641C10.0012 8.60097 10.0527 8.62658 10.0527 8.76842C10.0527 8.96133 9.88545 9.07741 9.57632 9.07741C9.33174 9.07741 9.09989 9.03861 8.84243 8.9486L8.75226 9.65658L8.76499 9.66961L8.91956 9.69537C8.97108 9.7081 9.03548 9.72113 9.12565 9.73386C9.31871 9.74689 9.48615 9.75962 9.5892 9.75962C10.4905 9.75962 10.8639 9.41215 10.8639 8.72963C10.8639 8.30487 10.6578 8.04741 10.2587 7.86723C9.91106 7.71252 9.87242 7.68706 9.87242 7.54522C9.87242 7.40368 10.027 7.27488 10.2716 7.27488Z" fill="#1B3771"/>
<path fill-rule="evenodd" clip-rule="evenodd" d="M19.6444 5.78144L19.5026 6.60549C19.2194 6.46381 19.0133 6.39955 18.7816 6.39955C18.1763 6.39955 17.7516 6.99176 17.7516 7.8287C17.7516 8.40817 18.0348 8.75565 18.5114 8.75565C18.7043 8.75565 18.9361 8.69139 19.1936 8.56274L19.0521 9.42513C18.7558 9.50242 18.5628 9.54121 18.3438 9.54121C17.4684 9.54121 16.9275 8.91021 16.9275 7.89325C16.9275 6.54124 17.6743 5.58838 18.7429 5.58838C18.8845 5.58838 19.0131 5.60126 19.1162 5.62702L19.4382 5.7043C19.5414 5.74295 19.5671 5.75583 19.6444 5.78144ZM17.0435 6.34803H16.9662C16.696 6.34803 16.5414 6.47684 16.2967 6.85007L16.374 6.37364H15.6399L15.138 9.46378H15.9494C16.2453 7.57108 16.3226 7.24922 16.7089 7.24922H16.7604C16.8377 6.87583 16.9406 6.60534 17.0694 6.36076L17.0435 6.34803ZM12.3826 9.42513C12.1638 9.50242 11.9835 9.52818 11.8033 9.52818C11.3913 9.52818 11.1594 9.29648 11.1594 8.84596C11.1594 8.76868 11.1723 8.66578 11.1852 8.57547L11.2367 8.26648L11.2754 8.02206L11.623 5.91024H12.4213L12.3311 6.37379H12.7431L12.6401 7.13345H12.2281L12.0093 8.42105C11.9964 8.47257 11.9964 8.51137 11.9964 8.54986C11.9964 8.70443 12.0737 8.76883 12.2667 8.76883C12.3569 8.76883 12.434 8.76883 12.4855 8.74307L12.3826 9.42513ZM9.27962 7.35226C9.27962 7.73868 9.4598 8.00887 9.88471 8.21496C10.2195 8.36953 10.271 8.4209 10.271 8.54971C10.271 8.74292 10.1293 8.83293 9.80743 8.83293C9.56285 8.83293 9.34388 8.79444 9.08642 8.71715L8.97049 9.42513L9.00913 9.43817L9.15082 9.46393C9.20219 9.47666 9.26674 9.48969 9.36964 9.48969C9.54982 9.51545 9.70438 9.51545 9.80743 9.51545C10.6571 9.51545 11.0564 9.19343 11.0564 8.48545C11.0564 8.06039 10.8891 7.81566 10.4899 7.62276C10.1423 7.46819 10.1037 7.4297 10.1037 7.28801C10.1037 7.12072 10.2454 7.04343 10.5028 7.04343C10.6574 7.04343 10.8762 7.05631 11.0823 7.08207L11.1981 6.37394C10.9921 6.3353 10.6703 6.30954 10.4899 6.30954C9.58861 6.30939 9.26674 6.78582 9.27962 7.35226ZM25.8118 9.46393H25.052L25.0908 9.16767C24.8718 9.39937 24.64 9.50242 24.3437 9.50242C23.7515 9.50242 23.3653 9.00053 23.3653 8.22799C23.3653 7.19785 23.9705 6.32227 24.6785 6.32227C25.0005 6.32227 25.2322 6.46396 25.4513 6.74718L25.6315 5.66566H26.4298L25.8118 9.46393ZM24.6271 8.74292C25.0006 8.74292 25.2581 8.30513 25.2581 7.69989C25.2581 7.30074 25.1163 7.09465 24.833 7.09465C24.4725 7.09465 24.2023 7.51956 24.2023 8.1248C24.2023 8.53698 24.3439 8.74292 24.6271 8.74292ZM14.8547 9.39937C14.5713 9.48969 14.3138 9.52818 14.0177 9.52818C13.1164 9.52818 12.6528 9.0519 12.6528 8.13768C12.6528 7.08192 13.2452 6.29651 14.0564 6.29651C14.7258 6.29651 15.1506 6.7343 15.1506 7.41667C15.1506 7.64852 15.1248 7.86749 15.0476 8.1892H13.4513C13.4384 8.22799 13.4384 8.25376 13.4384 8.27952C13.4384 8.64002 13.6831 8.8202 14.1465 8.8202C14.4426 8.8202 14.7001 8.76868 14.9835 8.62699L14.8547 9.39937ZM14.404 7.5582V7.40379C14.404 7.14633 14.2623 7.00464 14.0177 7.00464C13.7603 7.00464 13.5799 7.19785 13.5026 7.5582H14.404ZM6.20237 9.46393H5.40408L5.86763 6.54109L4.82475 9.46393H4.27104L4.20664 6.56685L3.71748 9.46393H2.9707L3.60155 5.66566H4.76035L4.79899 8.0219L5.57137 5.66566H6.83322L6.20237 9.46393ZM8.19811 8.08616C8.12083 8.08616 8.08218 8.07343 8.01778 8.07343C7.56711 8.07343 7.33541 8.24072 7.33541 8.54971C7.33541 8.74292 7.43846 8.85869 7.61863 8.85869C7.95338 8.85869 8.18523 8.54971 8.19811 8.08616ZM8.79031 9.46393H8.12067L8.13355 9.14191C7.92746 9.39937 7.65712 9.51545 7.28374 9.51545C6.84595 9.51545 6.54985 9.1807 6.54985 8.67851C6.54985 7.91901 7.06477 7.48122 7.96611 7.48122C8.05627 7.48122 8.1722 7.4941 8.30085 7.50683C8.32661 7.40394 8.32661 7.3653 8.32661 7.31377C8.32661 7.10784 8.18493 7.03055 7.81154 7.03055C7.57984 7.03055 7.32223 7.05631 7.14205 7.10784L7.02612 7.14648L6.94884 7.15936L7.06477 6.46411C7.46391 6.34818 7.73425 6.30954 8.03051 6.30954C8.72576 6.30954 9.09915 6.61852 9.09915 7.21073C9.09915 7.3653 9.08626 7.48122 9.03474 7.82885L8.85441 8.9234L8.82865 9.1163L8.81577 9.27087L8.80289 9.38695L8.79031 9.46393ZM20.9449 8.08616C20.8546 8.08616 20.8161 8.07343 20.7647 8.07343C20.3012 8.07343 20.0692 8.24072 20.0692 8.54971C20.0692 8.74292 20.1853 8.85869 20.3654 8.85869C20.6874 8.85869 20.9319 8.54971 20.9449 8.08616ZM21.5371 9.46393H20.8676L20.8804 9.14191C20.6744 9.39937 20.4041 9.51545 20.0307 9.51545C19.5929 9.51545 19.2966 9.1807 19.2966 8.67851C19.2966 7.91901 19.8116 7.48122 20.7129 7.48122C20.8032 7.48122 20.9191 7.4941 21.0349 7.50683C21.0607 7.40394 21.0737 7.3653 21.0737 7.31377C21.0737 7.10784 20.9319 7.03055 20.5588 7.03055C20.3268 7.03055 20.0566 7.05631 19.8763 7.10784L19.7732 7.14648L19.6959 7.15936L19.8117 6.46411C20.211 6.34818 20.4812 6.30954 20.7775 6.30954C21.4727 6.30954 21.8332 6.61852 21.8332 7.21073C21.8332 7.3653 21.8332 7.48122 21.769 7.82885L21.6015 8.9234L21.5758 9.1163L21.55 9.27087L21.5373 9.38695L21.5371 9.46393ZM23.7001 6.34803H23.6229C23.3527 6.34803 23.1981 6.47684 22.9534 6.85007L23.0307 6.37364H22.2966L21.8073 9.46378H22.6056C22.9019 7.57108 22.9791 7.24922 23.3654 7.24922H23.4169C23.4942 6.87583 23.5971 6.60534 23.7259 6.36076L23.7001 6.34803Z" fill="white"/>
</g>
</svg>
