<svg width="65" height="15" viewBox="0 0 65 15" fill="none" xmlns="http://www.w3.org/2000/svg">
<path fill-rule="evenodd" clip-rule="evenodd" d="M24.5211 1.00049H20.9425C20.6976 1.00049 20.4893 1.17471 20.4511 1.41128L19.0038 10.3941C18.975 10.5714 19.1152 10.7312 19.2989 10.7312H21.0074C21.2523 10.7312 21.4605 10.557 21.4987 10.3199L21.8891 7.89716C21.9267 7.65989 22.1355 7.4859 22.3799 7.4859H23.5128C25.8701 7.4859 27.2306 6.3692 27.586 4.15644C27.7461 3.18837 27.5928 2.4277 27.1296 1.89484C26.6211 1.31006 25.7188 1.00049 24.5211 1.00049ZM24.934 4.28136C24.7383 5.53838 23.7572 5.53838 22.8085 5.53838H22.2684L22.6473 3.19074C22.6698 3.04899 22.7954 2.94445 22.9419 2.94445H23.1894C23.8356 2.94445 24.4453 2.94445 24.7604 3.30499C24.948 3.52022 25.0057 3.83975 24.934 4.28136ZM35.2185 4.24106H33.5048C33.3587 4.24106 33.2326 4.34559 33.2101 4.48758L33.1343 4.95668L33.0144 4.78672C32.6434 4.25955 31.8162 4.08343 30.9905 4.08343C29.0966 4.08343 27.4793 5.48742 27.1642 7.45698C27.0005 8.43927 27.2332 9.37866 27.8025 10.0338C28.3249 10.6362 29.0721 10.8872 29.9611 10.8872C31.4869 10.8872 32.3332 9.9267 32.3332 9.9267L32.2567 10.393C32.2279 10.5712 32.3681 10.731 32.5507 10.731H34.0944C34.34 10.731 34.547 10.5567 34.5857 10.3197L35.512 4.57813C35.5413 4.40154 35.4016 4.24106 35.2185 4.24106ZM32.8296 7.50605C32.6643 8.4644 31.8872 9.10773 30.8963 9.10773C30.3987 9.10773 30.0008 8.95152 29.7456 8.65545C29.4923 8.36153 29.3959 7.94291 29.4765 7.47689C29.631 6.5266 30.4212 5.86241 31.3971 5.86241C31.8836 5.86241 32.2792 6.02052 32.5398 6.31919C32.8008 6.62094 32.9045 7.04192 32.8296 7.50605ZM42.6233 4.24082H44.3455C44.5867 4.24082 44.7274 4.5056 44.5903 4.69926L38.8627 12.7923C38.7699 12.9234 38.6171 13.0013 38.4539 13.0013H36.7339C36.4917 13.0013 36.3503 12.7344 36.4905 12.5403L38.274 10.076L36.3772 4.62696C36.3116 4.43757 36.4544 4.24082 36.6603 4.24082H38.3524C38.5723 4.24082 38.7663 4.3821 38.8297 4.58809L39.8364 7.87915L42.2117 4.4544C42.3046 4.32071 42.4591 4.24082 42.6233 4.24082Z" fill="#253B80"/>
<path fill-rule="evenodd" clip-rule="evenodd" d="M61.2847 10.3941L62.7533 1.247C62.7759 1.10501 62.9015 1.00047 63.0476 1H64.701C64.8836 1 65.0238 1.16024 64.995 1.33754L63.5466 10.3199C63.5089 10.557 63.3006 10.7312 63.0553 10.7312H61.5786C61.3961 10.7312 61.2559 10.5714 61.2847 10.3941ZM50.0369 1.00047H46.4576C46.2133 1.00047 46.005 1.1747 45.9667 1.41126L44.5194 10.3941C44.4906 10.5714 44.6308 10.7312 44.8136 10.7312H46.6501C46.8208 10.7312 46.9668 10.6094 46.9935 10.4434L47.4042 7.89715C47.4419 7.65987 47.6507 7.48589 47.895 7.48589H49.0273C51.3852 7.48589 52.7454 6.36919 53.1011 4.15642C53.2616 3.18835 53.1074 2.42769 52.6444 1.89482C52.1361 1.31005 51.2346 1.00047 50.0369 1.00047ZM50.4497 4.28134C50.2546 5.53837 49.2734 5.53837 48.3241 5.53837H47.7846L48.164 3.19072C48.1866 3.04897 48.311 2.94444 48.458 2.94444H48.7055C49.3513 2.94444 49.9616 2.94444 50.2764 3.30498C50.4643 3.52021 50.5214 3.83974 50.4497 4.28134ZM60.7333 4.24105H59.0208C58.8735 4.24105 58.7486 4.34558 58.7266 4.48757L58.6508 4.95667L58.5304 4.78671C58.1594 4.25954 57.3327 4.08342 56.507 4.08342C54.6131 4.08342 52.9962 5.4874 52.6812 7.45697C52.518 8.43926 52.7497 9.37865 53.319 10.0338C53.8423 10.6361 54.5886 10.8872 55.4776 10.8872C57.0034 10.8872 57.8495 9.92669 57.8495 9.92669L57.7732 10.3929C57.7444 10.5712 57.8846 10.731 58.0684 10.731H59.6114C59.8557 10.731 60.064 10.5567 60.1022 10.3197L61.029 4.57812C61.0573 4.40152 60.9171 4.24105 60.7333 4.24105ZM58.3447 7.50603C58.1803 8.46439 57.4022 9.10771 56.4111 9.10771C55.9144 9.10771 55.5158 8.95151 55.2604 8.65544C55.0071 8.36151 54.9119 7.9429 54.9916 7.47688C55.1468 6.52659 55.936 5.8624 56.9119 5.8624C57.3986 5.8624 57.794 6.0205 58.0548 6.31917C58.3168 6.62093 58.4205 7.04191 58.3447 7.50603Z" fill="#179BD7"/>
<path d="M3.68904 14.4916L3.9549 12.8403L3.36275 12.8269H0.535156L2.50021 0.642005C2.50621 0.605217 2.52611 0.570918 2.55508 0.546565C2.58405 0.522211 2.62121 0.508789 2.65984 0.508789H7.42761C9.01048 0.508789 10.1027 0.830896 10.6731 1.46665C10.9404 1.76491 11.1107 2.07657 11.1931 2.41955C11.2794 2.77945 11.281 3.20942 11.1966 3.73384L11.1905 3.77211V4.10813L11.4579 4.25627C11.6831 4.37307 11.8619 4.50679 11.9992 4.65989C12.228 4.91489 12.3759 5.23899 12.4384 5.62322C12.5029 6.0184 12.4816 6.48864 12.3759 7.02101C12.2539 7.63342 12.0567 8.16678 11.7904 8.60321C11.5453 9.00535 11.2332 9.33882 10.8627 9.59738C10.5089 9.84292 10.0886 10.0294 9.61331 10.1487C9.1527 10.2659 8.62771 10.3251 8.05181 10.3251H7.68074C7.41547 10.3251 7.15766 10.4186 6.95544 10.5861C6.75265 10.7571 6.61833 10.9906 6.57721 11.2462L6.54927 11.3949L6.07959 14.3051L6.05822 14.412C6.05266 14.4459 6.04301 14.4628 6.02881 14.4743C6.01608 14.4846 5.99779 14.4916 5.97994 14.4916H3.68904Z" fill="#253B80"/>
<path d="M11.7143 3.81055C11.7001 3.89952 11.6838 3.99048 11.6655 4.08393C11.0367 7.24088 8.88563 8.33148 6.13822 8.33148H4.73942C4.40347 8.33148 4.12035 8.57006 4.06797 8.89416L3.35174 13.3361L3.14894 14.5951C3.11485 14.8079 3.28268 14.9998 3.50216 14.9998H5.98327C6.27708 14.9998 6.52655 14.791 6.57278 14.5077L6.59722 14.3844L7.06441 11.4854L7.09441 11.3264C7.14006 11.0421 7.39012 10.8333 7.68392 10.8333H8.05499C10.4587 10.8333 12.3405 9.87894 12.8905 7.11711C13.1202 5.96339 13.0013 5.00006 12.3933 4.32253C12.2094 4.11823 11.9811 3.94873 11.7143 3.81055Z" fill="#179BD7"/>
<path d="M11.055 3.5542C10.959 3.52685 10.8598 3.502 10.7581 3.47963C10.656 3.45777 10.5512 3.43838 10.4435 3.42148C10.0663 3.36183 9.65312 3.3335 9.21036 3.3335H5.4734C5.38137 3.3335 5.29401 3.35387 5.21573 3.39066C5.04337 3.47168 4.91534 3.63125 4.88432 3.82659L4.08923 8.75066L4.06641 8.89431C4.11879 8.57021 4.40191 8.33161 4.73786 8.33161H6.13666C8.88407 8.33161 11.0352 7.24053 11.664 4.08408C11.6827 3.99063 11.6985 3.89967 11.7127 3.8107C11.5536 3.72818 11.3813 3.65759 11.1958 3.59744C11.1501 3.58253 11.1028 3.56812 11.055 3.5542Z" fill="#222D65"/>
<path d="M4.8867 3.82701C4.91772 3.63165 5.04589 3.47209 5.21811 3.39156C5.29698 3.35477 5.38389 3.33439 5.47578 3.33439H9.21288C9.65564 3.33439 10.0688 3.36273 10.4459 3.42238C10.5537 3.43928 10.6585 3.45867 10.7606 3.48053C10.8623 3.50291 10.9614 3.52777 11.0575 3.55509C11.1052 3.56902 11.1525 3.58343 11.1987 3.59785C11.3842 3.65799 11.5566 3.72908 11.7157 3.8111C11.9028 2.64445 11.7142 1.85012 11.0692 1.13084C10.3581 0.339006 9.07461 0 7.43234 0H2.66442C2.32892 0 2.04287 0.238586 1.99092 0.563183L0.00509561 12.8733C-0.0341176 13.1169 0.157998 13.3367 0.40908 13.3367H3.3527L4.09176 8.75106L4.8867 3.82701Z" fill="#253B80"/>
</svg>
