<svg width="24" height="24" viewBox="0 0 24 24" fill="none" xmlns="http://www.w3.org/2000/svg">
<path d="M21.5669 0H6.12851C6.01482 0 5.90578 0.0451529 5.82539 0.125525C5.745 0.205898 5.69984 0.314906 5.69984 0.42857C5.69984 0.542234 5.745 0.651242 5.82539 0.731614C5.90578 0.811987 6.01482 0.85714 6.12851 0.85714H21.5669C21.9848 0.857594 22.3854 1.02378 22.6808 1.31922C22.9762 1.61467 23.1423 2.01523 23.1427 2.43299V17.8671C23.1427 17.9807 23.1878 18.0898 23.2682 18.1701C23.3486 18.2505 23.4576 18.2956 23.5713 18.2956C23.685 18.2956 23.7941 18.2505 23.8744 18.1701C23.9548 18.0898 24 17.9807 24 17.8671V2.43299C23.9993 1.788 23.7428 1.16962 23.2866 0.71351C22.8305 0.257395 22.212 0.000794099 21.5669 0ZM23.874 21.2635L21.87 19.2599C21.8304 19.219 21.7831 19.1863 21.7308 19.1639C21.6785 19.1414 21.6223 19.1296 21.5654 19.1291C21.5084 19.1286 21.452 19.1395 21.3993 19.161C21.3466 19.1826 21.2988 19.2144 21.2585 19.2546C21.2183 19.2949 21.1864 19.3427 21.1649 19.3954C21.1433 19.448 21.1325 19.5045 21.133 19.5614C21.1335 19.6183 21.1453 19.6745 21.1678 19.7268C21.1902 19.7791 21.2229 19.8264 21.2638 19.8659L22.5365 21.1388H4.43271C4.01478 21.1384 3.61406 20.9723 3.31854 20.6768C3.02302 20.3814 2.85684 19.9808 2.8565 19.5629V1.46314L4.12964 2.73599C4.21049 2.81406 4.31877 2.85725 4.43116 2.85628C4.54356 2.8553 4.65107 2.81023 4.73055 2.73077C4.81003 2.65131 4.85511 2.54382 4.85609 2.43145C4.85706 2.31908 4.81386 2.21082 4.73577 2.12999L2.73133 0.126C2.69152 0.0861527 2.64424 0.0545417 2.59221 0.0329742C2.54017 0.0114067 2.48439 0.00030572 2.42805 0.00030572C2.37172 0.00030572 2.31594 0.0114067 2.2639 0.0329742C2.21186 0.0545417 2.16458 0.0861527 2.12477 0.126L0.120332 2.12999C0.0422468 2.21082 -0.000960475 2.31908 1.62046e-05 2.43145C0.000992884 2.54382 0.0460753 2.65131 0.125553 2.73077C0.205031 2.81023 0.312546 2.8553 0.424941 2.85628C0.537335 2.85725 0.645617 2.81406 0.726464 2.73599L1.9996 1.46314V19.5629C2.00028 20.2079 2.25684 20.8262 2.71299 21.2823C3.16914 21.7383 3.78762 21.9948 4.43271 21.9955H22.5365L21.2634 23.2683C21.2236 23.3082 21.192 23.3554 21.1705 23.4074C21.149 23.4595 21.1379 23.5152 21.1379 23.5715C21.1379 23.6278 21.1491 23.6835 21.1706 23.7355C21.1922 23.7875 21.2238 23.8348 21.2636 23.8746C21.3034 23.9143 21.3507 23.9459 21.4027 23.9674C21.4548 23.989 21.5105 24 21.5668 24C21.6231 24 21.6789 23.9889 21.7309 23.9673C21.7829 23.9458 21.8302 23.9142 21.87 23.8743L23.874 21.8703C23.9538 21.7895 23.9985 21.6805 23.9985 21.5669C23.9985 21.4533 23.9538 21.3443 23.874 21.2635Z" fill="#5E5E5E"/>
<path d="M7.62398 6.96286C7.51029 6.96286 7.40126 7.00802 7.32087 7.08839C7.24048 7.16876 7.19531 7.27777 7.19531 7.39143V15.7125C7.19531 15.8262 7.24048 15.9352 7.32087 16.0156C7.40126 16.096 7.51029 16.1411 7.62398 16.1411C7.73767 16.1411 7.8467 16.096 7.92709 16.0156C8.00748 15.9352 8.05264 15.8262 8.05264 15.7125V9.51286C8.05264 9.14458 8.19897 8.7914 8.45944 8.53099C8.7199 8.27058 9.07317 8.12429 9.44152 8.12429C9.80987 8.12429 10.1631 8.27058 10.4236 8.53099C10.6841 8.7914 10.8304 9.14458 10.8304 9.51286V15.7125C10.8304 15.8262 10.8756 15.9352 10.9559 16.0156C11.0363 16.096 11.1454 16.1411 11.2591 16.1411C11.3727 16.1411 11.4818 16.096 11.5622 16.0156C11.6426 15.9352 11.6877 15.8262 11.6877 15.7125V9.51286C11.6845 9.32848 11.718 9.14531 11.7863 8.97403C11.8547 8.80275 11.9564 8.64679 12.0857 8.51526C12.215 8.38373 12.3692 8.27926 12.5393 8.20794C12.7093 8.13662 12.8919 8.0999 13.0764 8.0999C13.2608 8.0999 13.4434 8.13662 13.6135 8.20794C13.7836 8.27926 13.9378 8.38373 14.0671 8.51526C14.1963 8.64679 14.2981 8.80275 14.3664 8.97403C14.4348 9.14531 14.4683 9.32848 14.4651 9.51286V15.7125C14.4651 15.8262 14.5102 15.9352 14.5906 16.0156C14.671 16.096 14.78 16.1411 14.8937 16.1411C15.0074 16.1411 15.1164 16.096 15.1968 16.0156C15.2772 15.9352 15.3224 15.8262 15.3224 15.7125V9.51286C15.3179 9.04058 15.1648 8.58171 14.8848 8.20131C14.6048 7.82091 14.2121 7.53828 13.7625 7.3935C13.3128 7.24872 12.829 7.24914 12.3795 7.39469C11.9301 7.54025 11.538 7.82355 11.2586 8.20443C11.0811 7.95977 10.8559 7.75351 10.5966 7.59805C10.3373 7.44259 10.0493 7.34114 9.74981 7.29979C9.45031 7.25844 9.14555 7.27804 8.85382 7.35742C8.5621 7.4368 8.28944 7.57432 8.05221 7.76172V7.39143C8.05221 7.27777 8.00705 7.16876 7.92666 7.08839C7.84627 7.00802 7.73767 6.96286 7.62398 6.96286ZM18.4336 4.54144C18.0439 4.5419 17.6702 4.69693 17.3946 4.97252C17.119 5.24811 16.9641 5.62175 16.9637 6.01144C16.9637 6.1251 17.0089 6.23411 17.0893 6.31448C17.1697 6.39486 17.2787 6.44001 17.3924 6.44001C17.5061 6.44001 17.6151 6.39486 17.6955 6.31448C17.7759 6.23411 17.8211 6.1251 17.8211 6.01144C17.827 5.85298 17.8941 5.70298 18.0084 5.59297C18.1226 5.48296 18.275 5.4215 18.4336 5.4215C18.5922 5.4215 18.7447 5.48296 18.8589 5.59297C18.9731 5.70298 19.0403 5.85298 19.0462 6.01144C19.0462 6.72458 17.8395 8.28586 17.0786 9.10229C17.0217 9.16336 16.9838 9.23975 16.9696 9.32206C16.9555 9.40437 16.9657 9.48901 16.9991 9.56559C17.0324 9.64216 17.0874 9.70734 17.1573 9.75309C17.2271 9.79885 17.3089 9.82319 17.3924 9.82314H19.4749C19.5886 9.82314 19.6976 9.77799 19.778 9.69761C19.8584 9.61724 19.9035 9.50823 19.9035 9.39457C19.9035 9.28091 19.8584 9.1719 19.778 9.09153C19.6976 9.01115 19.5886 8.966 19.4749 8.966H18.3312C18.9862 8.16415 19.9035 6.88529 19.9035 6.01101C19.9032 5.62132 19.7482 5.24769 19.4727 4.97209C19.1971 4.6965 18.8234 4.54147 18.4336 4.54102V4.54144Z" fill="#5E5E5E"/>
</svg>
