<svg width="44" height="44" viewBox="0 0 44 44" fill="none" xmlns="http://www.w3.org/2000/svg">
<mask id="mask0_86_139" style="mask-type:alpha" maskUnits="userSpaceOnUse" x="0" y="0" width="44" height="44">
<rect width="44" height="44" fill="#D9D9D9"/>
</mask>
<g mask="url(#mask0_86_139)">
<path d="M43.6715 14.3949L22.3589 1.08083C22.2508 1.01344 22.1267 0.977783 22 0.977783C21.8733 0.977783 21.7492 1.01344 21.6411 1.08083L0.328549 14.3949C0.173869 14.4914 0.0628711 14.6463 0.0197329 14.8259C-0.0234053 15.0054 0.00481102 15.1951 0.0982358 15.3535L2.16074 18.8572C2.20742 18.9364 2.26899 19.0053 2.34191 19.0601C2.41483 19.1149 2.49765 19.1545 2.58563 19.1766C2.67361 19.1987 2.765 19.2028 2.85455 19.1888C2.9441 19.1747 3.03004 19.1428 3.10743 19.0948L4.81244 18.0401V38.117C4.81408 39.4175 5.32163 40.6642 6.2238 41.5837C7.12597 42.5032 8.3491 43.0206 9.62496 43.0222H19.25C19.4323 43.0222 19.6072 42.9484 19.7361 42.817C19.8651 42.6856 19.9375 42.5073 19.9375 42.3215C19.9375 42.1356 19.8651 41.9574 19.7361 41.826C19.6072 41.6946 19.4323 41.6207 19.25 41.6207H9.62496C8.71361 41.6196 7.8399 41.2501 7.19547 40.5933C6.55105 39.9365 6.18854 39.0459 6.18744 38.117V17.1887L22 7.40361L37.8126 17.1887V38.117C37.8115 39.0459 37.449 39.9365 36.8045 40.5933C36.1601 41.2501 35.2864 41.6196 34.375 41.6207H24.75C24.5677 41.6207 24.3928 41.6946 24.2639 41.826C24.1349 41.9574 24.0625 42.1356 24.0625 42.3215C24.0625 42.5073 24.1349 42.6856 24.2639 42.817C24.3928 42.9484 24.5677 43.0222 24.75 43.0222H34.375C35.6509 43.0206 36.874 42.5032 37.7762 41.5837C38.6784 40.6642 39.1859 39.4175 39.1876 38.117V18.0401L40.8926 19.0913C40.9999 19.1594 41.1236 19.196 41.2501 19.1971C41.3057 19.1969 41.361 19.1901 41.4151 19.1767C41.5029 19.1546 41.5856 19.1149 41.6584 19.0601C41.7312 19.0053 41.7927 18.9363 41.8393 18.8572L43.9018 15.3535C43.9952 15.1951 44.0234 15.0054 43.9803 14.8259C43.9371 14.6463 43.8261 14.4914 43.6715 14.3949ZM41.0163 17.5314L22.3568 5.98531C22.2493 5.91874 22.1258 5.88354 22 5.88354C21.8742 5.88354 21.7507 5.91874 21.6432 5.98531L5.14313 16.1951L2.98368 17.5314L1.62724 15.2274L22 2.50053L42.3728 15.2274L41.0163 17.5314Z" fill="#16191E"/>
<path d="M33.847 28.3338C34.6488 26.4966 35.063 24.5081 35.0625 22.4974C35.0707 20.5426 34.3516 18.6573 33.0502 17.2215C32.4368 16.5252 31.6873 15.9672 30.8499 15.5834C30.0125 15.1995 29.1057 14.9982 28.1875 14.9924C27.2821 15.0115 26.39 15.2182 25.5654 15.6C24.7409 15.9817 24.0012 16.5306 23.3915 17.2131L22 18.3104L20.6078 17.2124C19.9935 16.5427 19.2606 15.9973 18.4477 15.6049C17.6243 15.2053 16.7244 14.9962 15.8125 14.9924C14.8943 14.9982 13.9875 15.1995 13.1501 15.5834C12.3127 15.9672 11.5633 16.5252 10.9498 17.2215C9.64836 18.6573 8.92928 20.5426 8.93746 22.4974C8.92163 24.4894 9.32786 26.4614 10.1284 28.2787C10.929 30.0961 12.1049 31.7158 13.576 33.0274L21.5511 40.0488C21.6759 40.1585 21.8352 40.2188 22 40.2188C22.1648 40.2188 22.3241 40.1585 22.4489 40.0488L30.424 33.0281C31.8845 31.7339 33.0524 30.1324 33.847 28.3338ZM22 38.5927L14.4739 31.9665C13.1526 30.7863 12.0969 29.3293 11.3787 27.6951C10.6605 26.0609 10.2968 24.288 10.3125 22.4974C10.3048 20.8959 10.8929 19.3509 11.9583 18.1738C12.4437 17.6199 13.0373 17.1755 13.701 16.869C14.3647 16.5625 15.0839 16.4007 15.8125 16.3939C16.5235 16.3978 17.2248 16.5622 17.866 16.8753C18.536 17.1987 19.1385 17.6507 19.6405 18.2067C19.6659 18.2348 21.5793 19.7484 21.5793 19.7484C21.6997 19.8434 21.8477 19.8949 22 19.8949C22.1523 19.8949 22.3003 19.8434 22.4208 19.7484C22.4208 19.7484 24.3348 18.2348 24.3609 18.2067C24.8431 17.6538 25.4315 17.2076 26.0897 16.8958C26.748 16.584 27.4619 16.4132 28.1875 16.3939C28.9161 16.4007 29.6353 16.5625 30.299 16.869C30.9627 17.1755 31.5563 17.6199 32.0417 18.1738C33.1071 19.3509 33.6952 20.8959 33.6875 22.4974C33.6881 24.3095 33.3155 26.1017 32.5937 27.7578C31.8807 29.37 30.834 30.806 29.5254 31.9672L22 38.5927Z" fill="#16191E"/>
<path d="M27.5 24.8032H24.75V21.9932C24.75 21.8074 24.6776 21.6291 24.5487 21.4977C24.4197 21.3663 24.2449 21.2925 24.0625 21.2925H19.9375C19.7552 21.2925 19.5803 21.3663 19.4514 21.4977C19.3224 21.6291 19.25 21.8074 19.25 21.9932V24.8032H16.5C16.3177 24.8032 16.1428 24.877 16.0139 25.0084C15.8849 25.1398 15.8125 25.3181 15.8125 25.5039V29.7084C15.8125 29.8942 15.8849 30.0725 16.0139 30.2039C16.1428 30.3353 16.3177 30.4091 16.5 30.4091H19.25V33.2121C19.25 33.3979 19.3224 33.5762 19.4514 33.7076C19.5803 33.839 19.7552 33.9128 19.9375 33.9128H24.0625C24.2449 33.9128 24.4197 33.839 24.5487 33.7076C24.6776 33.5762 24.75 33.3979 24.75 33.2121V30.4091H27.5C27.6824 30.4091 27.8572 30.3353 27.9862 30.2039C28.1151 30.0725 28.1875 29.8942 28.1875 29.7084V25.5039C28.1875 25.3181 28.1151 25.1398 27.9862 25.0084C27.8572 24.877 27.6824 24.8032 27.5 24.8032ZM26.8125 29.0076H24.0625C23.8802 29.0076 23.7053 29.0815 23.5764 29.2129C23.4475 29.3443 23.375 29.5225 23.375 29.7084V32.5113H20.625V29.7084C20.625 29.5225 20.5526 29.3443 20.4237 29.2129C20.2947 29.0815 20.1199 29.0076 19.9375 29.0076H17.1875V26.2047H19.9375C20.1199 26.2047 20.2947 26.1308 20.4237 25.9994C20.5526 25.868 20.625 25.6898 20.625 25.5039V22.694H23.375V25.5039C23.375 25.6898 23.4475 25.868 23.5764 25.9994C23.7053 26.1308 23.8802 26.2047 24.0625 26.2047H26.8125V29.0076Z" fill="#16191E"/>
</g>
</svg>
