<svg width="44" height="44" viewBox="0 0 44 44" fill="none" xmlns="http://www.w3.org/2000/svg">
<mask id="mask0_84_123" style="mask-type:alpha" maskUnits="userSpaceOnUse" x="0" y="0" width="44" height="44">
<rect width="44" height="44" fill="#D9D9D9"/>
</mask>
<g mask="url(#mask0_84_123)">
<path d="M4.79802 10.4159C4.38533 10.4159 4.11019 10.1408 4.11019 9.72806V4.08784C4.11019 3.67514 4.38533 3.40001 4.79802 3.40001H10.1631C10.5758 3.40001 10.8509 3.67514 10.8509 4.08784V6.42647C10.8509 6.83917 10.5758 7.1143 10.1631 7.1143C9.75041 7.1143 9.47528 6.83917 9.47528 6.42647V4.77567H5.48586V9.72806C5.48586 10.1408 5.14194 10.4159 4.79802 10.4159ZM38.7081 41.2995H5.27951C4.86681 41.2995 4.59167 41.0244 4.59167 40.6117V20.7334C4.59167 20.3207 4.86681 20.0455 5.27951 20.0455C5.6922 20.0455 5.96734 20.3207 5.96734 20.7334V39.9238H38.089V20.7334C38.089 20.3207 38.3642 20.0455 38.7769 20.0455C39.1896 20.0455 39.4647 20.3207 39.4647 20.7334V40.6117C39.3959 41.0244 39.1208 41.2995 38.7081 41.2995ZM2.80331 19.4953C1.84035 19.4953 0.94617 19.0138 0.395905 18.1884C-0.360709 16.8127 -0.0167934 15.0931 1.29009 14.2677L4.38533 12.273L9.75041 8.97144L20.5494 2.36827C21.4435 1.818 22.6128 1.818 23.507 2.36827L42.6287 14.1302C43.2478 14.5429 43.7293 15.1619 43.9356 15.9185C44.0732 16.6752 44.0044 17.4318 43.5917 18.0508C43.1102 18.8762 42.216 19.4265 41.1843 19.4265C40.634 19.4265 40.1525 19.2889 39.6711 19.0138L38.3642 18.1884L21.9938 8.21483L4.31654 19.0138C3.83506 19.2889 3.35358 19.4953 2.80331 19.4953ZM22.0626 3.33123C21.7875 3.33123 21.5123 3.40001 21.306 3.53758L5.14194 13.4423L2.0467 15.3683C1.35887 15.781 1.15252 16.6752 1.56522 17.363C1.97792 17.982 2.94088 18.1884 3.55993 17.8445L4.86681 17.0191L21.5811 6.77038C21.7875 6.63282 22.0626 6.63282 22.2689 6.77038L38.9832 16.9503L40.2901 17.7757C40.4965 17.9132 40.8404 17.982 41.1155 17.982C41.597 17.982 42.0785 17.7069 42.3536 17.2942C42.5599 16.9503 42.6287 16.5376 42.56 16.1937C42.4912 15.8498 42.216 15.5058 41.9409 15.2995L22.8192 3.60636C22.6128 3.46879 22.3377 3.33123 22.0626 3.33123Z" fill="#16191E"/>
<path d="M11.1945 4.77556H3.76596C3.35326 4.77556 3.07812 4.50043 3.07812 4.08773C3.07812 3.67503 3.35326 3.3999 3.76596 3.3999H11.1945C11.6072 3.3999 11.8824 3.67503 11.8824 4.08773C11.8824 4.50043 11.5384 4.77556 11.1945 4.77556ZM27.1522 41.2994H16.8347C16.422 41.2994 16.1469 41.0243 16.1469 40.6116V29.5375C16.1469 26.3047 18.7607 23.6909 21.9935 23.6909C25.2263 23.6909 27.84 26.3047 27.84 29.5375V40.6116C27.84 41.0243 27.5649 41.2994 27.1522 41.2994ZM17.5226 39.9237H26.4644V29.5375C26.4644 27.0613 24.4697 25.0666 21.9935 25.0666C19.5861 25.0666 17.5226 27.1301 17.5226 29.5375V39.9237ZM35.6813 34.0772H29.6284C29.2157 34.0772 28.9406 33.802 28.9406 33.3893V26.3735C28.9406 24.31 30.5914 22.6592 32.6549 22.6592C34.7184 22.6592 36.3691 24.31 36.3691 26.3735V33.3893C36.3691 33.802 36.094 34.0772 35.6813 34.0772ZM30.3162 32.7015H34.9935V26.3735C34.9935 25.0666 33.9617 24.0348 32.6549 24.0348C31.4168 24.0348 30.3162 25.1354 30.3162 26.3735V32.7015ZM14.2898 34.0772H8.23686C7.82416 34.0772 7.54903 33.802 7.54903 33.3893V26.3735C7.54903 24.31 9.19982 22.6592 11.2633 22.6592C13.3268 22.6592 14.9776 24.31 14.9776 26.3735V33.3893C14.9776 33.802 14.6337 34.0772 14.2898 34.0772ZM8.92469 32.7015H13.6019V26.3735C13.6019 25.0666 12.5702 24.0348 11.2633 24.0348C10.0252 24.0348 8.92469 25.1354 8.92469 26.3735V32.7015ZM21.9935 21.9026C20.7712 21.9026 19.5991 21.417 18.7348 20.5528C17.8705 19.6885 17.385 18.5163 17.385 17.2941C17.385 16.0718 17.8705 14.8997 18.7348 14.0354C19.5991 13.1712 20.7712 12.6856 21.9935 12.6856C24.5385 12.7544 26.6019 14.8179 26.6019 17.2941C26.6019 19.8391 24.5385 21.9026 21.9935 21.9026ZM21.9935 14.0613C20.2051 14.0613 18.7607 15.5057 18.7607 17.2941C18.7607 19.0825 20.2051 20.5269 21.9935 20.5269C23.7818 20.5269 25.2263 19.0825 25.2263 17.2941C25.2263 15.5745 23.7818 14.1301 21.9935 14.0613Z" fill="#16191E"/>
<path d="M41.1153 41.2995H2.87191C2.45921 41.2995 2.18408 41.0244 2.18408 40.6117C2.18408 40.199 2.45921 39.9238 2.87191 39.9238H41.1841C41.5968 39.9238 41.8719 40.199 41.8719 40.6117C41.8719 41.0244 41.528 41.2995 41.1153 41.2995Z" fill="#16191E"/>
</g>
</svg>
