<svg width="44" height="44" viewBox="0 0 44 44" fill="none" xmlns="http://www.w3.org/2000/svg">
<mask id="mask0_87_145" style="mask-type:alpha" maskUnits="userSpaceOnUse" x="0" y="0" width="44" height="44">
<rect width="44" height="44" fill="#D9D9D9"/>
</mask>
<g mask="url(#mask0_87_145)">
<path d="M33.9425 43.0221H10.0568C9.89009 43.0221 9.73021 42.9544 9.61233 42.834C9.49445 42.7136 9.42822 42.5502 9.42822 42.3799V3.85257C9.42822 3.68227 9.49445 3.51894 9.61233 3.39852C9.73021 3.2781 9.89009 3.21045 10.0568 3.21045H33.9425C34.1092 3.21045 34.2691 3.2781 34.387 3.39852C34.5049 3.51894 34.5711 3.68227 34.5711 3.85257V42.3799C34.5711 42.5502 34.5049 42.7136 34.387 42.834C34.2691 42.9544 34.1092 43.0221 33.9425 43.0221ZM10.6854 41.7378H33.3139V4.49469H10.6854V41.7378Z" fill="#16191E"/>
<path d="M28.9143 4.49486H15.0857C14.919 4.49486 14.7591 4.42721 14.6412 4.30679C14.5234 4.18636 14.4571 4.02304 14.4571 3.85274V0.642123C14.4571 0.471821 14.5234 0.308495 14.6412 0.188073C14.7591 0.067652 14.919 0 15.0857 0H28.9143C29.081 0 29.2409 0.067652 29.3588 0.188073C29.4766 0.308495 29.5429 0.471821 29.5429 0.642123V3.85274C29.5429 4.02304 29.4766 4.18636 29.3588 4.30679C29.2409 4.42721 29.081 4.49486 28.9143 4.49486ZM15.7143 3.21061H28.2857V1.28425H15.7143V3.21061ZM43.3714 43.0222H33.9429C33.7761 43.0222 33.6163 42.9546 33.4984 42.8341C33.3805 42.7137 33.3143 42.5504 33.3143 42.3801V11.5582C33.3143 11.3879 33.3805 11.2246 33.4984 11.1042C33.6163 10.9837 33.7761 10.9161 33.9429 10.9161H43.3714C43.5381 10.9161 43.698 10.9837 43.8159 11.1042C43.9338 11.2246 44 11.3879 44 11.5582V42.3801C44 42.5504 43.9338 42.7137 43.8159 42.8341C43.698 42.9546 43.5381 43.0222 43.3714 43.0222ZM34.5714 41.738H42.7429V12.2003H34.5714V41.738ZM10.0571 43.0222H0.628571C0.461864 43.0222 0.301984 42.9546 0.184104 42.8341C0.0662243 42.7137 0 42.5504 0 42.3801V11.5582C0 11.3879 0.0662243 11.2246 0.184104 11.1042C0.301984 10.9837 0.461864 10.9161 0.628571 10.9161H10.0571C10.2239 10.9161 10.3837 10.9837 10.5016 11.1042C10.6195 11.2246 10.6857 11.3879 10.6857 11.5582V42.3801C10.6857 42.5504 10.6195 42.7137 10.5016 42.8341C10.3837 42.9546 10.2239 43.0222 10.0571 43.0222ZM1.25714 41.738H9.42857V12.2003H1.25714V41.738ZM28.4429 13.003H25.7714C25.438 13.003 25.1183 12.8677 24.8825 12.6268C24.6467 12.386 24.5143 12.0593 24.5143 11.7187V8.98972C24.5143 8.64911 24.6467 8.32246 24.8825 8.08162C25.1183 7.84078 25.438 7.70547 25.7714 7.70547H28.4429C28.7763 7.70547 29.096 7.84078 29.3318 8.08162C29.5676 8.32246 29.7 8.64911 29.7 8.98972V11.7187C29.7 12.0593 29.5676 12.386 29.3318 12.6268C29.096 12.8677 28.7763 13.003 28.4429 13.003ZM25.7714 8.98972V11.7187H28.4429V8.98972H25.7714ZM18.2286 13.003H15.5571C15.2237 13.003 14.904 12.8677 14.6682 12.6268C14.4324 12.386 14.3 12.0593 14.3 11.7187V8.98972C14.3 8.64911 14.4324 8.32246 14.6682 8.08162C14.904 7.84078 15.2237 7.70547 15.5571 7.70547H18.2286C18.562 7.70547 18.8817 7.84078 19.1175 8.08162C19.3533 8.32246 19.4857 8.64911 19.4857 8.98972V11.7187C19.4857 12.0593 19.3533 12.386 19.1175 12.6268C18.8817 12.8677 18.562 13.003 18.2286 13.003ZM18.2286 8.98972H15.5571V11.7187H18.2286V8.98972ZM28.4429 20.9493H25.7714C25.438 20.9493 25.1183 20.8139 24.8825 20.5731C24.6467 20.3323 24.5143 20.0056 24.5143 19.665V16.936C24.5143 16.5954 24.6467 16.2687 24.8825 16.0279C25.1183 15.787 25.438 15.6517 25.7714 15.6517H28.4429C28.7763 15.6517 29.096 15.787 29.3318 16.0279C29.5676 16.2687 29.7 16.5954 29.7 16.936V19.665C29.7 20.0056 29.5676 20.3323 29.3318 20.5731C29.096 20.8139 28.7763 20.9493 28.4429 20.9493ZM25.7714 16.936V19.665H28.4429V16.936H25.7714ZM18.2286 20.9493H15.5571C15.2237 20.9493 14.904 20.8139 14.6682 20.5731C14.4324 20.3323 14.3 20.0056 14.3 19.665V16.936C14.3 16.5954 14.4324 16.2687 14.6682 16.0279C14.904 15.787 15.2237 15.6517 15.5571 15.6517H18.2286C18.562 15.6517 18.8817 15.787 19.1175 16.0279C19.3533 16.2687 19.4857 16.5954 19.4857 16.936V19.665C19.4857 20.0056 19.3533 20.3323 19.1175 20.5731C18.8817 20.8139 18.562 20.9493 18.2286 20.9493ZM18.2286 16.9353H15.5571V19.6644H18.2286V16.9353ZM28.4429 28.8955H25.7714C25.438 28.8955 25.1183 28.7602 24.8825 28.5194C24.6467 28.2785 24.5143 27.9519 24.5143 27.6113V24.8823C24.5143 24.5416 24.6467 24.215 24.8825 23.9742C25.1183 23.7333 25.438 23.598 25.7714 23.598H28.4429C28.7763 23.598 29.096 23.7333 29.3318 23.9742C29.5676 24.215 29.7 24.5416 29.7 24.8823V27.6113C29.7 27.9519 29.5676 28.2785 29.3318 28.5194C29.096 28.7602 28.7763 28.8955 28.4429 28.8955ZM25.7714 24.8823V27.6113H28.4429V24.8823H25.7714ZM18.2286 28.8955H15.5571C15.2237 28.8955 14.904 28.7602 14.6682 28.5194C14.4324 28.2785 14.3 27.9519 14.3 27.6113V24.8823C14.3 24.5416 14.4324 24.215 14.6682 23.9742C14.904 23.7333 15.2237 23.598 15.5571 23.598H18.2286C18.562 23.598 18.8817 23.7333 19.1175 23.9742C19.3533 24.215 19.4857 24.5416 19.4857 24.8823V27.6113C19.4857 27.9519 19.3533 28.2785 19.1175 28.5194C18.8817 28.7602 18.562 28.8955 18.2286 28.8955ZM18.2286 24.8816H15.5571V27.6113H18.2286V24.8816ZM25.9022 43.0222H18.0978C17.9311 43.0222 17.7712 42.9546 17.6534 42.8341C17.5355 42.7137 17.4693 42.5504 17.4693 42.3801V32.1061C17.4693 31.9358 17.5355 31.7725 17.6534 31.6521C17.7712 31.5317 17.9311 31.464 18.0978 31.464H25.9022C26.0689 31.464 26.2288 31.5317 26.3466 31.6521C26.4645 31.7725 26.5307 31.9358 26.5307 32.1061V42.3801C26.5307 42.5504 26.4645 42.7137 26.3466 42.8341C26.2288 42.9546 26.0689 43.0222 25.9022 43.0222ZM18.7264 41.738H25.2736V32.7483H18.7264V41.738Z" fill="#16191E"/>
<path d="M39.6388 21.1901H37.6752C37.3418 21.1901 37.022 21.0548 36.7863 20.814C36.5505 20.5731 36.418 20.2465 36.418 19.9059V17.8992C36.418 17.5586 36.5505 17.232 36.7863 16.9911C37.022 16.7503 37.3418 16.615 37.6752 16.615H39.6388C39.9723 16.615 40.292 16.7503 40.5278 16.9911C40.7635 17.232 40.896 17.5586 40.896 17.8992V19.9059C40.896 20.2465 40.7635 20.5731 40.5278 20.814C40.292 21.0548 39.9723 21.1901 39.6388 21.1901ZM37.6752 17.8992V19.9059H39.6388V17.8992H37.6752ZM39.6388 29.2565H37.6752C37.3418 29.2565 37.022 29.1212 36.7863 28.8803C36.5505 28.6395 36.418 28.3128 36.418 27.9722V25.9662C36.418 25.6256 36.5505 25.299 36.7863 25.0581C37.022 24.8173 37.3418 24.682 37.6752 24.682H39.6388C39.9723 24.682 40.292 24.8173 40.5278 25.0581C40.7635 25.299 40.896 25.6256 40.896 25.9662V27.9722C40.896 28.3128 40.7635 28.6395 40.5278 28.8803C40.292 29.1212 39.9723 29.2565 39.6388 29.2565ZM37.6752 25.9662V27.9722H39.6388V25.9662H37.6752ZM39.6388 37.3234H37.6752C37.3418 37.3234 37.022 37.1881 36.7863 36.9473C36.5505 36.7065 36.418 36.3798 36.418 36.0392V34.0326C36.418 33.692 36.5505 33.3653 36.7863 33.1245C37.022 32.8836 37.3418 32.7483 37.6752 32.7483H39.6388C39.9723 32.7483 40.292 32.8836 40.5278 33.1245C40.7635 33.3653 40.896 33.692 40.896 34.0326V36.0392C40.896 36.3798 40.7635 36.7065 40.5278 36.9473C40.292 37.1881 39.9723 37.3234 39.6388 37.3234ZM37.6752 34.0326V36.0392H39.6388V34.0326H37.6752ZM6.32456 21.1901H4.3609C4.02749 21.1901 3.70773 21.0548 3.47197 20.814C3.23621 20.5731 3.10376 20.2465 3.10376 19.9059V17.8992C3.10376 17.5586 3.23621 17.232 3.47197 16.9911C3.70773 16.7503 4.02749 16.615 4.3609 16.615H6.32456C6.65797 16.615 6.97773 16.7503 7.21349 16.9911C7.44925 17.232 7.5817 17.5586 7.5817 17.8992V19.9059C7.5817 20.2465 7.44925 20.5731 7.21349 20.814C6.97773 21.0548 6.65797 21.1901 6.32456 21.1901ZM4.3609 17.8992V19.9059H6.32456V17.8992H4.3609ZM6.32456 29.2565H4.3609C4.02749 29.2565 3.70773 29.1212 3.47197 28.8803C3.23621 28.6395 3.10376 28.3128 3.10376 27.9722V25.9662C3.10376 25.6256 3.23621 25.299 3.47197 25.0581C3.70773 24.8173 4.02749 24.682 4.3609 24.682H6.32456C6.65797 24.682 6.97773 24.8173 7.21349 25.0581C7.44925 25.299 7.5817 25.6256 7.5817 25.9662V27.9722C7.5817 28.3128 7.44925 28.6395 7.21349 28.8803C6.97773 29.1212 6.65797 29.2565 6.32456 29.2565ZM4.3609 25.9662V27.9722H6.32456V25.9662H4.3609ZM6.32456 37.3234H4.3609C4.02749 37.3234 3.70773 37.1881 3.47197 36.9473C3.23621 36.7065 3.10376 36.3798 3.10376 36.0392V34.0326C3.10376 33.692 3.23621 33.3653 3.47197 33.1245C3.70773 32.8836 4.02749 32.7483 4.3609 32.7483H6.32456C6.65797 32.7483 6.97773 32.8836 7.21349 33.1245C7.44925 33.3653 7.5817 33.692 7.5817 34.0326V36.0392C7.5817 36.3798 7.44925 36.7065 7.21349 36.9473C6.97773 37.1881 6.65797 37.3234 6.32456 37.3234ZM4.3609 34.0326V36.0392H6.32456V34.0326H4.3609Z" fill="#16191E"/>
</g>
</svg>
