<svg width="44" height="44" viewBox="0 0 44 44" fill="none" xmlns="http://www.w3.org/2000/svg">
<mask id="mask0_86_129" style="mask-type:alpha" maskUnits="userSpaceOnUse" x="0" y="0" width="44" height="44">
<rect width="44" height="44" fill="#D9D9D9"/>
</mask>
<g mask="url(#mask0_86_129)">
<path d="M3.5483 37.613C3.94024 37.613 4.25798 37.2952 4.25798 36.9033C4.25798 36.5113 3.94024 36.1936 3.5483 36.1936C3.15636 36.1936 2.83862 36.5113 2.83862 36.9033C2.83862 37.2952 3.15636 37.613 3.5483 37.613Z" fill="#16191E"/>
<path d="M13.4841 20.5806H14.9035V21.9999H13.4841V20.5806ZM19.1616 20.5806H20.5809V21.9999H19.1616V20.5806ZM16.3228 20.5806H17.7422V21.9999H16.3228V20.5806ZM13.4841 23.4193H14.9035V24.8386H13.4841V23.4193ZM16.3228 23.4193H17.7422V24.8386H16.3228V23.4193ZM19.1616 23.4193H20.5809V24.8386H19.1616V23.4193ZM13.4841 26.258H14.9035V27.6773H13.4841V26.258ZM19.1616 26.258H20.5809V27.6773H19.1616V26.258ZM16.3228 26.258H17.7422V27.6773H16.3228V26.258ZM13.4841 29.0967H14.9035V30.5161H13.4841V29.0967ZM19.1616 29.0967H20.5809V30.5161H19.1616V29.0967ZM16.3228 29.0967H17.7422V30.5161H16.3228V29.0967Z" fill="#16191E"/>
<path d="M44 35.4839V32.3946L43.8432 32.2002C42.5998 30.6566 40.6397 29.8064 38.3226 29.8064C38.0472 29.8064 37.7761 29.8292 37.5072 29.8604C38.7218 27.9863 39.5818 25.9051 40.0443 23.7203L41.871 23.2639V16.478L40.0443 16.021C39.5796 13.8175 38.711 11.7191 37.4823 9.83187L38.4496 8.21806L33.6522 3.41994L32.0384 4.38865C30.1515 3.15922 28.053 2.29032 25.8493 1.826L25.393 0H18.6063L18.15 1.82671C15.9463 2.29103 13.8478 3.15993 11.9609 4.38935L10.3478 3.42065L5.55039 8.21877L6.51768 9.83258C5.28901 11.7198 4.42039 13.8182 3.95574 16.0217L2.12903 16.478V23.2639L3.95574 23.7203C4.42008 25.9238 5.28872 28.0223 6.51768 29.9094L5.55039 31.5232L7.38206 33.3548H3.54839C1.59181 33.3548 0 34.9466 0 36.9032C0 38.8598 1.59181 40.4516 3.54839 40.4516H32.1832C33.4514 42.6516 35.7649 44 38.3226 44C40.6354 44 42.5955 43.1505 43.8424 41.6077L44 41.4125V38.3226H38.3226V35.4839H44ZM7.33735 31.3025L8.20103 29.8632L7.94413 29.4878C6.60574 27.5407 5.69199 25.3339 5.26226 23.0106L5.17852 22.5628L3.54839 22.1554V17.5865L5.17781 17.1792L5.26155 16.7314C5.69148 14.4083 6.60521 12.2017 7.94342 10.2548L8.20032 9.87942L7.33665 8.44019L10.5678 5.20903L12.007 6.07271L12.3825 5.8151C14.3294 4.47648 16.5363 3.56271 18.8597 3.13323L19.3075 3.04948L19.7155 1.41935H24.2845L24.6918 3.04877L25.1396 3.13252C27.463 3.562 29.6699 4.47577 31.6168 5.81439L31.9923 6.072L33.4315 5.20832L36.6626 8.43948L35.799 9.87871L36.0559 10.2541C37.3942 12.2009 38.308 14.4076 38.7377 16.7306L38.8215 17.1785L40.4516 17.5865V22.1554L38.8222 22.5628L38.7384 23.0106C38.3111 25.3201 37.4056 27.5148 36.08 29.4537L35.0751 30.6041C33.8667 31.224 32.8627 32.179 32.1832 33.3548H29.8682C32.2288 31.9845 34.1871 30.0171 35.5466 27.6502C36.906 25.2834 37.6187 22.6004 37.6129 19.871C37.6129 11.2619 30.6091 4.25806 22 4.25806C13.3909 4.25806 6.3871 11.2619 6.3871 19.871C6.3871 25.5434 9.39045 30.607 14.1226 33.3548H9.38903L7.33735 31.3025ZM17.578 33.3548C15.5093 32.6831 13.6229 31.5445 12.0645 30.0272V19.1613H22V33.3548H17.578ZM23.4194 23.4194H31.9355V24.8387H23.4194V23.4194ZM26.747 14.9032H28.6071L29.0506 22H26.3035L26.747 14.9032ZM26.8357 13.4839L26.9244 12.0645H28.4297L28.5184 13.4839H26.8357ZM30.4728 22L29.7632 10.6452H25.591L24.8813 22H23.4194V17.7419H20.5806V14.9032H19.1613V17.7419H17.7419V13.4839H16.3226V17.7419H14.9032V14.9032H13.4839V17.7419H10.6452V28.4091C8.79638 25.9471 7.79988 22.9498 7.80645 19.871C7.80645 12.0446 14.1737 5.67742 22 5.67742C29.8263 5.67742 36.1935 12.0446 36.1935 19.871C36.1975 22.9462 35.2012 25.9392 33.3548 28.3985V22H30.4728ZM23.4194 26.2581H31.9355V30.0179C31.4896 30.4533 31.0154 30.8586 30.5161 31.2315V27.6774H24.8387V33.3548H23.4194V26.2581ZM26.2581 29.0968H29.0968V32.1604C28.2519 32.6487 27.3592 33.0489 26.4326 33.3548H26.2581V29.0968ZM42.5806 39.7419V40.9008C41.3408 42.2833 39.5943 42.5806 38.3226 42.5806C37.2654 42.5833 36.2287 42.289 35.3306 41.7313C34.4325 41.1736 33.7091 40.3749 33.2427 39.4261L33.0461 39.0323H3.54839C2.37458 39.0323 1.41935 38.077 1.41935 36.9032C1.41935 35.7294 2.37458 34.7742 3.54839 34.7742H17.336L17.3573 34.782L17.3594 34.7742H33.0461L33.242 34.3803C33.7086 33.4316 34.4322 32.633 35.3304 32.0753C36.2286 31.5176 37.2653 31.2233 38.3226 31.2258C39.5972 31.2258 41.3451 31.5232 42.5806 32.9049V34.0645H36.9032V39.7419H42.5806Z" fill="#16191E"/>
</g>
</svg>
