<svg width="44" height="44" viewBox="0 0 44 44" fill="none" xmlns="http://www.w3.org/2000/svg">
<mask id="mask0_87_151" style="mask-type:alpha" maskUnits="userSpaceOnUse" x="0" y="0" width="44" height="44">
<rect width="44" height="44" fill="#D9D9D9"/>
</mask>
<g mask="url(#mask0_87_151)">
<path d="M43.5296 19.32L23.0713 0.41697C22.4753 -0.13899 21.5247 -0.13899 20.9287 0.41697L0.471236 19.3193C0.32218 19.4569 0.203634 19.6219 0.122671 19.8044C0.0417077 19.9869 -1.25054e-05 20.1831 2.81173e-09 20.3814C2.81173e-09 21.1967 0.690658 21.8575 1.54251 21.8575H4.26118V42.5238C4.26118 43.3391 4.95174 44 5.80369 44H16.6012C17.4532 44 18.1437 43.3391 18.1437 42.5238V30.7145H25.8563V42.5238C25.8563 43.3391 26.5469 44 27.3988 44H38.1964C39.0483 44 39.7389 43.3391 39.7389 42.5238V21.8575H42.4575C42.8757 21.8575 43.2759 21.6951 43.5666 21.4073C44.1586 20.8211 44.142 19.8866 43.5296 19.32ZM39.7389 20.3814C38.8869 20.3814 38.1964 21.0422 38.1964 21.8575V42.5238H27.3988V30.7145C27.3988 29.8992 26.7082 29.2383 25.8563 29.2383H18.1437C17.2918 29.2383 16.6012 29.8992 16.6012 30.7145V42.5238H5.80369V21.8575C5.80369 21.0422 5.11312 20.3814 4.26118 20.3814H1.54251L22 1.47907L42.4652 20.3814H39.7389Z" fill="#16191E"/>
</g>
</svg>
