<svg width="34" height="34" viewBox="0 0 34 34" fill="none" xmlns="http://www.w3.org/2000/svg">
<path d="M34 12.4189C33.999 12.2438 33.9558 12.0716 33.8739 11.9168C33.792 11.762 33.6739 11.6292 33.5297 11.5298C33.3734 11.4244 33.1942 11.3577 33.007 11.335C32.8199 11.3124 32.63 11.3345 32.453 11.3996L26.6333 13.5912V10.3406L26.809 10.4595C27.0894 10.6562 27.424 10.7611 27.7667 10.7597C28.1291 10.7593 28.482 10.6432 28.7738 10.4283C29.0656 10.2134 29.281 9.9109 29.3886 9.56498C29.4961 9.21906 29.4903 8.84783 29.3718 8.50549C29.2533 8.16315 29.0284 7.86761 28.73 7.66202L17.9633 0.300138C17.68 0.104964 17.3441 0.000306755 17 0C16.6559 0.000306755 16.32 0.104964 16.0367 0.300138L5.27 7.66202C5.0846 7.78767 4.92588 7.9487 4.80296 8.13586C4.68004 8.32301 4.59534 8.5326 4.55374 8.75257C4.51214 8.97255 4.51445 9.19857 4.56055 9.41765C4.60664 9.63673 4.69561 9.84454 4.82233 10.0291C4.98019 10.2566 5.19125 10.442 5.43716 10.5693C5.68307 10.6966 5.95639 10.762 6.23333 10.7597C6.57491 10.7599 6.90863 10.6573 7.191 10.4652L7.36667 10.3406V13.7384L1.55833 11.4109C1.38647 11.3414 1.20018 11.3152 1.0158 11.3344C0.831408 11.3536 0.654551 11.4177 0.500731 11.5211C0.34691 11.6245 0.220823 11.7641 0.133523 11.9275C0.0462226 12.091 0.000375222 12.2733 0 12.4586L0 27.7486C0 28.049 0.119404 28.3371 0.331946 28.5495C0.544487 28.7619 0.832755 28.8812 1.13333 28.8812H1.55833C1.86916 28.8793 2.1735 28.7922 2.43826 28.6294C2.70302 28.4667 2.91806 28.2345 3.06 27.9581L3.536 27.0124L4.53333 27.4768C4.43058 27.7487 4.39542 28.0414 4.43088 28.3299C4.46633 28.6184 4.57134 28.8939 4.73688 29.1329C4.90242 29.3718 5.12354 29.5671 5.38124 29.7018C5.63894 29.8365 5.92551 29.9066 6.21633 29.9062C6.43751 29.9048 6.65651 29.8625 6.86233 29.7816C7.00635 30.151 7.25877 30.4681 7.58644 30.6915C7.9141 30.9148 8.3017 31.0339 8.69833 31.0331C8.93463 31.0331 9.16867 30.9912 9.38967 30.9086C9.52732 31.2927 9.78024 31.625 10.1139 31.8601C10.4476 32.0953 10.8457 32.2218 11.254 32.2224C11.458 32.2213 11.6606 32.1888 11.8547 32.1261V32.1544C11.9318 32.3642 12.0496 32.5567 12.2012 32.721C12.3529 32.8852 12.5356 33.0179 12.7387 33.1115C13.0994 33.2763 13.5064 33.31 13.8893 33.2065C14.2722 33.1031 14.6068 32.8692 14.8353 32.5452L16.1783 33.6268C16.4238 33.8122 16.7118 33.9333 17.0161 33.9793C17.3203 34.0252 17.6313 33.9945 17.9206 33.8898C18.21 33.7852 18.4686 33.61 18.673 33.3801C18.8774 33.1502 19.0211 32.873 19.091 32.5735C19.3888 32.6601 19.7046 32.6637 20.0042 32.5838C20.3039 32.504 20.5759 32.3437 20.791 32.1204C21.0751 31.8405 21.2516 31.4697 21.2897 31.0728C21.3707 31.0785 21.4523 31.0785 21.5333 31.0728C22.0337 31.0739 22.5177 30.8948 22.8965 30.5682C23.2754 30.2416 23.5237 29.7894 23.596 29.2946C23.8207 29.3704 24.0559 29.4106 24.293 29.4135C24.5782 29.4143 24.8608 29.3587 25.1244 29.25C25.3881 29.1412 25.6276 28.9815 25.8293 28.7799C26.031 28.5784 26.1908 28.339 26.2996 28.0755C26.4085 27.812 26.4641 27.5297 26.4633 27.2446C26.4617 26.9605 26.4039 26.6795 26.2933 26.4178L29.8973 24.9171L30.9513 26.8652C31.0977 27.1325 31.3132 27.3555 31.5754 27.5109C31.8376 27.6663 32.1368 27.7484 32.4417 27.7486H32.8667C33.1605 27.7488 33.4429 27.6349 33.6544 27.431C33.8658 27.2271 33.9897 26.9491 34 26.6557V12.4189ZM6.55067 9.5308C6.42667 9.61565 6.27404 9.6478 6.12632 9.62019C5.97861 9.59258 5.84792 9.50746 5.763 9.38356C5.7209 9.32108 5.6917 9.25083 5.6771 9.17693C5.66251 9.10303 5.66281 9.02696 5.678 8.95318C5.70607 8.80859 5.78941 8.68061 5.91033 8.59641L16.677 1.23453C16.7707 1.16634 16.8841 1.13055 17 1.1326C17.1155 1.13287 17.2283 1.16844 17.323 1.23453L28.0897 8.59641C28.212 8.6812 28.2961 8.81072 28.3237 8.95696C28.3513 9.10321 28.3201 9.25442 28.237 9.3779C28.1521 9.5018 28.0214 9.58692 27.8737 9.61453C27.726 9.64214 27.5733 9.60999 27.4493 9.52514L17.323 2.60497C17.2281 2.53921 17.1154 2.50397 17 2.50397C16.8846 2.50397 16.7719 2.53921 16.677 2.60497L6.55067 9.5308ZM17 3.75456L25.5 9.57044V14.1575C25.2181 14.3887 25.0262 14.7114 24.9579 15.0695C24.8895 15.4275 24.949 15.7981 25.126 16.1169L25.6927 17.1702L24.1627 17.7365C23.9051 17.8365 23.6271 17.8722 23.3526 17.8407C23.0781 17.8091 22.8154 17.7111 22.5873 17.5553L19.8333 15.5222V12.4586C19.8333 12.1582 19.7139 11.8701 19.5014 11.6577C19.2888 11.4453 19.0006 11.326 18.7 11.326H15.3C14.9994 11.326 14.7112 11.4453 14.4986 11.6577C14.2861 11.8701 14.1667 12.1582 14.1667 12.4586V16.1565C13.9524 16.4539 13.7629 16.7683 13.6 17.0965C12.9876 17.1525 12.3798 17.2509 11.781 17.391C11.448 17.4737 11.1087 17.5287 10.7667 17.5553C10.0155 17.4657 9.28421 17.2533 8.602 16.9267L8.874 16.3604C9.04548 16.0269 9.10178 15.6462 9.03413 15.2774C8.96648 14.9087 8.77869 14.5726 8.5 14.3217V9.57044L17 3.75456ZM18.7 14.7521C18.1647 14.4779 17.564 14.3566 16.9641 14.4015C16.3643 14.4465 15.7884 14.656 15.3 15.0069V12.4586H18.7V14.7521ZM1.55833 27.7486H1.13333V12.4586L7.582 15.0749C7.65625 15.1049 7.72327 15.1504 7.77865 15.2082C7.83403 15.2661 7.87651 15.335 7.90329 15.4104C7.93006 15.4859 7.94052 15.5662 7.93398 15.646C7.92744 15.7258 7.90404 15.8033 7.86533 15.8733L2.05133 27.4485C2.00361 27.5381 1.93267 27.6132 1.84594 27.666C1.75921 27.7188 1.65988 27.7473 1.55833 27.7486ZM5.916 28.6943C5.75552 28.6204 5.63086 28.4859 5.56927 28.3204C5.50769 28.1549 5.51418 27.9717 5.58733 27.8109L6.23333 26.4518C6.30734 26.2914 6.44187 26.1668 6.60752 26.1053C6.77317 26.0437 6.95646 26.0502 7.11733 26.1233C7.2794 26.1947 7.40463 26.33 7.463 26.4971C7.5307 26.6622 7.5307 26.8473 7.463 27.0124L6.8 28.3715C6.76342 28.451 6.71148 28.5224 6.64716 28.5816C6.58285 28.6409 6.50743 28.6869 6.42525 28.7169C6.34308 28.7469 6.25577 28.7603 6.16837 28.7565C6.08097 28.7526 5.9952 28.7315 5.916 28.6943ZM8.97033 29.8269C8.86816 29.8702 8.75831 29.8925 8.64733 29.8925C8.53635 29.8925 8.42651 29.8702 8.32433 29.8269C8.22236 29.7815 8.13063 29.716 8.05466 29.6343C7.9787 29.5525 7.92008 29.4562 7.88233 29.3512C7.79759 29.1424 7.79759 28.9088 7.88233 28.7L8.857 26.616C8.95089 26.4116 9.12207 26.2528 9.333 26.1743C9.54535 26.0997 9.77802 26.1078 9.98467 26.197C10.1898 26.2932 10.3485 26.466 10.4267 26.6783C10.4701 26.7814 10.4925 26.8921 10.4925 27.0039C10.4925 27.1158 10.4701 27.2265 10.4267 27.3296L9.452 29.3909C9.35577 29.5957 9.18273 29.7543 8.97033 29.8326V29.8269ZM10.897 30.9595C10.6924 30.8635 10.5337 30.6909 10.4552 30.4791C10.3768 30.2672 10.3848 30.0329 10.4777 29.8269L11.1917 28.3149C11.2871 28.1116 11.4577 27.9532 11.6677 27.8732C11.7623 27.8398 11.8619 27.8226 11.9623 27.8222C12.0859 27.8201 12.2083 27.8473 12.3193 27.9015C12.525 27.9938 12.6843 28.1654 12.7613 28.3772C12.8407 28.589 12.8299 28.8246 12.733 29.0285L12.0757 30.4669L12.0303 30.5631C11.9839 30.6654 11.9177 30.7575 11.8354 30.834C11.7532 30.9105 11.6566 30.97 11.5512 31.009C11.4458 31.048 11.3337 31.0656 11.2214 31.061C11.1091 31.0564 10.9989 31.0296 10.897 30.9822V30.9595ZM13.2147 32.0242C13.0783 31.9616 12.9723 31.8476 12.92 31.707C12.8912 31.638 12.8763 31.5639 12.8763 31.489C12.8763 31.4142 12.8912 31.3401 12.92 31.271L13.0957 30.8916L13.6227 29.759C13.6726 29.6593 13.7509 29.5766 13.8476 29.5212C13.9444 29.4658 14.0554 29.4402 14.1667 29.4475C14.2488 29.4471 14.33 29.4645 14.4047 29.4985C14.4737 29.529 14.5359 29.5731 14.5877 29.628C14.6395 29.6829 14.6797 29.7476 14.7061 29.8183C14.7325 29.889 14.7445 29.9643 14.7414 30.0396C14.7383 30.115 14.7201 30.189 14.688 30.2573L13.9797 31.792C13.9476 31.8602 13.9021 31.9214 13.8461 31.9718C13.79 32.0223 13.7244 32.061 13.6532 32.0858C13.5819 32.1106 13.5064 32.121 13.4311 32.1162C13.3558 32.1114 13.2822 32.0917 13.2147 32.0582V32.0242ZM25.024 27.9525C24.8394 28.1387 24.5907 28.2476 24.3286 28.2571C24.0665 28.2666 23.8106 28.1759 23.613 28.0035L20.859 25.591L20.2073 25.0247C20.1502 24.9731 20.0825 24.9344 20.009 24.9115C19.9807 24.9087 19.9523 24.9087 19.924 24.9115C19.8093 24.8893 19.6905 24.9032 19.584 24.9511C19.5183 24.9863 19.4589 25.0322 19.4083 25.087C19.359 25.14 19.321 25.2025 19.2966 25.2706C19.2723 25.3388 19.2621 25.4112 19.2667 25.4834C19.2643 25.5003 19.2643 25.5175 19.2667 25.5344C19.2853 25.6626 19.3473 25.7805 19.4423 25.8685L22.1453 28.2356C22.3265 28.4093 22.4319 28.6472 22.4387 28.8979C22.4456 29.1487 22.3533 29.392 22.1819 29.5752C22.0105 29.7584 21.7737 29.8668 21.5229 29.8768C21.2721 29.8868 21.0275 29.7977 20.842 29.6287L20.7797 29.5664L18.513 27.3012C18.4063 27.1946 18.2616 27.1347 18.1107 27.1347C17.9598 27.1347 17.815 27.1946 17.7083 27.3012C17.6016 27.4079 17.5417 27.5525 17.5417 27.7033C17.5417 27.8541 17.6016 27.9988 17.7083 28.1054L19.975 30.3706C20.0343 30.4291 20.0814 30.4987 20.1135 30.5755C20.1456 30.6523 20.1621 30.7347 20.1621 30.818C20.1621 30.9012 20.1456 30.9836 20.1135 31.0604C20.0814 31.1372 20.0343 31.2069 19.975 31.2653C19.8531 31.38 19.6919 31.4439 19.5245 31.4439C19.3571 31.4439 19.1959 31.38 19.074 31.2653L18.5867 30.7727L17.952 30.1384C17.8993 30.0853 17.8366 30.0432 17.7676 30.0144C17.6985 29.9857 17.6245 29.9709 17.5497 29.9709C17.4749 29.9709 17.4008 29.9857 17.3317 30.0144C17.2627 30.0432 17.2 30.0853 17.1473 30.1384C17.0942 30.191 17.0521 30.2537 17.0233 30.3227C16.9945 30.3917 16.9797 30.4657 16.9797 30.5405C16.9797 30.6152 16.9945 30.6892 17.0233 30.7583C17.0521 30.8273 17.0942 30.8899 17.1473 30.9425L17.782 31.5768C17.9208 31.7099 17.999 31.8939 17.9973 32.0865C17.9915 32.2154 17.9514 32.3405 17.881 32.4488C17.8107 32.557 17.7126 32.6446 17.5971 32.7023C17.4816 32.76 17.3527 32.7859 17.2238 32.7772C17.0949 32.7685 16.9707 32.7255 16.864 32.6528L15.3567 31.4862L15.708 30.716C15.8032 30.5128 15.8571 30.2927 15.8667 30.0686C15.8763 29.8444 15.8414 29.6205 15.7639 29.4099C15.6865 29.1993 15.568 29.0061 15.4155 28.8415C15.2629 28.6769 15.0792 28.5441 14.875 28.4508C14.5734 28.3146 14.2386 28.2694 13.9117 28.3206C13.892 28.2072 13.8636 28.0955 13.8267 27.9865C13.6653 27.5443 13.3508 27.1745 12.9403 26.9439C12.5297 26.7134 12.0502 26.6372 11.5883 26.7293C11.5528 26.433 11.4506 26.1487 11.2894 25.8975C11.1282 25.6464 10.9122 25.4349 10.6576 25.2791C10.403 25.1233 10.1164 25.0271 9.81924 24.9977C9.52212 24.9684 9.22221 25.0067 8.942 25.1097C8.66584 25.2144 8.41623 25.3787 8.211 25.591C8.04254 25.3764 7.82485 25.2055 7.57633 25.0927C7.14272 24.8923 6.64726 24.8723 6.19885 25.0369C5.75043 25.2015 5.38576 25.5373 5.185 25.9704L4.97533 26.4348L4.046 25.9931L8.092 17.9403C8.93358 18.3422 9.83856 18.5951 10.7667 18.6878C11.1817 18.6627 11.5935 18.5982 11.9963 18.4953C12.3137 18.4273 12.6537 18.3594 13.0107 18.3028L12.0813 20.3867C11.873 20.8615 11.8556 21.3983 12.0329 21.8855C12.2102 22.3727 12.5685 22.7729 13.0333 23.003H13.09C13.4847 23.1897 13.9295 23.2427 14.357 23.1537C14.7845 23.0648 15.1713 22.8389 15.4587 22.5104L17.697 20.0186L24.9787 26.4801C25.0849 26.5734 25.1708 26.6875 25.2311 26.8154C25.2913 26.9433 25.3246 27.0822 25.3289 27.2234C25.3331 27.3647 25.3083 27.5054 25.2558 27.6366C25.2034 27.7679 25.1245 27.887 25.024 27.9865V27.9525ZM25.5907 25.4664L17.374 18.2631C17.2603 18.1716 17.1156 18.1275 16.9701 18.1399C16.8246 18.1524 16.6896 18.2205 16.5931 18.33C16.4967 18.4396 16.4463 18.5821 16.4524 18.7279C16.4585 18.8737 16.5207 19.0115 16.626 19.1126L16.83 19.2938L14.5973 21.7798C14.468 21.9275 14.2936 22.0286 14.1011 22.0675C13.9086 22.1063 13.7086 22.0809 13.532 21.995H13.4923C13.3006 21.8861 13.1558 21.7103 13.0857 21.5013C13.0156 21.2923 13.0252 21.0648 13.1127 20.8624L14.4273 17.9517C14.7373 17.2641 15.1825 16.6459 15.7363 16.1338C16.1009 15.7961 16.5716 15.5956 17.0679 15.5667C17.5641 15.5377 18.055 15.6822 18.4563 15.9753L21.9073 18.4896C22.2856 18.761 22.725 18.9349 23.1865 18.9962C23.6481 19.0574 24.1177 19.004 24.5537 18.8407L26.2537 18.2122L29.3533 23.9374L25.5907 25.4664ZM32.453 26.599C32.3533 26.6016 32.2547 26.5778 32.1671 26.5301C32.0796 26.4823 32.0062 26.4124 31.9543 26.3272L26.1347 15.5675C26.1037 15.5119 26.0851 15.4501 26.0802 15.3866C26.0753 15.3231 26.0842 15.2592 26.1063 15.1994C26.1332 15.1313 26.1744 15.0697 26.2272 15.0189C26.28 14.968 26.3431 14.9292 26.4123 14.905L32.8667 12.4189V26.616L32.453 26.599Z" fill="#1D1D1D"/>
<path d="M17.0001 10.1935C17.6012 10.1935 18.1778 9.95482 18.6028 9.53001C19.0279 9.10521 19.2667 8.52905 19.2667 7.92828C19.2667 7.32751 19.0279 6.75135 18.6028 6.32655C18.1778 5.90174 17.6012 5.66309 17.0001 5.66309C16.3989 5.66309 15.8224 5.90174 15.3973 6.32655C14.9722 6.75135 14.7334 7.32751 14.7334 7.92828C14.7334 8.52905 14.9722 9.10521 15.3973 9.53001C15.8224 9.95482 16.3989 10.1935 17.0001 10.1935ZM17.0001 6.79568C17.3006 6.79568 17.5889 6.91501 17.8015 7.12741C18.014 7.33982 18.1334 7.6279 18.1334 7.92828C18.1334 8.22866 18.014 8.51674 17.8015 8.72915C17.5889 8.94155 17.3006 9.06088 17.0001 9.06088C16.6995 9.06088 16.4112 8.94155 16.1987 8.72915C15.9861 8.51674 15.8667 8.22866 15.8667 7.92828C15.8667 7.6279 15.9861 7.33982 16.1987 7.12741C16.4112 6.91501 16.6995 6.79568 17.0001 6.79568Z" fill="#1D1D1D"/>
</svg>
