<svg width="86" height="101" viewBox="0 0 86 101" fill="none" xmlns="http://www.w3.org/2000/svg">
<path d="M27.9442 42.426C27.8602 42.5647 27.6804 42.6138 27.5359 42.5263L22.6806 39.5861C22.5419 39.5021 22.4928 39.3223 22.5803 39.1778C22.6643 39.0391 22.8441 38.99 22.9886 39.0775L27.8439 42.0177C27.9826 42.1017 28.0282 42.2873 27.9442 42.426Z" stroke="#1D1D1D" stroke-miterlimit="10"/>
<path d="M25.1368 48.5623C25.0633 48.6837 24.9136 48.7353 24.7782 48.6849L19.4871 46.6341C19.3344 46.5732 19.2632 46.4037 19.3206 46.2567C19.378 46.1098 19.551 46.0329 19.6979 46.0903L24.9891 48.1411C25.1418 48.2019 25.2129 48.3714 25.1556 48.5184C25.1543 48.5334 25.1438 48.5508 25.1368 48.5623Z" stroke="#1D1D1D" stroke-miterlimit="10"/>
<path d="M23.4359 55.1003C23.3729 55.2043 23.2533 55.2583 23.1247 55.2358L17.5597 54.133C17.3987 54.0987 17.2927 53.9476 17.327 53.7867C17.3578 53.6315 17.5124 53.5197 17.6733 53.554L23.2384 54.6568C23.3993 54.6911 23.5053 54.8422 23.471 55.0031C23.4651 55.039 23.4534 55.0714 23.4359 55.1003Z" stroke="#1D1D1D" stroke-miterlimit="10"/>
<path d="M22.9 61.8302C22.8475 61.9169 22.7487 61.9756 22.6398 61.9728L16.9676 61.8558C16.8042 61.8516 16.6784 61.7202 16.6826 61.5568C16.6867 61.3934 16.8182 61.2676 16.9816 61.2718L22.6538 61.3888C22.8172 61.3929 22.943 61.5244 22.9388 61.6878C22.9409 61.7365 22.9245 61.7897 22.9 61.8302Z" stroke="#1D1D1D" stroke-miterlimit="10"/>
<path d="M23.5376 68.5521C23.4956 68.6214 23.4212 68.6791 23.3296 68.6868L17.7229 69.5574C17.5663 69.5811 17.4115 69.4715 17.3878 69.315C17.3641 69.1584 17.4736 69.0036 17.6302 68.9799L23.2369 68.1093C23.3935 68.0856 23.5483 68.1952 23.572 68.3517C23.5902 68.426 23.5726 68.4943 23.5376 68.5521Z" stroke="#1D1D1D" stroke-miterlimit="10"/>
<path d="M25.3389 75.062C25.3039 75.1198 25.2515 75.1671 25.1831 75.1888L19.8112 77.0153C19.6615 77.0668 19.4891 76.9861 19.4411 76.8306C19.3895 76.6809 19.4702 76.5086 19.6257 76.4606L24.9976 74.6341C25.1473 74.5826 25.3196 74.6632 25.3677 74.8187C25.3975 74.9 25.3809 74.9926 25.3389 75.062Z" stroke="#1D1D1D" stroke-miterlimit="10"/>
<path d="M28.2338 81.1598C28.2093 81.2003 28.1697 81.2395 28.1221 81.266L23.1498 83.998C23.0069 84.0774 22.8263 84.0233 22.7528 83.884C22.6734 83.7411 22.7274 83.5605 22.8668 83.4869L27.8391 80.7549C27.982 80.6755 28.1625 80.7296 28.2361 80.869C28.2983 80.9619 28.2863 81.0731 28.2338 81.1598Z" stroke="#1D1D1D" stroke-miterlimit="10"/>
<path d="M32.1537 86.6623C32.1362 86.6912 32.1129 86.7166 32.0839 86.7385L27.6633 90.2944C27.5365 90.3993 27.3535 90.3754 27.2486 90.2487C27.1436 90.1219 27.1676 89.9389 27.2943 89.834L31.7149 86.2781C31.8416 86.1731 32.0246 86.197 32.1296 86.3238C32.2091 86.4273 32.2167 86.5582 32.1537 86.6623Z" stroke="#1D1D1D" stroke-miterlimit="10"/>
<path d="M36.964 91.3996C36.9535 91.4169 36.9465 91.4285 36.9303 91.4423L33.1917 95.7114C33.0845 95.8361 32.8991 95.8423 32.7802 95.7387C32.6554 95.6316 32.6435 95.4426 32.7529 95.3272L36.4915 91.0581C36.5986 90.9334 36.784 90.9272 36.903 91.0308C37.0139 91.1216 37.0376 91.2782 36.964 91.3996Z" stroke="#1D1D1D" stroke-miterlimit="10"/>
<path d="M42.5198 95.2302L39.5796 100.085C39.4956 100.224 39.3158 100.273 39.1713 100.186C39.0326 100.102 38.9835 99.9219 39.071 99.7774L42.0112 94.9222C42.0952 94.7834 42.275 94.7343 42.4195 94.8218C42.564 94.9093 42.6039 95.0914 42.5198 95.2302Z" stroke="#1D1D1D" stroke-miterlimit="10"/>
<path d="M83.6917 22.9885L80.7515 27.8437C80.6675 27.9825 80.4877 28.0316 80.3432 27.9441C80.2045 27.86 80.1554 27.6802 80.2429 27.5357L83.1831 22.6805C83.2671 22.5417 83.4469 22.4926 83.5914 22.5801C83.7266 22.6699 83.7757 22.8498 83.6917 22.9885Z" stroke="#1D1D1D" stroke-miterlimit="10"/>
<path d="M74.6095 25.0328C74.536 25.1542 74.3863 25.2057 74.2509 25.1554C74.0982 25.0945 74.027 24.925 74.0844 24.778L76.1352 19.4869C76.1961 19.3342 76.3656 19.263 76.5125 19.3204C76.6652 19.3813 76.7364 19.5508 76.679 19.6977L74.6282 24.9889C74.627 25.0039 74.6165 25.0213 74.6095 25.0328Z" stroke="#1D1D1D" stroke-miterlimit="10"/>
<path d="M68.0776 23.336C68.0145 23.4401 67.895 23.4941 67.7664 23.4715C67.6055 23.4373 67.4995 23.2862 67.5337 23.1252L68.6366 17.5602C68.6708 17.3992 68.8219 17.2932 68.9828 17.3275C69.1438 17.3618 69.2498 17.5128 69.2155 17.6738L68.1127 23.2388C68.1068 23.2747 68.0951 23.3071 68.0776 23.336Z" stroke="#1D1D1D" stroke-miterlimit="10"/>
<path d="M61.3478 22.7999C61.2953 22.8866 61.1965 22.9453 61.0876 22.9426C60.9242 22.9384 60.7985 22.807 60.8026 22.6436L60.9196 16.9714C60.9238 16.808 61.0552 16.6822 61.2186 16.6863C61.382 16.6905 61.5078 16.8219 61.5037 16.9853L61.3866 22.6575C61.3887 22.7062 61.3723 22.7595 61.3478 22.7999Z" stroke="#1D1D1D" stroke-miterlimit="10"/>
<path d="M54.6224 23.4436C54.5804 23.513 54.506 23.5706 54.4144 23.5784C54.2579 23.6021 54.103 23.4925 54.0793 23.336L53.2087 17.7292C53.185 17.5727 53.2946 17.4179 53.4512 17.3942C53.6077 17.3705 53.7625 17.48 53.7862 17.6366L54.6568 23.2433C54.6693 23.314 54.6574 23.3858 54.6224 23.4436Z" stroke="#1D1D1D" stroke-miterlimit="10"/>
<path d="M48.1103 25.2353C48.0753 25.2931 48.023 25.3404 47.9545 25.3621C47.8048 25.4136 47.6325 25.333 47.5844 25.1775L45.758 19.8056C45.7064 19.6559 45.7871 19.4835 45.9426 19.4355C46.0923 19.384 46.2646 19.4646 46.3127 19.6201L48.1391 24.992C48.1689 25.0733 48.1523 25.1659 48.1103 25.2353Z" stroke="#1D1D1D" stroke-miterlimit="10"/>
<path d="M42.0139 28.1396C41.9894 28.1801 41.9498 28.2193 41.9022 28.2458C41.7593 28.3252 41.5788 28.2711 41.5052 28.1318L38.7731 23.1595C38.6938 23.0166 38.7478 22.836 38.8872 22.7624C39.03 22.6831 39.2106 22.7371 39.2842 22.8765L42.0162 27.8488C42.0726 27.9382 42.0664 28.0529 42.0139 28.1396Z" stroke="#1D1D1D" stroke-miterlimit="10"/>
<path d="M36.5153 32.0541C36.4978 32.083 36.4745 32.1084 36.4454 32.1303C36.3187 32.2352 36.1357 32.2113 36.0308 32.0846L32.4748 27.664C32.3699 27.5373 32.3938 27.3542 32.5206 27.2493C32.6473 27.1444 32.8303 27.1683 32.9353 27.295L36.4912 31.7156C36.5742 31.8133 36.5783 31.9501 36.5153 32.0541Z" stroke="#1D1D1D" stroke-miterlimit="10"/>
<path d="M31.7722 36.8602C31.7617 36.8776 31.7547 36.8891 31.7384 36.903C31.6313 37.0277 31.4458 37.0339 31.3269 36.9303L27.0578 33.1917C26.9331 33.0846 26.9211 32.8956 27.0305 32.7802C27.1376 32.6554 27.3231 32.6492 27.442 32.7529L31.7111 36.4915C31.8278 36.5858 31.8457 36.7389 31.7722 36.8602Z" stroke="#1D1D1D" stroke-miterlimit="10"/>
</svg>
