<svg width="50" height="50" viewBox="0 0 50 50" fill="none" xmlns="http://www.w3.org/2000/svg">
<g id="Icon Mask ">
<mask id="mask0_485_562" style="mask-type:alpha" maskUnits="userSpaceOnUse" x="0" y="0" width="50" height="50">
<rect id="Rectangle 11388" width="50" height="50" fill="#D9D9D9"/>
</mask>
<g mask="url(#mask0_485_562)">
<g id="Icon">
<path id="Vector" d="M47.4968 43.2121C47.4981 43.1756 47.4987 43.1394 47.4987 43.1034C47.4977 42.1892 47.1462 41.3127 46.5214 40.6663C45.8965 40.0198 45.0493 39.6562 44.1656 39.6552V23.7069L47.1654 21.3793C47.2696 21.2985 47.354 21.1935 47.4119 21.0728C47.4698 20.9521 47.4995 20.819 47.4987 20.6843C47.4979 20.5496 47.4666 20.4169 47.4072 20.297C47.3479 20.177 47.2622 20.0731 47.1571 19.9936L39.9991 14.5821V5.17241C40.2201 5.17241 40.4321 5.08159 40.5884 4.91992C40.7446 4.75825 40.8324 4.53898 40.8324 4.31034V0.862069C40.8324 0.633434 40.7446 0.414163 40.5884 0.252494C40.4321 0.0908248 40.2201 0 39.9991 0H31.6663C31.4453 0 31.2333 0.0908248 31.0771 0.252494C30.9208 0.414163 30.833 0.633434 30.833 0.862069V4.31034C30.833 4.53898 30.9208 4.75825 31.0771 4.91992C31.2333 5.08159 31.4453 5.17241 31.6663 5.17241V8.28244L25.4916 3.61433C25.3489 3.50645 25.1768 3.4483 25 3.4483C24.8232 3.4483 24.6511 3.50645 24.5084 3.61433L2.84293 19.9936C2.73778 20.0731 2.6521 20.177 2.59277 20.297C2.53345 20.4169 2.50212 20.5496 2.50131 20.6843C2.5005 20.819 2.53023 20.9521 2.58811 21.0728C2.64599 21.1935 2.73041 21.2985 2.83459 21.3793L5.83442 23.7069V39.6552C4.95072 39.6562 4.1035 40.0198 3.47863 40.6663C2.85376 41.3127 2.50227 42.1892 2.50128 43.1034C2.50128 43.1394 2.50191 43.1756 2.50316 43.2121C1.71704 43.4212 1.0317 43.9198 0.575706 44.6145C0.119714 45.3092 -0.0755861 46.1521 0.0264495 46.9852C0.128485 47.8183 0.520843 48.5842 1.12991 49.1392C1.73897 49.6943 2.52289 50.0004 3.33457 50H46.6654C47.4771 50.0004 48.261 49.6943 48.8701 49.1392C49.4792 48.5842 49.8715 47.8183 49.9735 46.9852C50.0756 46.1521 49.8803 45.3092 49.4243 44.6145C48.9683 43.9198 48.283 43.4212 47.4968 43.2121ZM32.4996 1.72414H39.1659V3.44828H32.4996V1.72414ZM33.3329 9.48276V5.17241H38.3326V13.3222L33.254 9.48276H33.3329ZM25 5.37802L45.265 20.6987L43.3247 22.2042L25.4902 8.78556C25.3477 8.67837 25.1761 8.62063 25 8.62063C24.8239 8.62063 24.6523 8.67837 24.5098 8.78556L6.67531 22.2042L4.73501 20.6987L25 5.37802ZM1.66799 46.5517C1.66846 46.0991 1.84077 45.6647 2.14782 45.3422C2.45487 45.0197 2.87207 44.8349 3.30957 44.8276H3.31155C3.35415 44.8337 3.39675 44.839 3.44019 44.8419C3.57827 44.8509 3.71636 44.8242 3.84198 44.7642C3.96759 44.7042 4.07679 44.6128 4.15972 44.4982C4.24264 44.3836 4.29668 44.2495 4.31696 44.1079C4.33724 43.9663 4.32312 43.8217 4.27587 43.6872C4.20691 43.5007 4.17034 43.3031 4.16785 43.1034C4.16838 42.6463 4.34413 42.2081 4.65656 41.8849C4.96899 41.5617 5.39258 41.3799 5.83442 41.3793V48.2759H3.33457C2.89272 48.2753 2.46913 48.0935 2.1567 47.7703C1.84427 47.4471 1.66852 47.0088 1.66799 46.5517ZM37.4993 48.2759H27.4999V29.3103H37.4993V48.2759ZM39.1659 48.2759V28.4483C39.1659 28.2196 39.0781 28.0004 38.9218 27.8387C38.7655 27.677 38.5536 27.5862 38.3326 27.5862H26.6666C26.4456 27.5862 26.2336 27.677 26.0773 27.8387C25.9211 28.0004 25.8333 28.2196 25.8333 28.4483V48.2759H7.501V23.7149L25 10.5487L42.499 23.7149V48.2759H39.1659ZM46.6654 48.2759H44.1656V41.3793C44.6074 41.3799 45.031 41.5617 45.3434 41.8849C45.6559 42.2081 45.8316 42.6463 45.8321 43.1034C45.8297 43.3032 45.7931 43.501 45.7241 43.6876C45.6769 43.8221 45.6628 43.9667 45.683 44.1083C45.7033 44.2499 45.7574 44.3841 45.8403 44.4987C45.9232 44.6132 46.0324 44.7047 46.158 44.7647C46.2836 44.8247 46.4217 44.8514 46.5598 44.8423C46.6032 44.8394 46.6459 44.8342 46.6885 44.828H46.6904C47.1324 44.8314 47.555 45.0164 47.8652 45.3421C48.1754 45.6679 48.3478 46.1078 48.3445 46.5651C48.3412 47.0224 48.1624 47.4595 47.8475 47.7804C47.5326 48.1014 47.1074 48.2797 46.6654 48.2763V48.2759Z" fill="#16191E"/>
<path id="Vector_2" d="M21.6643 27.5879H11.6648C11.4438 27.5879 11.2319 27.6787 11.0756 27.8404C10.9193 28.0021 10.8315 28.2213 10.8315 28.45V40.5189C10.8315 40.7476 10.9193 40.9668 11.0756 41.1285C11.2319 41.2902 11.4438 41.381 11.6648 41.381H21.6643C21.8853 41.381 22.0972 41.2902 22.2535 41.1285C22.4098 40.9668 22.4975 40.7476 22.4975 40.5189V28.45C22.4975 28.2213 22.4098 28.0021 22.2535 27.8404C22.0972 27.6787 21.8853 27.5879 21.6643 27.5879ZM20.831 33.6224H17.4978V29.312H20.831V33.6224ZM15.8313 29.312V33.6224H12.4981V29.312H15.8313ZM12.4981 35.3465H15.8313V39.6569H12.4981V35.3465ZM17.4978 39.6569V35.3465H20.831V39.6569H17.4978Z" fill="#16191E"/>
<path id="Vector_3" d="M30.7731 38.2609C30.9493 37.821 30.7474 37.3168 30.3222 37.1346C29.897 36.9524 29.4096 37.1612 29.2334 37.6011C29.0573 38.041 29.2592 38.5453 29.6844 38.7275C30.1096 38.9097 30.597 38.7008 30.7731 38.2609Z" fill="#16191E"/>
</g>
</g>
</g>
</svg>
