<svg width="14" height="14" viewBox="0 0 14 14" fill="none" xmlns="http://www.w3.org/2000/svg">
<mask id="mask0_485_410" style="mask-type:alpha" maskUnits="userSpaceOnUse" x="0" y="0" width="14" height="14">
<rect width="14" height="14" fill="#D9D9D9"/>
</mask>
<g mask="url(#mask0_485_410)">
<path d="M4.75829 2.98202H12.9912L8.49387 6.58316C8.40357 6.65358 8.29555 6.69645 8.18233 6.70683C8.06852 6.69625 7.95988 6.65341 7.8687 6.58316L4.65474 4.00875C4.62073 3.98066 4.58177 3.95946 4.53995 3.94629C4.6959 3.72345 4.7776 3.45547 4.77303 3.18175C4.77168 3.11495 4.76676 3.04828 4.75829 2.98202ZM2.66462 0.666032C2.67497 0.667822 2.692 0.674444 2.72903 0.691982C2.80222 0.727418 2.91858 0.81869 3.03249 0.945934C3.26188 1.20078 3.4911 1.58681 3.6101 1.84166C3.61378 1.84917 3.61764 1.8574 3.62115 1.86582C3.95884 2.45658 4.10451 2.90847 4.1089 3.19195C4.11364 3.47668 4.03869 3.59928 3.80193 3.73797L3.19115 4.09698C2.79327 4.33053 2.60529 4.74913 2.55861 5.13963C2.51175 5.53031 2.58072 5.9099 2.75114 6.21002L4.25878 8.8596C4.42956 9.15955 4.72108 9.41046 5.07754 9.56455C5.43436 9.719 5.8856 9.76266 6.28348 9.52965L6.89426 9.17136C7.13085 9.03302 7.27389 9.03016 7.51416 9.17584C7.75514 9.32187 8.06808 9.67461 8.40436 10.2657C8.40909 10.2745 8.41366 10.2818 8.4191 10.2903C8.57671 10.522 8.79136 10.9152 8.89491 11.2445C8.94633 11.4081 8.96652 11.5559 8.96002 11.6377C8.95283 11.7198 8.95107 11.7114 8.92984 11.7243L8.46508 11.996C7.29758 12.5123 6.22749 12.3958 5.27113 11.89C4.31302 11.3821 3.48022 10.4649 2.89963 9.38809C2.8977 9.38594 2.89682 9.38326 2.89524 9.38183L1.62349 7.14691C1.62138 7.14476 1.6205 7.14279 1.61875 7.13993C0.98954 6.09119 0.622897 4.90053 0.668881 3.80509C0.714865 2.71125 1.15013 1.71405 2.17547 0.946829L2.6404 0.676055C2.6511 0.669791 2.65461 0.664959 2.66462 0.666032ZM2.66936 0.000102284C2.54632 -0.00186633 2.42083 0.0244415 2.30798 0.0911956L1.81637 0.379509C1.80532 0.385952 1.79514 0.392573 1.78513 0.399016C0.602362 1.28167 0.0577516 2.51045 0.0045717 3.77699C-0.0486082 5.04299 0.365949 6.34962 1.05079 7.49195L2.31833 9.71918L2.31535 9.71255C2.94807 10.885 3.85476 11.902 4.96276 12.4879C6.07129 13.0748 7.39183 13.2108 8.73695 12.6127C8.74801 12.6079 8.75924 12.6025 8.76924 12.5962L9.26155 12.3079C9.48919 12.1758 9.60362 11.9188 9.62223 11.6944C9.64136 11.4707 9.5966 11.2529 9.52868 11.0383C9.39564 10.614 9.16362 10.2018 8.97196 9.91908C8.60988 9.28393 8.26026 8.84314 7.85623 8.5967C7.66106 8.47703 7.43797 8.41295 7.21023 8.41116C6.98249 8.40936 6.75845 8.46992 6.56149 8.5865L5.95071 8.94551C5.77029 9.05146 5.55932 9.03911 5.3373 8.94336C5.11633 8.84761 4.91169 8.65612 4.83569 8.5219L3.32805 5.87249C3.25188 5.73755 3.18957 5.4623 3.21906 5.21963C3.24749 4.97767 3.34385 4.78814 3.52445 4.68202L4.11785 4.33411C4.13329 4.41518 4.17822 4.48873 4.24334 4.53813L7.45747 7.11308C7.65972 7.27628 7.90613 7.3724 8.16356 7.38851C8.17636 7.38923 8.18919 7.38923 8.20199 7.38851C8.45913 7.37231 8.70524 7.27619 8.9072 7.11308L13.3339 3.56706V9.42531C13.3339 9.51444 13.2342 9.63184 13.0387 9.63184H9.97413C9.93043 9.63153 9.8871 9.64004 9.84663 9.65687C9.80617 9.6737 9.76936 9.69852 9.73834 9.72991C9.70732 9.76129 9.68268 9.79862 9.66586 9.83975C9.64903 9.88087 9.64035 9.92499 9.6403 9.96955C9.6403 10.1562 9.78984 10.308 9.97413 10.3069H13.0387C13.5396 10.3069 14 9.93769 14 9.42531V3.18855C14 2.67581 13.5396 2.30679 13.0387 2.30679H4.57593C4.48221 2.06787 4.35847 1.81463 4.20262 1.53938C4.05677 1.22977 3.82018 0.82048 3.5241 0.491362C3.37456 0.324566 3.21326 0.176741 3.0116 0.0811736V0.0820685C2.90433 0.0308303 2.78778 0.00291636 2.66936 0.000102284Z" fill="#16191E"/>
</g>
</svg>
