<svg width="50" height="50" viewBox="0 0 50 50" fill="none" xmlns="http://www.w3.org/2000/svg">
<mask id="mask0_485_542" style="mask-type:alpha" maskUnits="userSpaceOnUse" x="0" y="0" width="50" height="50">
<rect width="50" height="50" fill="#D9D9D9"/>
</mask>
<g mask="url(#mask0_485_542)">
<path d="M49.468 31.0734C48.5169 29.6699 46.6017 29.2985 45.1997 30.2446L38.8188 34.5328L38.8003 21.1852L41.0171 23.2705C41.4859 23.7128 42.1052 23.9587 42.7484 23.9579H42.7522C43.0982 23.9569 43.4403 23.885 43.7576 23.7466C44.0749 23.6083 44.3608 23.4064 44.5978 23.1532C45.0604 22.6573 45.303 22.0103 45.281 21.3311C45.2589 20.6519 44.9747 20.022 44.4809 19.5575L40.2782 15.6041C40.1393 15.479 39.957 15.4134 39.7705 15.4215C39.5841 15.4297 39.4082 15.5108 39.2806 15.6476C39.1529 15.7844 39.0837 15.966 39.0878 16.1534C39.0919 16.3408 39.1689 16.5191 39.3023 16.6502L43.505 20.6036C43.6113 20.703 43.6969 20.8226 43.7569 20.9555C43.8168 21.0884 43.8499 21.232 43.8543 21.3778C43.8594 21.5236 43.8357 21.669 43.7845 21.8055C43.7333 21.942 43.6556 22.067 43.556 22.1732C43.4531 22.2844 43.3283 22.3731 43.1896 22.4335C43.0509 22.494 42.9013 22.5249 42.7501 22.5245H42.7484C42.4669 22.5245 42.1986 22.418 41.9929 22.2244L41.9928 22.2243L25.3051 6.52618C25.1726 6.40154 24.9977 6.3323 24.8162 6.33255C24.6346 6.33281 24.46 6.40254 24.3278 6.52755L7.6835 22.2726C7.57793 22.3728 7.45367 22.4511 7.31786 22.5029C7.18205 22.5546 7.03738 22.5789 6.89219 22.5743C6.74694 22.5703 6.60391 22.5375 6.4714 22.4776C6.33888 22.4177 6.21952 22.3321 6.12021 22.2256C6.0203 22.1197 5.9423 21.9949 5.89074 21.8585C5.83917 21.7221 5.81507 21.5768 5.81982 21.431C5.82376 21.2852 5.85646 21.1416 5.91603 21.0085C5.97561 20.8755 6.06087 20.7556 6.16689 20.6558L24.0553 3.73398C24.4793 3.3328 25.1445 3.33182 25.5696 3.73192L36.0352 13.5768C36.1036 13.6412 36.1839 13.6914 36.2716 13.7245C36.3593 13.7577 36.4527 13.7732 36.5464 13.7701C36.64 13.767 36.7322 13.7455 36.8176 13.7066C36.9029 13.6678 36.9799 13.6125 37.0439 13.5438C37.108 13.4751 37.158 13.3944 37.191 13.3063C37.224 13.2183 37.2395 13.1245 37.2364 13.0304C37.2334 12.9364 37.2119 12.8438 37.1732 12.7581C37.1345 12.6724 37.0794 12.5951 37.011 12.5308L26.5456 2.68587C25.5717 1.76955 24.0479 1.77161 23.0766 2.69067L17.3501 8.10777L17.3485 7.14153C17.3488 6.99175 17.3194 6.84341 17.2621 6.70511C17.2048 6.56681 17.1208 6.44129 17.0148 6.33584C16.9097 6.22996 16.7847 6.14604 16.6472 6.08892C16.5096 6.03179 16.3621 6.00259 16.2132 6.003H16.2115L12.1151 6.00879C11.966 6.00858 11.8183 6.0381 11.6805 6.09561C11.5428 6.15313 11.4178 6.23752 11.3128 6.34388C11.2072 6.44967 11.1235 6.57545 11.0666 6.71393C11.0098 6.85242 10.9808 7.00086 10.9814 7.15066L10.9928 14.1218L5.18818 19.6127C4.69561 20.0786 4.41328 20.7093 4.39307 21.3885C4.37285 22.0677 4.61729 22.7141 5.08125 23.2086C5.54512 23.7032 6.17314 23.9868 6.84961 24.0071C6.87549 24.0079 6.90137 24.0083 6.92725 24.0083C7.5752 24.0083 8.18877 23.7641 8.6623 23.3159L10.8741 21.2236L10.8829 27.5283C10.1654 27.4227 9.44113 27.3694 8.71592 27.3688H7.49473V26.939C7.49473 25.4964 6.32588 24.3227 4.88926 24.3227H2.60547C1.16885 24.3226 0 25.4962 0 26.9389V38.1691C0 38.3592 0.0751902 38.5415 0.20903 38.6759C0.342869 38.8103 0.524394 38.8858 0.713672 38.8858C0.902949 38.8858 1.08447 38.8103 1.21831 38.6759C1.35215 38.5415 1.42734 38.3592 1.42734 38.1691V26.9389C1.42734 26.2866 1.95586 25.7559 2.60547 25.7559H4.88916C5.53877 25.7559 6.06729 26.2866 6.06729 26.9389V43.9101C6.06729 44.5624 5.53877 45.0932 4.88916 45.0932H2.60547C1.95586 45.0932 1.42734 44.5624 1.42734 43.9101V42.6561C1.42734 42.466 1.35215 42.2837 1.21831 42.1493C1.08447 42.0149 0.902949 41.9394 0.713672 41.9394C0.524394 41.9394 0.342869 42.0149 0.20903 42.1493C0.0751902 42.2837 0 42.466 0 42.6561L0 43.9101C0 45.3527 1.16885 46.5265 2.60547 46.5265H4.88916C6.32578 46.5265 7.49463 45.3528 7.49463 43.9101V43.8127L17.9462 47.7871C17.9655 47.7945 17.9852 47.8009 18.0051 47.8065C18.4595 47.9354 18.9137 48 19.3621 48C19.6047 48 19.8456 47.9811 20.0841 47.9432L35.4436 45.7199L35.4543 45.7182C36.7616 45.5082 37.9905 44.9552 39.0168 44.1153C39.0257 44.108 39.0345 44.1005 39.043 44.0927L48.9659 35.1308C50.1215 34.1006 50.3372 32.3563 49.468 31.0734ZM15.9216 7.43681L15.9249 9.45596L12.4179 12.7735L12.4092 7.44161L15.9216 7.43681ZM24.8185 8.03245L37.371 19.8406L37.3928 35.4911L35.3722 36.8491L33.2324 36.7285L33.1759 36.1578C33.0814 35.1856 32.677 34.27 32.0228 33.547C31.3687 32.824 30.4997 32.3322 29.545 32.1448L29.5321 22.834C29.5312 22.1195 28.9519 21.5389 28.2404 21.5389H28.2387L21.4365 21.5485C21.2668 21.5483 21.0988 21.5818 20.9421 21.6473C20.7854 21.7127 20.6432 21.8087 20.5237 21.9297C20.4036 22.05 20.3084 22.1931 20.2437 22.3506C20.1789 22.5081 20.146 22.6769 20.1467 22.8473L20.158 30.9652C18.809 30.6558 17.5152 30.1409 16.3213 29.4385C16.1713 29.3505 16.0198 29.2652 15.8668 29.1825C15.8072 29.1502 15.7467 29.1199 15.6866 29.0884C15.5937 29.0397 15.5009 28.9906 15.4069 28.9439C15.3321 28.9066 15.2564 28.8713 15.1811 28.8353C15.1011 28.7972 15.0212 28.7586 14.9406 28.7219C14.8586 28.6845 14.7759 28.6489 14.6933 28.613C14.6178 28.5802 14.5423 28.5473 14.4663 28.5158C14.3813 28.4806 14.2959 28.4468 14.2104 28.4131C14.1345 28.3833 14.0585 28.3537 13.9822 28.3251C13.8976 28.2933 13.8125 28.2626 13.7272 28.2325C13.4795 28.1447 13.2294 28.0635 12.9773 27.989C12.9017 27.9667 12.8261 27.9443 12.75 27.9231C12.6506 27.8956 12.5509 27.8691 12.451 27.8437C12.4042 27.8316 12.3577 27.818 12.3106 27.8063L12.2996 19.875L24.8185 8.03245ZM28.1175 31.9654L22.1482 31.2754L21.5858 31.2103L21.5743 22.9816L28.105 22.9724L28.1175 31.9654ZM48.0149 34.0622L38.1018 43.0153C37.2745 43.6886 36.2858 44.1322 35.2345 44.3021L19.8816 46.5244L19.8721 46.5259L19.8614 46.5276C19.3963 46.6015 18.9119 46.5703 18.4216 46.4352L7.49473 42.28V28.802H8.71592C9.79035 28.8024 10.861 28.9303 11.9055 29.1832C12.029 29.2132 12.1522 29.2439 12.2749 29.2773L12.307 29.2863C12.43 29.32 12.5524 29.3556 12.6745 29.3928C12.6964 29.3995 12.7184 29.406 12.7401 29.4128C12.87 29.4531 12.9993 29.4952 13.1279 29.5393L13.1677 29.5532C13.4504 29.6513 13.7298 29.7586 14.0055 29.8751C14.1396 29.9317 14.2728 29.9904 14.4051 30.0513C14.5297 30.1088 14.6534 30.1684 14.7764 30.2297C14.7908 30.2369 14.8054 30.2439 14.8198 30.2512C14.9399 30.3115 15.0591 30.3739 15.1775 30.4379C15.1999 30.4499 15.2222 30.4623 15.2445 30.4745C15.3641 30.5399 15.4829 30.6066 15.6006 30.6757C17.2989 31.6733 19.1478 32.3195 21.0958 32.5963C21.102 32.5972 21.108 32.598 21.1142 32.5986L29.1104 33.5231C29.7079 33.6085 30.2675 33.8674 30.7204 34.268C31.1733 34.6687 31.4996 35.1935 31.6593 35.778C31.7054 35.9465 31.7378 36.1208 31.7556 36.2996L31.7873 36.6203L16.801 35.3018C16.7076 35.2936 16.6136 35.3039 16.5242 35.3322C16.4348 35.3605 16.3518 35.4062 16.28 35.4667C16.135 35.5888 16.0443 35.7638 16.0277 35.9531C16.0112 36.1425 16.0703 36.3307 16.1919 36.4763C16.3135 36.6219 16.4878 36.713 16.6764 36.7296L32.5203 38.1236C32.5241 38.1239 32.5278 38.1238 32.5315 38.1241C32.5353 38.1244 32.5389 38.125 32.5427 38.1253L35.5307 38.2937C35.544 38.2944 35.5573 38.2947 35.5706 38.2947C35.5848 38.2947 35.5987 38.2925 35.6128 38.2916C35.6287 38.2906 35.6446 38.29 35.6604 38.2881C35.6817 38.2853 35.7025 38.2807 35.7234 38.2761C35.7384 38.2728 35.7534 38.2703 35.7681 38.266C35.7909 38.2594 35.8129 38.2505 35.8351 38.2416C35.847 38.2368 35.8593 38.2331 35.871 38.2277C35.9043 38.2122 35.9367 38.1943 35.9676 38.1735L38.5039 36.4691L38.5042 36.4688L45.9946 31.4349C46.7482 30.9262 47.777 31.1258 48.2878 31.8797C48.7548 32.5687 48.6389 33.5057 48.0149 34.0622Z" fill="black"/>
</g>
</svg>
