<svg width="14" height="14" viewBox="0 0 14 14" fill="none" xmlns="http://www.w3.org/2000/svg">
<mask id="mask0_485_1486" style="mask-type:alpha" maskUnits="userSpaceOnUse" x="0" y="0" width="14" height="14">
<rect width="14" height="14" fill="white"/>
</mask>
<g mask="url(#mask0_485_1486)">
<path d="M12.5807 0H3.57496C3.50864 0 3.44504 0.026345 3.39815 0.0732394C3.35125 0.120134 3.32491 0.183736 3.32491 0.250055C3.32491 0.316374 3.35125 0.379976 3.39815 0.42687C3.44504 0.473765 3.50864 0.50011 3.57496 0.50011H12.5807C12.8244 0.500375 13.0581 0.597338 13.2305 0.769719C13.4028 0.942099 13.4997 1.17581 13.4999 1.41956V10.4248C13.4999 10.4911 13.5262 10.5547 13.5731 10.6016C13.62 10.6485 13.6836 10.6748 13.7499 10.6748C13.8163 10.6748 13.8799 10.6485 13.9268 10.6016C13.9737 10.5547 14 10.4911 14 10.4248V1.41956C13.9996 1.04324 13.8499 0.682433 13.5839 0.416307C13.3178 0.150181 12.957 0.000463328 12.5807 0ZM13.9265 12.4065L12.7575 11.2375C12.7344 11.2136 12.7068 11.1945 12.6763 11.1814C12.6458 11.1683 12.613 11.1614 12.5798 11.1611C12.5466 11.1608 12.5137 11.1672 12.4829 11.1797C12.4522 11.1923 12.4243 11.2109 12.4008 11.2344C12.3773 11.2578 12.3588 11.2858 12.3462 11.3165C12.3336 11.3472 12.3273 11.3802 12.3276 11.4134C12.3279 11.4466 12.3348 11.4794 12.3479 11.5099C12.361 11.5404 12.38 11.568 12.4039 11.591L13.1463 12.3337H2.58575C2.34195 12.3335 2.1082 12.2366 1.93581 12.0642C1.76343 11.8918 1.66649 11.658 1.66629 11.4143V0.853687L2.40896 1.59635C2.45612 1.6419 2.51928 1.6671 2.58485 1.66653C2.65041 1.66596 2.71313 1.63967 2.75949 1.5933C2.80585 1.54694 2.83215 1.48423 2.83272 1.41866C2.83329 1.3531 2.80808 1.28993 2.76253 1.24277L1.59328 0.0735162C1.57005 0.050267 1.54248 0.0318231 1.51212 0.0192392C1.48176 0.0066554 1.44922 0.000178376 1.41636 0.000178376C1.3835 0.000178376 1.35096 0.0066554 1.32061 0.0192392C1.29025 0.0318231 1.26267 0.050267 1.23945 0.0735162L0.0701935 1.24277C0.024644 1.28993 -0.000560277 1.3531 9.45269e-06 1.41866C0.000579183 1.48423 0.0268773 1.54694 0.0732395 1.5933C0.119602 1.63967 0.182318 1.66596 0.247882 1.66653C0.313446 1.6671 0.37661 1.6419 0.423771 1.59635L1.16643 0.853687V11.4143C1.16683 11.7906 1.31649 12.1513 1.58258 12.4174C1.84867 12.6835 2.20944 12.8332 2.58575 12.8336H13.1463L12.4037 13.5762C12.3804 13.5995 12.362 13.627 12.3495 13.6574C12.3369 13.6877 12.3304 13.7203 12.3305 13.7531C12.3305 13.786 12.337 13.8185 12.3495 13.8488C12.3621 13.8792 12.3805 13.9067 12.4038 13.9299C12.427 13.9531 12.4546 13.9716 12.4849 13.9841C12.5153 13.9967 12.5478 14.0031 12.5807 14.0031C12.6135 14.0031 12.646 13.9966 12.6764 13.9841C12.7067 13.9715 12.7343 13.953 12.7575 13.9298L13.9265 12.7605C13.973 12.7134 13.9991 12.6498 13.9991 12.5835C13.9991 12.5172 13.973 12.4536 13.9265 12.4065Z" fill="white" fill-opacity="0.6"/>
<path d="M4.44683 4.06247C4.38051 4.06247 4.31691 4.08882 4.27002 4.13571C4.22312 4.18261 4.19678 4.24621 4.19678 4.31253V9.16759C4.19678 9.23391 4.22312 9.29752 4.27002 9.34441C4.31691 9.3913 4.38051 9.41765 4.44683 9.41765C4.51315 9.41765 4.57675 9.3913 4.62365 9.34441C4.67054 9.29752 4.69689 9.23391 4.69689 9.16759V5.5503C4.69689 5.33543 4.78224 5.12936 4.93418 4.97742C5.08612 4.82548 5.29219 4.74012 5.50706 4.74012C5.72194 4.74012 5.92801 4.82548 6.07995 4.97742C6.23188 5.12936 6.31724 5.33543 6.31724 5.5503V9.16759C6.31724 9.23391 6.34359 9.29752 6.39048 9.34441C6.43738 9.3913 6.50098 9.41765 6.5673 9.41765C6.63362 9.41765 6.69722 9.3913 6.74411 9.34441C6.79101 9.29752 6.81735 9.23391 6.81735 9.16759V5.5503C6.81546 5.44273 6.83502 5.33585 6.87488 5.23592C6.91474 5.13598 6.9741 5.04498 7.04951 4.96824C7.12492 4.8915 7.21486 4.83054 7.31408 4.78893C7.4133 4.74732 7.51981 4.72589 7.6274 4.72589C7.735 4.72589 7.84151 4.74732 7.94073 4.78893C8.03995 4.83054 8.12989 4.8915 8.2053 4.96824C8.2807 5.04498 8.34007 5.13598 8.37993 5.23592C8.41979 5.33585 8.43935 5.44273 8.43746 5.5503V9.16759C8.43746 9.23391 8.4638 9.29752 8.5107 9.34441C8.55759 9.3913 8.62119 9.41765 8.68751 9.41765C8.75383 9.41765 8.81743 9.3913 8.86433 9.34441C8.91122 9.29752 8.93757 9.23391 8.93757 9.16759V5.5503C8.93493 5.27474 8.84562 5.00701 8.68229 4.78506C8.51897 4.56311 8.28991 4.39821 8.02761 4.31373C7.76531 4.22926 7.48307 4.2295 7.22092 4.31443C6.95876 4.39935 6.72999 4.56465 6.56705 4.78688C6.46348 4.64413 6.33213 4.52379 6.18088 4.43308C6.02963 4.34238 5.8616 4.28318 5.6869 4.25906C5.51219 4.23493 5.33442 4.24637 5.16424 4.29268C4.99407 4.339 4.83502 4.41924 4.69664 4.52858V4.31253C4.69664 4.24621 4.67029 4.18261 4.6234 4.13571C4.5765 4.08882 4.51315 4.06247 4.44683 4.06247ZM10.7525 2.64966C10.5251 2.64993 10.3071 2.74039 10.1464 2.90118C9.98562 3.06198 9.89523 3.27998 9.89503 3.50735C9.89503 3.57367 9.92137 3.63727 9.96827 3.68417C10.0152 3.73106 10.0788 3.75741 10.1451 3.75741C10.2114 3.75741 10.275 3.73106 10.3219 3.68417C10.3688 3.63727 10.3951 3.57367 10.3951 3.50735C10.3986 3.4149 10.4378 3.32738 10.5044 3.26319C10.571 3.19901 10.6599 3.16314 10.7525 3.16314C10.845 3.16314 10.9339 3.19901 11.0005 3.26319C11.0672 3.32738 11.1063 3.4149 11.1098 3.50735C11.1098 3.92344 10.4059 4.83439 9.96204 5.31075C9.92881 5.34638 9.90671 5.39095 9.89847 5.43898C9.89023 5.487 9.89619 5.53639 9.91564 5.58107C9.93508 5.62575 9.96716 5.66377 10.0079 5.69047C10.0487 5.71717 10.0964 5.73137 10.1451 5.73134H11.3598C11.4262 5.73134 11.4898 5.705 11.5367 5.6581C11.5836 5.61121 11.6099 5.5476 11.6099 5.48129C11.6099 5.41497 11.5836 5.35136 11.5367 5.30447C11.4898 5.25758 11.4262 5.23123 11.3598 5.23123H10.6927C11.0748 4.76338 11.6099 4.01721 11.6099 3.5071C11.6097 3.27973 11.5193 3.06173 11.3586 2.90093C11.1978 2.74014 10.9798 2.64968 10.7525 2.64941V2.64966Z" fill="white" fill-opacity="0.6"/>
</g>
</svg>
