<svg width="14" height="14" viewBox="0 0 14 14" fill="none" xmlns="http://www.w3.org/2000/svg">
<g clip-path="url(#clip0_788_1338)">
<path d="M13.564 1.6976C13.6458 1.77961 13.6917 1.89068 13.6917 2.00647C13.6917 2.12227 13.6458 2.23334 13.564 2.31535L12.6514 3.22885L10.9014 1.47885L11.814 0.56535C11.896 0.483331 12.0073 0.437256 12.1233 0.437256C12.2393 0.437256 12.3506 0.483331 12.4326 0.56535L13.564 1.69673V1.6976ZM12.0328 3.8466L10.2828 2.0966L4.32138 8.05885C4.27322 8.107 4.23696 8.16572 4.2155 8.23035L3.51113 10.3426C3.49835 10.3811 3.49654 10.4224 3.50589 10.4619C3.51524 10.5014 3.53538 10.5375 3.56407 10.5662C3.59276 10.5948 3.62886 10.615 3.66834 10.6243C3.70782 10.6337 3.74912 10.6319 3.78763 10.6191L5.89988 9.91473C5.96442 9.89352 6.02314 9.85757 6.07138 9.80972L12.0328 3.8466Z" fill="#2A64F8"/>
<path fill-rule="evenodd" clip-rule="evenodd" d="M0.875 11.8125C0.875 12.1606 1.01328 12.4944 1.25942 12.7406C1.50556 12.9867 1.8394 13.125 2.1875 13.125H11.8125C12.1606 13.125 12.4944 12.9867 12.7406 12.7406C12.9867 12.4944 13.125 12.1606 13.125 11.8125V6.5625C13.125 6.44647 13.0789 6.33519 12.9969 6.25314C12.9148 6.17109 12.8035 6.125 12.6875 6.125C12.5715 6.125 12.4602 6.17109 12.3781 6.25314C12.2961 6.33519 12.25 6.44647 12.25 6.5625V11.8125C12.25 11.9285 12.2039 12.0398 12.1219 12.1219C12.0398 12.2039 11.9285 12.25 11.8125 12.25H2.1875C2.07147 12.25 1.96019 12.2039 1.87814 12.1219C1.79609 12.0398 1.75 11.9285 1.75 11.8125V2.1875C1.75 2.07147 1.79609 1.96019 1.87814 1.87814C1.96019 1.79609 2.07147 1.75 2.1875 1.75H7.875C7.99103 1.75 8.10231 1.70391 8.18436 1.62186C8.26641 1.53981 8.3125 1.42853 8.3125 1.3125C8.3125 1.19647 8.26641 1.08519 8.18436 1.00314C8.10231 0.921094 7.99103 0.875 7.875 0.875H2.1875C1.8394 0.875 1.50556 1.01328 1.25942 1.25942C1.01328 1.50556 0.875 1.8394 0.875 2.1875V11.8125Z" fill="#2A64F8"/>
</g>
<defs>
<clipPath id="clip0_788_1338">
<rect width="14" height="14" fill="white"/>
</clipPath>
</defs>
</svg>
