<svg width="13" height="14" viewBox="0 0 13 14" fill="none" xmlns="http://www.w3.org/2000/svg">
<path d="M11.025 1.64062H8.98333V1.23047C8.98333 0.551988 8.4338 0 7.75833 0H4.49167C3.8162 0 3.26667 0.551988 3.26667 1.23047V1.64062H1.225C0.549535 1.64062 0 2.19261 0 2.87109C0 3.416 0.354569 3.87901 0.844025 4.04034L1.57236 12.8717C1.62481 13.5044 2.16104 14 2.79311 14H9.45689C10.089 14 10.6252 13.5044 10.6777 12.8715L11.406 4.04031C11.8954 3.87901 12.25 3.416 12.25 2.87109C12.25 2.19261 11.7005 1.64062 11.025 1.64062ZM4.08333 1.23047C4.08333 1.00431 4.26651 0.820312 4.49167 0.820312H7.75833C7.98349 0.820312 8.16667 1.00431 8.16667 1.23047V1.64062H4.08333V1.23047ZM9.86381 12.8036C9.8463 13.0145 9.66759 13.1797 9.45689 13.1797H2.79311C2.58244 13.1797 2.40369 13.0145 2.38625 12.8038L1.66856 4.10156H10.5814L9.86381 12.8036ZM11.025 3.28125H1.225C0.999845 3.28125 0.816667 3.09725 0.816667 2.87109C0.816667 2.64493 0.999845 2.46094 1.225 2.46094H11.025C11.2502 2.46094 11.4333 2.64493 11.4333 2.87109C11.4333 3.09725 11.2502 3.28125 11.025 3.28125Z" fill="#FF5925"/>
<path d="M4.49182 11.9239L4.08349 5.30667C4.06952 5.08056 3.87469 4.9086 3.65068 4.92268C3.42558 4.93671 3.25443 5.13134 3.26837 5.35742L3.67671 11.9746C3.69013 12.1921 3.8699 12.3594 4.08387 12.3594C4.32035 12.3594 4.50633 12.1594 4.49182 11.9239ZM6.12594 4.92192C5.90043 4.92192 5.71761 5.10556 5.71761 5.33207V11.9493C5.71761 12.1758 5.90043 12.3594 6.12594 12.3594C6.35145 12.3594 6.53428 12.1758 6.53428 11.9493V5.33207C6.53428 5.10556 6.35145 4.92192 6.12594 4.92192ZM8.60118 4.92271C8.3766 4.90868 8.18231 5.08059 8.16837 5.3067L7.76004 11.9239C7.74613 12.15 7.91727 12.3446 8.14235 12.3586C8.36756 12.3726 8.56122 12.2006 8.57515 11.9746L8.98349 5.35745C8.99743 5.13134 8.82628 4.93671 8.60118 4.92271Z" fill="#FF5925"/>
</svg>
