<svg width="8" height="6" viewBox="0 0 8 6" fill="none" xmlns="http://www.w3.org/2000/svg">
<path d="M7.0805 0.155258C7.13014 0.106102 7.18938 0.0670504 7.25475 0.0403911C7.32013 0.0137317 7.39033 0 7.46124 0C7.53215 0 7.60235 0.0137317 7.66772 0.0403911C7.7331 0.0670504 7.79234 0.106102 7.84197 0.155258C8.04998 0.359273 8.05289 0.688943 7.84925 0.896487L3.54879 5.83095C3.49997 5.88299 3.44072 5.92482 3.37467 5.95387C3.30861 5.98292 3.23715 5.99859 3.16465 5.99991C3.09214 6.00123 3.02012 5.98818 2.95299 5.96156C2.88586 5.93493 2.82504 5.8953 2.77423 5.84507L0.157452 3.27124C0.0565314 3.17134 0 3.03701 0 2.8971C0 2.75719 0.0565314 2.62285 0.157452 2.52295C0.207086 2.4738 0.266326 2.43475 0.331702 2.40809C0.397078 2.38143 0.467276 2.3677 0.538187 2.3677C0.609098 2.3677 0.679297 2.38143 0.744672 2.40809C0.810048 2.43475 0.869287 2.4738 0.918922 2.52295L3.1386 4.7064L7.06596 0.170789C7.07048 0.165333 7.07534 0.160147 7.0805 0.155258Z" fill="black"/>
</svg>
