<svg width="76" height="75" viewBox="0 0 76 75" fill="none" xmlns="http://www.w3.org/2000/svg">
<path d="M63.4284 34.5702C60.3054 38.0296 56.2844 41.0365 51.5217 41.5722C49.6059 41.787 47.5897 41.5577 45.7728 40.8696C46.8629 37.5643 46.9945 33.9234 46.253 30.5525C45.804 28.5155 44.6192 25.0595 41.8843 25.5642C39.4192 26.0197 38.1791 29.3844 37.9122 31.5399C37.3767 35.8648 39.6913 39.7369 43.2239 41.8585C41.471 45.6958 38.0157 48.5171 33.8845 49.4228C30.5516 50.1516 27.0951 49.492 24.5126 47.3731C25.9739 44.7608 26.8339 41.7087 27.2987 38.7735C27.6991 36.2728 27.1209 33.4905 24.5817 32.3886C21.9081 31.2299 19.9999 33.5318 19.2066 35.8461C18.4432 38.0681 18.4916 40.5534 19.1862 42.786C19.7351 44.5732 20.6645 46.2203 21.9107 47.614C20.0585 50.1751 17.3454 52.0993 14.0464 51.3107C9.75567 50.2841 6.94334 45.7192 6.45863 41.5695C6.33503 40.5156 6.38118 39.4522 6.53508 38.4062C6.72009 37.1275 4.70782 37.0421 4.52281 38.3208C3.77294 43.4741 6.10101 49.0207 10.4808 51.9043C12.8485 53.4682 15.6568 53.9107 18.3359 52.9388C20.391 52.1966 22.1185 50.7746 23.4269 49.0453C25.2188 50.4759 27.4053 51.4098 29.8154 51.6624C34.8248 52.1857 39.9414 49.8555 43.0542 45.9507C43.8434 44.9574 44.496 43.8761 45.0229 42.736C45.384 42.8795 45.7552 43.0073 46.1313 43.116C51.6992 44.6761 57.3449 42.5978 61.6731 39.0454C62.7791 38.1374 63.8004 37.1302 64.7602 36.0684C65.6316 35.1207 64.2927 33.6104 63.4284 34.5702ZM21.7153 35.1733C22.2241 34.3264 22.9653 33.8228 23.9226 34.2987C24.7418 34.7005 25.1944 35.498 25.355 36.3675C25.5593 37.4809 25.3222 38.6443 25.077 39.728C24.7732 41.0641 24.4244 42.4008 23.9623 43.6942C23.7131 44.4036 23.3914 45.1331 23.0089 45.8532C20.7282 42.9549 19.722 38.4837 21.7153 35.1733ZM40.5851 36.1711C39.7787 34.3423 39.6037 32.1919 40.2368 30.2874C40.5385 29.3813 41.0551 28.361 41.8261 27.765C42.676 27.1158 43.3613 28.2789 43.6803 28.9606C44.5729 30.8747 44.761 33.3162 44.6992 35.3957C44.6548 36.9463 44.4013 38.4838 43.9456 39.9666C42.5034 39.0663 41.314 37.8086 40.5851 36.1711Z" fill="url(#paint0_linear_802_80)"/>
<path d="M68.5576 26.0614C65.1845 28.1326 61.8114 30.2038 58.4296 32.2768C57.3235 32.9543 58.3057 34.7179 59.4065 34.0371L67.8617 28.8475L66.8962 39.5134C66.8455 40.0534 67.3901 40.5235 67.9015 40.5261C68.4858 40.531 68.8654 40.0693 68.9142 39.5207C69.2974 35.3282 69.6719 31.1376 70.0551 26.9451C70.1199 26.1987 69.1638 25.6863 68.5576 26.0614Z" fill="url(#paint1_linear_802_80)"/>
<defs>
<linearGradient id="paint0_linear_802_80" x1="63.3268" y1="38.6711" x2="2.84006" y2="40.7579" gradientUnits="userSpaceOnUse">
<stop stop-color="#EFB93F"/>
<stop offset="1" stop-color="#EFB93F" stop-opacity="0"/>
</linearGradient>
<linearGradient id="paint1_linear_802_80" x1="74.7016" y1="30.9058" x2="58.1875" y2="30.4676" gradientUnits="userSpaceOnUse">
<stop stop-color="#EFB93F"/>
<stop offset="1" stop-color="#EFB93F" stop-opacity="0"/>
</linearGradient>
</defs>
</svg>
