<svg width="196" height="41" viewBox="0 0 196 41" fill="none" xmlns="http://www.w3.org/2000/svg">
<path d="M70.0938 24.4926V1.32392H75.1965L87.5169 17.873L86.4091 17.7075C86.2972 16.9793 86.2077 16.2843 86.1405 15.6223C86.0734 14.9603 86.0062 14.3094 85.9391 13.6695C85.8943 13.0296 85.8496 12.3787 85.8048 11.7167C85.7824 11.0548 85.7601 10.3376 85.7377 9.56534C85.7377 8.79305 85.7377 7.95457 85.7377 7.04989V1.32392H91.2768V24.4926H86.107L73.2494 7.41397L74.9615 7.64565C75.0734 8.70479 75.1629 9.60947 75.2301 10.3597C75.3196 11.0879 75.3867 11.7388 75.4315 12.3125C75.4986 12.8862 75.5434 13.4047 75.5658 13.8681C75.5882 14.3315 75.5993 14.7948 75.5993 15.2582C75.6217 15.6995 75.6329 16.196 75.6329 16.7476V24.4926H70.0938Z" fill="white"/>
<path d="M105.096 24.8236C103.126 24.8236 101.414 24.4374 99.9596 23.6651C98.5049 22.8708 97.3746 21.8006 96.5689 20.4546C95.7633 19.0866 95.3604 17.5309 95.3604 15.7878C95.3604 14.4418 95.5842 13.2061 96.0318 12.0808C96.4794 10.9555 97.1061 9.98458 97.9118 9.16817C98.7175 8.32968 99.6686 7.68978 100.765 7.24848C101.884 6.7851 103.104 6.55342 104.424 6.55342C105.678 6.55342 106.819 6.77407 107.849 7.21538C108.901 7.65669 109.807 8.27452 110.568 9.06887C111.329 9.86323 111.911 10.801 112.314 11.8822C112.716 12.9634 112.895 14.1439 112.851 15.4237L112.817 16.8469H98.6168L97.8446 13.8681H108.453L107.882 14.497V13.835C107.837 13.2834 107.658 12.7979 107.345 12.3787C107.054 11.9374 106.663 11.5954 106.17 11.3526C105.678 11.1099 105.118 10.9886 104.492 10.9886C103.619 10.9886 102.869 11.1651 102.242 11.5181C101.638 11.8491 101.179 12.3456 100.866 13.0075C100.553 13.6474 100.396 14.4418 100.396 15.3906C100.396 16.3615 100.597 17.211 101 17.9392C101.426 18.6452 102.03 19.1969 102.813 19.5941C103.619 19.9912 104.57 20.1898 105.667 20.1898C106.428 20.1898 107.099 20.0795 107.681 19.8588C108.285 19.6382 108.934 19.2631 109.628 18.7335L112.146 22.2419C111.452 22.8377 110.713 23.3231 109.93 23.6982C109.147 24.0733 108.341 24.3491 107.513 24.5257C106.707 24.7243 105.902 24.8236 105.096 24.8236Z" fill="white"/>
<path d="M124.095 24.8236C122.372 24.8236 120.827 24.4264 119.462 23.632C118.097 22.8377 117.011 21.7565 116.206 20.3884C115.422 18.9983 115.031 17.4317 115.031 15.6885C115.031 13.9453 115.422 12.3897 116.206 11.0217C117.011 9.63154 118.097 8.5393 119.462 7.74495C120.827 6.95059 122.372 6.55342 124.095 6.55342C125.684 6.55342 127.139 6.82923 128.459 7.38087C129.802 7.9325 130.865 8.70479 131.648 9.69773L128.728 13.1399C128.414 12.7869 128.045 12.4559 127.62 12.147C127.194 11.8381 126.725 11.5954 126.21 11.4188C125.695 11.2423 125.158 11.154 124.598 11.154C123.748 11.154 122.998 11.3526 122.349 11.7498C121.7 12.1249 121.197 12.6545 120.838 13.3385C120.48 14.0225 120.301 14.8059 120.301 15.6885C120.301 16.527 120.48 17.2882 120.838 17.9723C121.219 18.6563 121.734 19.1969 122.383 19.5941C123.032 19.9912 123.77 20.1898 124.598 20.1898C125.18 20.1898 125.717 20.1236 126.21 19.9912C126.702 19.8368 127.15 19.6161 127.553 19.3293C127.978 19.0424 128.369 18.6894 128.728 18.2701L131.615 21.7454C130.854 22.6942 129.791 23.4445 128.425 23.9961C127.083 24.5477 125.639 24.8236 124.095 24.8236Z" fill="white"/>
<path d="M139.736 19.3293L137.755 15.3575L146.081 6.9175H153.164L139.736 19.3293ZM134.566 24.4926V0H139.938V24.4926H134.566ZM146.652 24.4926L140.374 16.4828L144.167 13.5702L152.997 24.4926H146.652Z" fill="white"/>
<path d="M155.45 24.4926V0H160.822V24.4926H155.45Z" fill="white"/>
<path d="M173.778 24.8236C171.809 24.8236 170.096 24.4374 168.642 23.6651C167.187 22.8708 166.057 21.8006 165.251 20.4546C164.445 19.0866 164.043 17.5309 164.043 15.7878C164.043 14.4418 164.266 13.2061 164.714 12.0808C165.162 10.9555 165.788 9.98458 166.594 9.16817C167.4 8.32968 168.351 7.68978 169.447 7.24848C170.566 6.7851 171.786 6.55342 173.107 6.55342C174.36 6.55342 175.501 6.77407 176.531 7.21538C177.583 7.65669 178.489 8.27452 179.25 9.06887C180.011 9.86323 180.593 10.801 180.996 11.8822C181.399 12.9634 181.578 14.1439 181.533 15.4237L181.499 16.8469H167.299L166.527 13.8681H177.135L176.564 14.497V13.835C176.52 13.2834 176.341 12.7979 176.027 12.3787C175.736 11.9374 175.345 11.5954 174.852 11.3526C174.36 11.1099 173.8 10.9886 173.174 10.9886C172.301 10.9886 171.551 11.1651 170.925 11.5181C170.32 11.8491 169.862 12.3456 169.548 13.0075C169.235 13.6474 169.078 14.4418 169.078 15.3906C169.078 16.3615 169.28 17.211 169.682 17.9392C170.108 18.6452 170.712 19.1969 171.495 19.5941C172.301 19.9912 173.252 20.1898 174.349 20.1898C175.11 20.1898 175.781 20.0795 176.363 19.8588C176.967 19.6382 177.616 19.2631 178.31 18.7335L180.828 22.2419C180.134 22.8377 179.396 23.3231 178.612 23.6982C177.829 24.0733 177.023 24.3491 176.195 24.5257C175.389 24.7243 174.584 24.8236 173.778 24.8236Z" fill="white"/>
<path d="M67.3467 40.5687C67.4388 40.1904 67.5615 39.7706 67.715 39.3091C67.8761 38.84 68.0565 38.3521 68.256 37.8452C68.4632 37.3383 68.6742 36.8352 68.889 36.3359C69.1039 35.8366 69.3111 35.36 69.5106 34.9061C69.7101 34.4446 69.9403 33.9794 70.2012 33.5103C70.2549 33.4195 70.3009 33.3363 70.3393 33.2607C70.3853 33.185 70.4352 33.1207 70.4889 33.0677C70.1896 33.0753 69.8674 33.1131 69.5221 33.1812C69.1844 33.2417 68.8583 33.3287 68.5437 33.4422C68.2368 33.5557 67.9721 33.6881 67.7495 33.8394C67.5347 33.9907 67.3966 34.1571 67.3352 34.3387C67.3275 34.3614 67.3122 34.3727 67.2891 34.3727C67.2201 34.3727 67.1855 34.3198 67.1855 34.2139C67.1855 34.1912 67.1932 34.1571 67.2086 34.1117C67.2776 33.915 67.362 33.741 67.4618 33.5897C67.5692 33.4384 67.6766 33.3098 67.7841 33.2039C68.0373 32.9467 68.3212 32.7916 68.6358 32.7386C68.9504 32.6781 69.2842 32.6479 69.6372 32.6479H72.4341C72.7564 32.6479 73.0441 32.6819 73.2973 32.75C73.5505 32.8105 73.7616 32.8975 73.9304 33.011C74.1529 33.1547 74.314 33.3325 74.4138 33.5444C74.5135 33.7486 74.5634 33.9642 74.5634 34.1912C74.5634 34.5392 74.4867 34.8494 74.3332 35.1217C74.1798 35.3941 73.9764 35.6286 73.7232 35.8253C73.4777 36.022 73.2014 36.1808 72.8945 36.3019C72.5875 36.4229 72.2768 36.5137 71.9622 36.5742L71.5939 36.6423C71.778 37.2551 72.0121 37.8074 72.296 38.2991C72.5799 38.7909 72.8753 39.2221 73.1822 39.5928C73.4892 39.9635 73.7654 40.2812 74.0109 40.546C73.8958 40.5687 73.7194 40.5801 73.4815 40.5801C73.2743 40.5801 73.0748 40.5763 72.883 40.5687C72.6911 40.5536 72.5952 40.546 72.5952 40.546C72.4034 40.546 72.2154 40.4439 72.0312 40.2396C71.8471 40.0354 71.6706 39.7744 71.5018 39.4566C71.333 39.1313 71.1795 38.7946 71.0414 38.4466C70.9109 38.0911 70.7997 37.762 70.7076 37.4594C70.6232 37.1568 70.5656 36.9222 70.5349 36.7558C70.5349 36.7331 70.5311 36.7104 70.5234 36.6877C70.5234 36.665 70.5234 36.6385 70.5234 36.6083C70.5234 36.5629 70.5311 36.5251 70.5465 36.4948C70.5695 36.457 70.6117 36.4343 70.6731 36.4267C71.0567 36.3813 71.4059 36.3132 71.7205 36.2225C72.0351 36.1241 72.3228 35.9917 72.5837 35.8253C72.8446 35.6513 73.0556 35.4395 73.2168 35.1898C73.3779 34.9326 73.4585 34.63 73.4585 34.282C73.4585 34.002 73.3779 33.7486 73.2168 33.5217C73.0633 33.2871 72.8139 33.132 72.4686 33.0564C72.3765 33.0337 72.2768 33.0186 72.1694 33.011C72.0696 33.0034 71.966 32.9959 71.8586 32.9883C71.6898 33.2153 71.5133 33.4876 71.3291 33.8054C71.145 34.1231 70.9646 34.4597 70.7882 34.8153C70.6117 35.1633 70.4429 35.5113 70.2817 35.8593C70.1283 36.1998 69.9901 36.5137 69.8674 36.8012C69.806 36.9601 69.7139 37.1908 69.5911 37.4934C69.476 37.796 69.3571 38.1251 69.2343 38.4807C69.1115 38.8363 69.0041 39.1805 68.912 39.5134C68.8276 39.8387 68.7854 40.1072 68.7854 40.3191C68.7854 40.4325 68.8008 40.5157 68.8315 40.5687H67.3467Z" fill="white"/>
<path d="M75.6618 40.5687C75.539 40.5687 75.447 40.5195 75.3856 40.4212C75.3319 40.3228 75.305 40.1942 75.305 40.0354C75.305 39.816 75.3395 39.5587 75.4086 39.2637C75.4853 38.9687 75.5774 38.6623 75.6848 38.3445C75.7999 38.0268 75.915 37.7242 76.0301 37.4367C76.1452 37.1416 76.245 36.892 76.3294 36.6877H75.6963C75.635 36.6877 75.6043 36.665 75.6043 36.6196C75.6043 36.5742 75.6388 36.5137 75.7079 36.4381C75.7769 36.3548 75.8575 36.283 75.9496 36.2225C76.0416 36.1619 76.1184 36.1317 76.1798 36.1317H76.5711C76.7629 35.6853 76.9433 35.2692 77.1121 34.8834C77.2809 34.49 77.4919 34.0739 77.7451 33.6351C77.8065 33.5292 77.864 33.4309 77.9178 33.3401C77.9715 33.2417 78.0329 33.1547 78.1019 33.0791C77.6876 33.132 77.2617 33.2115 76.8243 33.3174C76.3946 33.4233 76.0109 33.5595 75.6733 33.7259C75.3357 33.8924 75.0978 34.0891 74.9597 34.316C74.952 34.3387 74.9367 34.3501 74.9137 34.3501C74.8983 34.3501 74.8868 34.3349 74.8791 34.3047C74.8638 34.2744 74.86 34.2404 74.8676 34.2025C74.9444 34.0058 75.0403 33.8167 75.1554 33.6351C75.2705 33.4536 75.3817 33.3098 75.4892 33.2039C75.658 33.0299 75.8882 32.9051 76.1798 32.8294C76.4713 32.7538 76.7706 32.7046 77.0775 32.6819C77.3921 32.6592 77.6607 32.6479 77.8832 32.6479H80.1622C80.4308 32.6479 80.6686 32.6403 80.8758 32.6252C81.0907 32.6025 81.271 32.5911 81.4168 32.5911C81.6547 32.5911 81.7928 32.6479 81.8311 32.7613C81.8388 32.7916 81.8427 32.8219 81.8427 32.8521C81.8503 32.8748 81.8542 32.9051 81.8542 32.9429C81.8542 33.0942 81.8196 33.2682 81.7506 33.4649C81.6815 33.654 81.6048 33.8394 81.5204 34.021C81.4436 34.195 81.3823 34.3387 81.3362 34.4522C81.3285 34.49 81.3055 34.5165 81.2672 34.5316C81.2365 34.5467 81.2058 34.5543 81.1751 34.5543C81.1367 34.5543 81.1022 34.5467 81.0715 34.5316C81.0485 34.5165 81.0408 34.4673 81.0485 34.3841C81.0638 34.2933 81.083 34.1912 81.106 34.0777C81.129 33.9642 81.1405 33.8659 81.1405 33.7827C81.1405 33.5406 81.0408 33.3552 80.8413 33.2266C80.6495 33.0904 80.4077 33.0223 80.1162 33.0223C79.9013 33.0223 79.7248 33.0413 79.5867 33.0791C79.4486 33.1093 79.3373 33.1888 79.2529 33.3174C78.946 33.7637 78.6659 34.2214 78.4127 34.6905C78.1671 35.1595 77.9369 35.6399 77.7221 36.1317H80.7262C80.7492 36.1317 80.7339 36.1771 80.6801 36.2678C80.6341 36.3586 80.5727 36.4532 80.496 36.5515C80.4269 36.6423 80.3655 36.6877 80.3118 36.6877H77.4689C77.3845 36.8995 77.2847 37.1568 77.1696 37.4594C77.0545 37.762 76.9471 38.0608 76.8473 38.3559C76.7553 38.6509 76.6824 38.9043 76.6286 39.1162C76.5826 39.2977 76.5596 39.4604 76.5596 39.6041C76.5596 39.7933 76.6171 39.937 76.7322 40.0354C76.855 40.1337 77.066 40.1829 77.3653 40.1829C77.7796 40.1829 78.194 40.1677 78.6084 40.1375C79.0227 40.0997 79.4294 40.024 79.8284 39.9105C80.1737 39.8122 80.4806 39.6798 80.7492 39.5134C81.0254 39.3469 81.225 39.1389 81.3477 38.8892C81.3631 38.859 81.3861 38.8438 81.4168 38.8438C81.4705 38.8438 81.4974 38.8854 81.4974 38.9687C81.4974 38.9838 81.4935 39.0027 81.4858 39.0254C81.4858 39.0481 81.482 39.0746 81.4743 39.1048C81.4129 39.3015 81.3401 39.4755 81.2556 39.6268C81.1712 39.7781 81.083 39.9067 80.9909 40.0127C80.7761 40.2699 80.4998 40.4287 80.1622 40.4893C79.8246 40.5422 79.487 40.5687 79.1493 40.5687H75.6618Z" fill="white"/>
<path d="M88.2794 40.6595C87.9878 40.6595 87.7653 40.5838 87.6118 40.4325C87.4584 40.2812 87.3548 40.0883 87.3011 39.8538C87.2474 39.6193 87.2128 39.3772 87.1975 39.1275C87.1975 38.9838 87.2051 38.8136 87.2205 38.6169C87.2358 38.4202 87.255 38.231 87.278 38.0495C87.3087 37.8603 87.3318 37.7204 87.3471 37.6296H84.7113C84.2202 38.1365 83.7522 38.632 83.3071 39.1162C82.8697 39.5928 82.44 40.077 82.018 40.5687H80.867C81.0665 40.3871 81.3274 40.1451 81.6497 39.8424C81.9796 39.5323 82.3518 39.1805 82.7661 38.7871C83.1805 38.3937 83.6102 37.9776 84.0553 37.5388C84.508 37.0925 84.9607 36.6461 85.4134 36.1998C85.8662 35.7458 86.292 35.3108 86.691 34.8948C87.0977 34.4711 87.4584 34.089 87.773 33.7486C87.9264 33.5822 88.0684 33.4157 88.1988 33.2493C88.337 33.0753 88.4904 32.9316 88.6592 32.8181C88.8281 32.7046 89.0352 32.6479 89.2808 32.6479H90.1095C89.979 32.7689 89.8486 32.9732 89.7182 33.2607C89.5877 33.5481 89.4688 33.8583 89.3613 34.1912C89.2616 34.5241 89.1772 34.8267 89.1081 35.099C89.0084 35.5075 88.9048 35.9501 88.7974 36.4267C88.6976 36.9033 88.617 37.3762 88.5556 37.8452C88.4943 38.3143 88.4751 38.7493 88.4981 39.1502C88.5058 39.294 88.5326 39.4453 88.5787 39.6041C88.6324 39.7554 88.7053 39.8878 88.7974 40.0013C88.8971 40.1072 89.0199 40.1602 89.1657 40.1602C89.2961 40.1602 89.4381 40.111 89.5915 40.0127L89.6606 40.1148C89.5609 40.2661 89.369 40.3947 89.0851 40.5006C88.8089 40.6065 88.5403 40.6595 88.2794 40.6595ZM83.6754 34.9061C83.5527 34.7775 83.4606 34.6451 83.3992 34.5089C83.3455 34.3727 83.3186 34.2441 83.3186 34.1231C83.3186 33.9718 83.3493 33.828 83.4107 33.6919C83.4798 33.5481 83.5603 33.4271 83.6524 33.3287C83.8366 33.1245 84.0668 32.9732 84.343 32.8748C84.6192 32.7765 84.9108 32.716 85.2178 32.6933C85.5324 32.663 85.8316 32.6479 86.1155 32.6479H88.6938C88.5326 32.8067 88.2871 32.9316 87.9571 33.0223C87.6349 33.1056 87.2819 33.1699 86.8982 33.2153C86.5146 33.2531 86.1424 33.2909 85.7818 33.3287C85.4288 33.359 85.1372 33.4006 84.907 33.4536C84.5003 33.5444 84.1895 33.7184 83.9747 33.9756C83.7675 34.2328 83.6678 34.543 83.6754 34.9061ZM85.2178 37.0622H87.4277C87.5198 36.5629 87.6272 36.0636 87.75 35.5643C87.8804 35.065 87.9955 34.6262 88.0953 34.2479C87.6272 34.6867 87.1476 35.1444 86.6565 35.621C86.1731 36.0901 85.6935 36.5705 85.2178 37.0622Z" fill="white"/>
<path d="M90.9621 40.5687C90.801 40.5687 90.6821 40.512 90.6053 40.3985C90.5363 40.285 90.5017 40.1299 90.5017 39.9332C90.5017 39.8197 90.5132 39.6949 90.5363 39.5587C90.5593 39.4226 90.5861 39.2788 90.6168 39.1275C90.7089 38.7266 90.8509 38.284 91.0427 37.7998C91.2422 37.3081 91.4686 36.805 91.7218 36.2905C91.9827 35.7685 92.2436 35.2617 92.5045 34.7699C92.773 34.2782 93.0224 33.828 93.2526 33.4195C93.268 33.3893 93.2986 33.3325 93.3447 33.2493C93.3984 33.1661 93.4406 33.1056 93.4713 33.0677C93.172 33.0753 92.8498 33.1131 92.5045 33.1812C92.1668 33.2417 91.8407 33.3287 91.5261 33.4422C91.2192 33.5557 90.9545 33.6881 90.7319 33.8394C90.5171 33.9907 90.379 34.1571 90.3176 34.3387C90.3099 34.3614 90.2945 34.3727 90.2715 34.3727C90.2025 34.3727 90.1679 34.3198 90.1679 34.2139C90.1679 34.1912 90.1756 34.1571 90.191 34.1117C90.2677 33.915 90.3559 33.741 90.4557 33.5897C90.5554 33.4384 90.659 33.3098 90.7665 33.2039C91.0197 32.9467 91.3036 32.7916 91.6182 32.7386C91.9328 32.6781 92.2666 32.6479 92.6196 32.6479H95.2323C95.0635 32.7765 94.864 33.011 94.6338 33.3514C94.4036 33.6843 94.1657 34.0626 93.9202 34.4862C93.8128 34.6754 93.6785 34.9212 93.5173 35.2238C93.3562 35.5265 93.1874 35.8631 93.0109 36.2338C92.8344 36.5969 92.6656 36.9639 92.5045 37.3346C92.3433 37.7053 92.2052 38.057 92.0901 38.3899C91.975 38.7152 91.9021 38.9951 91.8714 39.2297C91.8637 39.2675 91.8599 39.3053 91.8599 39.3431C91.8599 39.3734 91.8599 39.4074 91.8599 39.4453C91.8599 39.6571 91.9175 39.8349 92.0326 39.9786C92.1476 40.1148 92.3625 40.1829 92.6771 40.1829C93.0838 40.1829 93.4943 40.1677 93.9087 40.1375C94.3307 40.0997 94.7412 40.024 95.1402 39.9105C95.4779 39.8122 95.7848 39.6798 96.061 39.5134C96.3373 39.3469 96.5368 39.1389 96.6595 38.8892C96.6749 38.859 96.6941 38.8438 96.7171 38.8438C96.7708 38.8438 96.7977 38.8854 96.7977 38.9687C96.7977 38.9838 96.7938 39.0027 96.7862 39.0254C96.7862 39.0481 96.7823 39.0746 96.7746 39.1048C96.7133 39.3015 96.6404 39.4755 96.556 39.6268C96.4716 39.7781 96.3871 39.9067 96.3027 40.0127C96.0879 40.2699 95.8078 40.4287 95.4625 40.4893C95.1249 40.5422 94.7873 40.5687 94.4496 40.5687H90.9621Z" fill="white"/>
<path d="M100.874 40.5687C100.751 40.5687 100.659 40.5195 100.597 40.4212C100.544 40.3228 100.517 40.1942 100.517 40.0354C100.517 39.816 100.551 39.5587 100.62 39.2637C100.697 38.9687 100.789 38.6623 100.897 38.3445C101.012 38.0268 101.127 37.7242 101.242 37.4367C101.357 37.1416 101.457 36.892 101.541 36.6877H100.908C100.847 36.6877 100.816 36.665 100.816 36.6196C100.816 36.5742 100.851 36.5137 100.92 36.4381C100.989 36.3548 101.069 36.283 101.161 36.2225C101.253 36.1619 101.33 36.1317 101.391 36.1317H101.783C101.975 35.6853 102.155 35.2692 102.324 34.8834C102.493 34.49 102.704 34.0739 102.957 33.6351C103.018 33.5292 103.076 33.4309 103.129 33.3401C103.183 33.2417 103.245 33.1547 103.314 33.0791C102.899 33.132 102.473 33.2115 102.036 33.3174C101.606 33.4233 101.223 33.5595 100.885 33.7259C100.547 33.8924 100.31 34.0891 100.171 34.316C100.164 34.3387 100.148 34.3501 100.125 34.3501C100.11 34.3501 100.099 34.3349 100.091 34.3047C100.076 34.2744 100.072 34.2404 100.079 34.2025C100.156 34.0058 100.252 33.8167 100.367 33.6351C100.482 33.4536 100.593 33.3098 100.701 33.2039C100.87 33.0299 101.1 32.9051 101.391 32.8294C101.683 32.7538 101.982 32.7046 102.289 32.6819C102.604 32.6592 102.872 32.6479 103.095 32.6479H105.374C105.642 32.6479 105.88 32.6403 106.088 32.6252C106.302 32.6025 106.483 32.5911 106.629 32.5911C106.866 32.5911 107.005 32.6479 107.043 32.7613C107.051 32.7916 107.054 32.8219 107.054 32.8521C107.062 32.8748 107.066 32.9051 107.066 32.9429C107.066 33.0942 107.031 33.2682 106.962 33.4649C106.893 33.654 106.817 33.8394 106.732 34.021C106.655 34.195 106.594 34.3387 106.548 34.4522C106.54 34.49 106.517 34.5165 106.479 34.5316C106.448 34.5467 106.417 34.5543 106.387 34.5543C106.348 34.5543 106.314 34.5467 106.283 34.5316C106.26 34.5165 106.253 34.4673 106.26 34.3841C106.276 34.2933 106.295 34.1912 106.318 34.0777C106.341 33.9642 106.352 33.8659 106.352 33.7827C106.352 33.5406 106.253 33.3552 106.053 33.2266C105.861 33.0904 105.619 33.0223 105.328 33.0223C105.113 33.0223 104.937 33.0413 104.798 33.0791C104.66 33.1093 104.549 33.1888 104.465 33.3174C104.158 33.7637 103.878 34.2214 103.624 34.6905C103.379 35.1595 103.149 35.6399 102.934 36.1317H105.938C105.961 36.1317 105.946 36.1771 105.892 36.2678C105.846 36.3586 105.784 36.4532 105.708 36.5515C105.639 36.6423 105.577 36.6877 105.524 36.6877H102.681C102.596 36.8995 102.496 37.1568 102.381 37.4594C102.266 37.762 102.159 38.0608 102.059 38.3559C101.967 38.6509 101.894 38.9043 101.84 39.1162C101.794 39.2977 101.771 39.4604 101.771 39.6041C101.771 39.7933 101.829 39.937 101.944 40.0354C102.067 40.1337 102.278 40.1829 102.577 40.1829C102.991 40.1829 103.406 40.1677 103.82 40.1375C104.234 40.0997 104.641 40.024 105.04 39.9105C105.385 39.8122 105.692 39.6798 105.961 39.5134C106.237 39.3469 106.437 39.1389 106.559 38.8892C106.575 38.859 106.598 38.8438 106.629 38.8438C106.682 38.8438 106.709 38.8854 106.709 38.9687C106.709 38.9838 106.705 39.0027 106.698 39.0254C106.698 39.0481 106.694 39.0746 106.686 39.1048C106.625 39.3015 106.552 39.4755 106.467 39.6268C106.383 39.7781 106.295 39.9067 106.203 40.0127C105.988 40.2699 105.712 40.4287 105.374 40.4893C105.036 40.5422 104.699 40.5687 104.361 40.5687H100.874Z" fill="white"/>
<path d="M109.259 40.7957C108.875 40.7957 108.518 40.7616 108.188 40.6935C107.858 40.6254 107.582 40.512 107.359 40.3531C107.206 40.2396 107.087 40.0959 107.003 39.9219C106.926 39.7479 106.888 39.5701 106.888 39.3885C106.888 39.1616 106.953 38.9497 107.083 38.753C107.214 38.5563 107.421 38.424 107.705 38.3559C107.743 38.3483 107.778 38.3445 107.808 38.3445C107.847 38.3369 107.881 38.3332 107.912 38.3332C108.065 38.3332 108.2 38.3672 108.315 38.4353C108.438 38.5034 108.522 38.5828 108.568 38.6736C108.537 38.6963 108.495 38.7379 108.441 38.7984C108.388 38.8514 108.353 38.8968 108.338 38.9346C108.223 39.1237 108.165 39.3129 108.165 39.502C108.165 39.7592 108.265 39.971 108.464 40.1375C108.672 40.2964 108.94 40.3758 109.27 40.3758C109.569 40.3758 109.849 40.3039 110.11 40.1602C110.379 40.0089 110.594 39.8084 110.755 39.5587C110.924 39.3091 111.008 39.0216 111.008 38.6963C111.008 38.4542 110.951 38.197 110.835 37.9246C110.736 37.6901 110.598 37.4821 110.421 37.3005C110.252 37.1189 110.091 36.9487 109.938 36.7899C109.731 36.5705 109.531 36.3586 109.339 36.1544C109.155 35.9425 109.002 35.7156 108.879 35.4735C108.764 35.2238 108.706 34.9439 108.706 34.6337C108.706 34.3387 108.768 34.0512 108.89 33.7713C109.021 33.4914 109.205 33.2531 109.443 33.0564C109.711 32.8294 110.018 32.6706 110.364 32.5798C110.709 32.489 111.07 32.4436 111.446 32.4436C111.914 32.4436 112.282 32.5041 112.55 32.6252C112.827 32.7386 113.022 32.8862 113.137 33.0677C113.26 33.2493 113.322 33.4422 113.322 33.6465C113.322 33.8432 113.276 34.0323 113.184 34.2139C113.099 34.3954 112.98 34.5505 112.827 34.6791C112.673 34.8002 112.504 34.8758 112.32 34.9061C112.29 34.9137 112.259 34.9174 112.228 34.9174C112.197 34.9174 112.163 34.9174 112.125 34.9174C111.956 34.9174 111.806 34.8796 111.676 34.804C111.553 34.7283 111.492 34.5997 111.492 34.4181C111.492 34.3954 111.492 34.369 111.492 34.3387C111.499 34.3084 111.507 34.2782 111.515 34.2479C111.653 34.2479 111.795 34.1987 111.94 34.1004C112.086 34.002 112.182 33.8924 112.228 33.7713C112.267 33.673 112.286 33.5822 112.286 33.499C112.286 33.2947 112.19 33.1358 111.998 33.0223C111.814 32.9013 111.595 32.8408 111.342 32.8408C111.043 32.8408 110.774 32.9051 110.536 33.0337C110.306 33.1547 110.126 33.3174 109.995 33.5217C109.865 33.7184 109.8 33.934 109.8 34.1685C109.8 34.403 109.872 34.63 110.018 34.8494C110.141 35.0234 110.295 35.2049 110.479 35.3941C110.663 35.5756 110.851 35.7534 111.043 35.9274C111.234 36.0938 111.399 36.2489 111.538 36.3927C111.852 36.6953 112.079 37.0055 112.217 37.3232C112.355 37.6334 112.424 37.9398 112.424 38.2424C112.424 38.5904 112.339 38.9195 112.171 39.2297C112.009 39.5323 111.783 39.8008 111.492 40.0354C111.2 40.2699 110.862 40.4552 110.479 40.5914C110.095 40.7276 109.688 40.7957 109.259 40.7957Z" fill="white"/>
<path d="M116.079 40.8184C115.826 40.8184 115.657 40.7314 115.572 40.5574C115.488 40.3758 115.446 40.1753 115.446 39.9559C115.446 39.8046 115.457 39.6571 115.48 39.5134C115.503 39.362 115.526 39.2372 115.549 39.1389C115.611 38.8514 115.711 38.511 115.849 38.1176C115.987 37.7166 116.144 37.2967 116.321 36.8579C116.505 36.4116 116.697 35.9728 116.896 35.5416C117.096 35.1028 117.287 34.6943 117.472 34.316C117.663 33.9302 117.832 33.6011 117.978 33.3287C117.802 33.3363 117.598 33.3363 117.368 33.3287C117.138 33.3136 116.9 33.306 116.654 33.306C116.232 33.306 115.814 33.3401 115.4 33.4082C114.993 33.4687 114.659 33.6162 114.398 33.8507C114.276 33.9642 114.187 34.0853 114.134 34.2139C114.08 34.3425 114.053 34.4711 114.053 34.5997C114.053 34.7434 114.076 34.8834 114.122 35.0196C114.13 35.0347 114.134 35.0536 114.134 35.0763C114.134 35.152 114.095 35.1898 114.019 35.1898C113.973 35.1898 113.938 35.1709 113.915 35.1331C113.838 35.012 113.781 34.891 113.742 34.7699C113.712 34.6413 113.696 34.5165 113.696 34.3954C113.696 34.1836 113.735 33.9831 113.811 33.794C113.888 33.6049 113.98 33.4498 114.088 33.3287C114.356 33.0186 114.721 32.8143 115.181 32.716C115.642 32.61 116.121 32.5571 116.62 32.5571C117.004 32.5571 117.376 32.5722 117.736 32.6025C118.105 32.6327 118.431 32.6554 118.715 32.6706C118.983 32.6857 119.317 32.7122 119.716 32.75C120.115 32.7803 120.503 32.7954 120.879 32.7954C121.216 32.7954 121.519 32.7727 121.788 32.7273C122.056 32.6819 122.252 32.5987 122.375 32.4776C122.398 32.523 122.409 32.576 122.409 32.6365C122.409 32.7954 122.317 32.9505 122.133 33.1018C121.949 33.2531 121.7 33.3552 121.385 33.4082C121.285 33.4233 121.17 33.4347 121.04 33.4422C120.917 33.4498 120.786 33.4536 120.648 33.4536C120.418 33.4536 120.188 33.4498 119.958 33.4422C119.728 33.4271 119.524 33.412 119.348 33.3968C119.171 33.3817 119.052 33.3779 118.991 33.3855C118.945 33.4536 118.872 33.5784 118.772 33.76C118.68 33.9415 118.58 34.1382 118.473 34.3501C118.366 34.5619 118.27 34.7548 118.185 34.9288C118.039 35.2314 117.886 35.5718 117.725 35.9501C117.564 36.3284 117.41 36.7104 117.264 37.0962C117.119 37.4821 116.992 37.849 116.885 38.197C116.785 38.545 116.72 38.8438 116.689 39.0935C116.681 39.1162 116.677 39.1427 116.677 39.1729C116.677 39.1956 116.677 39.2183 116.677 39.241C116.677 39.3847 116.704 39.5096 116.758 39.6155C116.819 39.7138 116.911 39.763 117.034 39.763C117.142 39.763 117.272 39.7063 117.426 39.5928C117.579 39.4793 117.756 39.2902 117.955 39.0254C117.993 38.98 118.028 38.9573 118.059 38.9573C118.105 38.9573 118.128 38.9951 118.128 39.0708C118.128 39.1237 118.108 39.1956 118.07 39.2864C118.039 39.3772 117.982 39.4831 117.897 39.6041C117.828 39.7025 117.717 39.8349 117.564 40.0013C117.41 40.1602 117.261 40.2964 117.115 40.4098C116.984 40.5157 116.823 40.6103 116.631 40.6935C116.44 40.7768 116.255 40.8184 116.079 40.8184Z" fill="white"/>
<path d="M126.991 40.6595C126.699 40.6595 126.476 40.5838 126.323 40.4325C126.17 40.2812 126.066 40.0883 126.012 39.8538C125.959 39.6193 125.924 39.3772 125.909 39.1275C125.909 38.9838 125.916 38.8136 125.932 38.6169C125.947 38.4202 125.966 38.231 125.989 38.0495C126.02 37.8603 126.043 37.7204 126.058 37.6296H123.423C122.931 38.1365 122.463 38.632 122.018 39.1162C121.581 39.5928 121.151 40.077 120.729 40.5687H119.578C119.778 40.3871 120.039 40.1451 120.361 39.8424C120.691 39.5323 121.063 39.1805 121.477 38.7871C121.892 38.3937 122.321 37.9776 122.766 37.5388C123.219 37.0925 123.672 36.6461 124.125 36.1998C124.577 35.7458 125.003 35.3108 125.402 34.8948C125.809 34.4711 126.17 34.089 126.484 33.7486C126.638 33.5822 126.78 33.4157 126.91 33.2493C127.048 33.0753 127.202 32.9316 127.37 32.8181C127.539 32.7046 127.746 32.6479 127.992 32.6479H128.821C128.69 32.7689 128.56 32.9732 128.429 33.2607C128.299 33.5481 128.18 33.8583 128.073 34.1912C127.973 34.5241 127.888 34.8267 127.819 35.099C127.72 35.5075 127.616 35.9501 127.509 36.4267C127.409 36.9033 127.328 37.3762 127.267 37.8452C127.205 38.3143 127.186 38.7493 127.209 39.1502C127.217 39.294 127.244 39.4453 127.29 39.6041C127.344 39.7554 127.416 39.8878 127.509 40.0013C127.608 40.1072 127.731 40.1602 127.877 40.1602C128.007 40.1602 128.149 40.111 128.303 40.0127L128.372 40.1148C128.272 40.2661 128.08 40.3947 127.796 40.5006C127.52 40.6065 127.251 40.6595 126.991 40.6595ZM122.387 34.9061C122.264 34.7775 122.172 34.6451 122.11 34.5089C122.057 34.3727 122.03 34.2441 122.03 34.1231C122.03 33.9718 122.061 33.828 122.122 33.6919C122.191 33.5481 122.272 33.4271 122.364 33.3287C122.548 33.1245 122.778 32.9732 123.054 32.8748C123.33 32.7765 123.622 32.716 123.929 32.6933C124.244 32.663 124.543 32.6479 124.827 32.6479H127.405C127.244 32.8067 126.998 32.9316 126.668 33.0223C126.346 33.1056 125.993 33.1699 125.609 33.2153C125.226 33.2531 124.854 33.2909 124.493 33.3287C124.14 33.359 123.848 33.4006 123.618 33.4536C123.211 33.5444 122.901 33.7184 122.686 33.9756C122.479 34.2328 122.379 34.543 122.387 34.9061ZM123.929 37.0622H126.139C126.231 36.5629 126.338 36.0636 126.461 35.5643C126.592 35.065 126.707 34.6262 126.806 34.2479C126.338 34.6867 125.859 35.1444 125.368 35.621C124.884 36.0901 124.405 36.5705 123.929 37.0622Z" fill="white"/>
<path d="M131.264 40.8184C131.011 40.8184 130.842 40.7314 130.758 40.5574C130.674 40.3758 130.631 40.1753 130.631 39.9559C130.631 39.8046 130.643 39.6571 130.666 39.5134C130.689 39.362 130.712 39.2372 130.735 39.1389C130.796 38.8514 130.896 38.511 131.034 38.1176C131.172 37.7166 131.33 37.2967 131.506 36.8579C131.69 36.4116 131.882 35.9728 132.082 35.5416C132.281 35.1028 132.473 34.6943 132.657 34.316C132.849 33.9302 133.018 33.6011 133.164 33.3287C132.987 33.3363 132.784 33.3363 132.553 33.3287C132.323 33.3136 132.085 33.306 131.84 33.306C131.418 33.306 131 33.3401 130.585 33.4082C130.179 33.4687 129.845 33.6162 129.584 33.8507C129.461 33.9642 129.373 34.0853 129.319 34.2139C129.265 34.3425 129.239 34.4711 129.239 34.5997C129.239 34.7434 129.262 34.8834 129.308 35.0196C129.315 35.0347 129.319 35.0536 129.319 35.0763C129.319 35.152 129.281 35.1898 129.204 35.1898C129.158 35.1898 129.124 35.1709 129.101 35.1331C129.024 35.012 128.966 34.891 128.928 34.7699C128.897 34.6413 128.882 34.5165 128.882 34.3954C128.882 34.1836 128.92 33.9831 128.997 33.794C129.074 33.6049 129.166 33.4498 129.273 33.3287C129.542 33.0186 129.906 32.8143 130.367 32.716C130.827 32.61 131.307 32.5571 131.805 32.5571C132.189 32.5571 132.561 32.5722 132.922 32.6025C133.29 32.6327 133.616 32.6554 133.9 32.6706C134.169 32.6857 134.503 32.7122 134.902 32.75C135.301 32.7803 135.688 32.7954 136.064 32.7954C136.402 32.7954 136.705 32.7727 136.973 32.7273C137.242 32.6819 137.438 32.5987 137.56 32.4776C137.583 32.523 137.595 32.576 137.595 32.6365C137.595 32.7954 137.503 32.9505 137.319 33.1018C137.134 33.2531 136.885 33.3552 136.57 33.4082C136.471 33.4233 136.356 33.4347 136.225 33.4422C136.102 33.4498 135.972 33.4536 135.834 33.4536C135.604 33.4536 135.373 33.4498 135.143 33.4422C134.913 33.4271 134.71 33.412 134.533 33.3968C134.357 33.3817 134.238 33.3779 134.176 33.3855C134.13 33.4536 134.057 33.5784 133.958 33.76C133.866 33.9415 133.766 34.1382 133.658 34.3501C133.551 34.5619 133.455 34.7548 133.371 34.9288C133.225 35.2314 133.071 35.5718 132.91 35.9501C132.749 36.3284 132.596 36.7104 132.45 37.0962C132.304 37.4821 132.178 37.849 132.07 38.197C131.97 38.545 131.905 38.8438 131.874 39.0935C131.867 39.1162 131.863 39.1427 131.863 39.1729C131.863 39.1956 131.863 39.2183 131.863 39.241C131.863 39.3847 131.89 39.5096 131.943 39.6155C132.005 39.7138 132.097 39.763 132.22 39.763C132.327 39.763 132.458 39.7063 132.611 39.5928C132.765 39.4793 132.941 39.2902 133.141 39.0254C133.179 38.98 133.213 38.9573 133.244 38.9573C133.29 38.9573 133.313 38.9951 133.313 39.0708C133.313 39.1237 133.294 39.1956 133.256 39.2864C133.225 39.3772 133.167 39.4831 133.083 39.6041C133.014 39.7025 132.903 39.8349 132.749 40.0013C132.596 40.1602 132.446 40.2964 132.3 40.4098C132.17 40.5157 132.009 40.6103 131.817 40.6935C131.625 40.7768 131.441 40.8184 131.264 40.8184Z" fill="white"/>
<path d="M137.854 40.5687C137.731 40.5687 137.639 40.5195 137.577 40.4212C137.524 40.3228 137.497 40.1942 137.497 40.0354C137.497 39.816 137.531 39.5587 137.601 39.2637C137.677 38.9687 137.769 38.6623 137.877 38.3445C137.992 38.0268 138.107 37.7242 138.222 37.4367C138.337 37.1416 138.437 36.892 138.521 36.6877H137.888C137.827 36.6877 137.796 36.665 137.796 36.6196C137.796 36.5742 137.831 36.5137 137.9 36.4381C137.969 36.3548 138.049 36.283 138.141 36.2225C138.234 36.1619 138.31 36.1317 138.372 36.1317H138.763C138.955 35.6853 139.135 35.2692 139.304 34.8834C139.473 34.49 139.684 34.0739 139.937 33.6351C139.998 33.5292 140.056 33.4309 140.11 33.3401C140.163 33.2417 140.225 33.1547 140.294 33.0791C139.879 33.132 139.454 33.2115 139.016 33.3174C138.587 33.4233 138.203 33.5595 137.865 33.7259C137.528 33.8924 137.29 34.0891 137.152 34.316C137.144 34.3387 137.129 34.3501 137.106 34.3501C137.09 34.3501 137.079 34.3349 137.071 34.3047C137.056 34.2744 137.052 34.2404 137.06 34.2025C137.136 34.0058 137.232 33.8167 137.347 33.6351C137.462 33.4536 137.574 33.3098 137.681 33.2039C137.85 33.0299 138.08 32.9051 138.372 32.8294C138.663 32.7538 138.963 32.7046 139.269 32.6819C139.584 32.6592 139.853 32.6479 140.075 32.6479H142.354C142.623 32.6479 142.861 32.6403 143.068 32.6252C143.283 32.6025 143.463 32.5911 143.609 32.5911C143.847 32.5911 143.985 32.6479 144.023 32.7613C144.031 32.7916 144.035 32.8219 144.035 32.8521C144.042 32.8748 144.046 32.9051 144.046 32.9429C144.046 33.0942 144.012 33.2682 143.942 33.4649C143.873 33.654 143.797 33.8394 143.712 34.021C143.636 34.195 143.574 34.3387 143.528 34.4522C143.52 34.49 143.497 34.5165 143.459 34.5316C143.428 34.5467 143.398 34.5543 143.367 34.5543C143.329 34.5543 143.294 34.5467 143.263 34.5316C143.24 34.5165 143.233 34.4673 143.24 34.3841C143.256 34.2933 143.275 34.1912 143.298 34.0777C143.321 33.9642 143.332 33.8659 143.332 33.7827C143.332 33.5406 143.233 33.3552 143.033 33.2266C142.841 33.0904 142.6 33.0223 142.308 33.0223C142.093 33.0223 141.917 33.0413 141.779 33.0791C141.641 33.1093 141.529 33.1888 141.445 33.3174C141.138 33.7637 140.858 34.2214 140.605 34.6905C140.359 35.1595 140.129 35.6399 139.914 36.1317H142.918C142.941 36.1317 142.926 36.1771 142.872 36.2678C142.826 36.3586 142.765 36.4532 142.688 36.5515C142.619 36.6423 142.557 36.6877 142.504 36.6877H139.661C139.576 36.8995 139.477 37.1568 139.362 37.4594C139.246 37.762 139.139 38.0608 139.039 38.3559C138.947 38.6509 138.874 38.9043 138.821 39.1162C138.775 39.2977 138.752 39.4604 138.752 39.6041C138.752 39.7933 138.809 39.937 138.924 40.0354C139.047 40.1337 139.258 40.1829 139.557 40.1829C139.972 40.1829 140.386 40.1677 140.8 40.1375C141.215 40.0997 141.621 40.024 142.02 39.9105C142.366 39.8122 142.673 39.6798 142.941 39.5134C143.217 39.3469 143.417 39.1389 143.54 38.8892C143.555 38.859 143.578 38.8438 143.609 38.8438C143.662 38.8438 143.689 38.8854 143.689 38.9687C143.689 38.9838 143.685 39.0027 143.678 39.0254C143.678 39.0481 143.674 39.0746 143.666 39.1048C143.605 39.3015 143.532 39.4755 143.448 39.6268C143.363 39.7781 143.275 39.9067 143.183 40.0127C142.968 40.2699 142.692 40.4287 142.354 40.4893C142.017 40.5422 141.679 40.5687 141.341 40.5687H137.854Z" fill="white"/>
<path d="M154.844 40.6595C154.552 40.6595 154.33 40.5838 154.176 40.4325C154.023 40.2812 153.919 40.0883 153.865 39.8538C153.812 39.6193 153.777 39.3772 153.762 39.1275C153.762 38.9838 153.77 38.8136 153.785 38.6169C153.8 38.4202 153.819 38.231 153.842 38.0495C153.873 37.8603 153.896 37.7204 153.911 37.6296H151.276C150.785 38.1365 150.317 38.632 149.871 39.1162C149.434 39.5928 149.004 40.077 148.582 40.5687H147.431C147.631 40.3871 147.892 40.1451 148.214 39.8424C148.544 39.5323 148.916 39.1805 149.331 38.7871C149.745 38.3937 150.175 37.9776 150.62 37.5388C151.072 37.0925 151.525 36.6461 151.978 36.1998C152.431 35.7458 152.856 35.3108 153.255 34.8948C153.662 34.4711 154.023 34.089 154.337 33.7486C154.491 33.5822 154.633 33.4157 154.763 33.2493C154.901 33.0753 155.055 32.9316 155.224 32.8181C155.392 32.7046 155.6 32.6479 155.845 32.6479H156.674C156.543 32.7689 156.413 32.9732 156.283 33.2607C156.152 33.5481 156.033 33.8583 155.926 34.1912C155.826 34.5241 155.742 34.8267 155.672 35.099C155.573 35.5075 155.469 35.9501 155.362 36.4267C155.262 36.9033 155.181 37.3762 155.12 37.8452C155.059 38.3143 155.039 38.7493 155.062 39.1502C155.07 39.294 155.097 39.4453 155.143 39.6041C155.197 39.7554 155.27 39.8878 155.362 40.0013C155.461 40.1072 155.584 40.1602 155.73 40.1602C155.86 40.1602 156.002 40.111 156.156 40.0127L156.225 40.1148C156.125 40.2661 155.933 40.3947 155.649 40.5006C155.373 40.6065 155.105 40.6595 154.844 40.6595ZM150.24 34.9061C150.117 34.7775 150.025 34.6451 149.964 34.5089C149.91 34.3727 149.883 34.2441 149.883 34.1231C149.883 33.9718 149.914 33.828 149.975 33.6919C150.044 33.5481 150.125 33.4271 150.217 33.3287C150.401 33.1245 150.631 32.9732 150.907 32.8748C151.184 32.7765 151.475 32.716 151.782 32.6933C152.097 32.663 152.396 32.6479 152.68 32.6479H155.258C155.097 32.8067 154.851 32.9316 154.521 33.0223C154.199 33.1056 153.846 33.1699 153.463 33.2153C153.079 33.2531 152.707 33.2909 152.346 33.3287C151.993 33.359 151.702 33.4006 151.471 33.4536C151.065 33.5444 150.754 33.7184 150.539 33.9756C150.332 34.2328 150.232 34.543 150.24 34.9061ZM151.782 37.0622H153.992C154.084 36.5629 154.192 36.0636 154.314 35.5643C154.445 35.065 154.56 34.6262 154.66 34.2479C154.192 34.6867 153.712 35.1444 153.221 35.621C152.737 36.0901 152.258 36.5705 151.782 37.0622Z" fill="white"/>
<path d="M159.475 40.9999C159.122 40.9999 158.75 40.9583 158.358 40.8751C157.975 40.7994 157.652 40.6784 157.392 40.512C157.031 40.2699 156.766 39.9597 156.597 39.5814C156.429 39.2032 156.344 38.7909 156.344 38.3445C156.344 37.8982 156.417 37.4329 156.563 36.9487C156.716 36.4645 156.935 35.9917 157.219 35.5302C157.503 35.0612 157.837 34.63 158.22 34.2366C158.612 33.8356 159.049 33.4952 159.532 33.2153C160.016 32.9353 160.53 32.7424 161.075 32.6365C161.42 32.5684 161.75 32.5344 162.065 32.5344C162.678 32.5344 163.17 32.6554 163.538 32.8975C163.906 33.132 164.09 33.4347 164.09 33.8054C164.09 33.881 164.083 33.9567 164.067 34.0323C164.06 34.1004 164.037 34.1761 163.998 34.2593C163.914 34.4787 163.772 34.6754 163.572 34.8494C163.381 35.0158 163.158 35.1444 162.905 35.2352C162.659 35.326 162.406 35.3638 162.145 35.3487C162.022 35.3335 161.915 35.2919 161.823 35.2238C161.738 35.1482 161.696 35.0574 161.696 34.9515C161.696 34.8456 161.742 34.7321 161.834 34.6111C161.919 34.6413 162.015 34.6564 162.122 34.6564C162.314 34.6564 162.502 34.6111 162.686 34.5203C162.87 34.4295 163.024 34.3047 163.146 34.1458C163.269 33.9869 163.331 33.8091 163.331 33.6124C163.331 33.3477 163.239 33.1737 163.054 33.0904C162.87 32.9997 162.663 32.9543 162.433 32.9543C162.279 32.9543 162.126 32.9694 161.972 32.9997C161.827 33.0223 161.708 33.045 161.616 33.0677C161.178 33.1812 160.752 33.4006 160.338 33.7259C159.924 34.0437 159.544 34.4219 159.199 34.8607C158.861 35.2995 158.577 35.7534 158.347 36.2225C158.201 36.5251 158.067 36.892 157.944 37.3232C157.821 37.7544 157.76 38.1781 157.76 38.5942C157.76 38.8136 157.779 39.0254 157.817 39.2297C157.863 39.4264 157.936 39.6079 158.036 39.7744C158.197 40.0467 158.42 40.2358 158.704 40.3417C158.995 40.4477 159.298 40.5006 159.613 40.5006C159.851 40.5006 160.085 40.4817 160.315 40.4439C160.553 40.3985 160.768 40.3417 160.96 40.2737C161.205 40.1904 161.443 40.077 161.673 39.9332C161.903 39.7819 162.114 39.6117 162.306 39.4226C162.521 39.2032 162.701 38.9649 162.847 38.7076C163.001 38.4504 163.1 38.1819 163.146 37.9019H162.536C162.199 37.9019 161.85 37.9057 161.489 37.9133C161.128 37.9133 160.856 37.9284 160.672 37.9587C160.672 37.9587 160.699 37.9133 160.752 37.8225C160.806 37.7242 160.875 37.6145 160.96 37.4934C161.044 37.3648 161.132 37.2551 161.224 37.1643C161.324 37.066 161.416 37.0168 161.501 37.0168H164.873C164.819 37.3043 164.723 37.5086 164.585 37.6296C164.447 37.7506 164.274 37.8301 164.067 37.8679C164.029 37.9738 163.991 38.0797 163.952 38.1856C163.914 38.284 163.875 38.3634 163.837 38.424C163.407 39.294 162.82 39.9408 162.076 40.3644C161.332 40.7881 160.465 40.9999 159.475 40.9999Z" fill="white"/>
<path d="M165.313 40.5687C165.191 40.5687 165.099 40.5195 165.037 40.4212C164.984 40.3228 164.957 40.1942 164.957 40.0354C164.957 39.816 164.991 39.5587 165.06 39.2637C165.137 38.9687 165.229 38.6623 165.337 38.3445C165.452 38.0268 165.567 37.7242 165.682 37.4367C165.797 37.1416 165.897 36.892 165.981 36.6877H165.348C165.287 36.6877 165.256 36.665 165.256 36.6196C165.256 36.5742 165.29 36.5137 165.36 36.4381C165.429 36.3548 165.509 36.283 165.601 36.2225C165.693 36.1619 165.77 36.1317 165.831 36.1317H166.223C166.415 35.6853 166.595 35.2692 166.764 34.8834C166.933 34.49 167.144 34.0739 167.397 33.6351C167.458 33.5292 167.516 33.4309 167.569 33.3401C167.623 33.2417 167.685 33.1547 167.754 33.0791C167.339 33.132 166.913 33.2115 166.476 33.3174C166.046 33.4233 165.663 33.5595 165.325 33.7259C164.987 33.8924 164.75 34.0891 164.611 34.316C164.604 34.3387 164.588 34.3501 164.565 34.3501C164.55 34.3501 164.538 34.3349 164.531 34.3047C164.515 34.2744 164.512 34.2404 164.519 34.2025C164.596 34.0058 164.692 33.8167 164.807 33.6351C164.922 33.4536 165.033 33.3098 165.141 33.2039C165.31 33.0299 165.54 32.9051 165.831 32.8294C166.123 32.7538 166.422 32.7046 166.729 32.6819C167.044 32.6592 167.312 32.6479 167.535 32.6479H169.814C170.082 32.6479 170.32 32.6403 170.528 32.6252C170.742 32.6025 170.923 32.5911 171.068 32.5911C171.306 32.5911 171.444 32.6479 171.483 32.7613C171.491 32.7916 171.494 32.8219 171.494 32.8521C171.502 32.8748 171.506 32.9051 171.506 32.9429C171.506 33.0942 171.471 33.2682 171.402 33.4649C171.333 33.654 171.256 33.8394 171.172 34.021C171.095 34.195 171.034 34.3387 170.988 34.4522C170.98 34.49 170.957 34.5165 170.919 34.5316C170.888 34.5467 170.857 34.5543 170.827 34.5543C170.788 34.5543 170.754 34.5467 170.723 34.5316C170.7 34.5165 170.692 34.4673 170.7 34.3841C170.716 34.2933 170.735 34.1912 170.758 34.0777C170.781 33.9642 170.792 33.8659 170.792 33.7827C170.792 33.5406 170.692 33.3552 170.493 33.2266C170.301 33.0904 170.059 33.0223 169.768 33.0223C169.553 33.0223 169.377 33.0413 169.238 33.0791C169.1 33.1093 168.989 33.1888 168.905 33.3174C168.598 33.7637 168.318 34.2214 168.064 34.6905C167.819 35.1595 167.589 35.6399 167.374 36.1317H170.378C170.401 36.1317 170.386 36.1771 170.332 36.2678C170.286 36.3586 170.224 36.4532 170.148 36.5515C170.079 36.6423 170.017 36.6877 169.964 36.6877H167.121C167.036 36.8995 166.936 37.1568 166.821 37.4594C166.706 37.762 166.599 38.0608 166.499 38.3559C166.407 38.6509 166.334 38.9043 166.28 39.1162C166.234 39.2977 166.211 39.4604 166.211 39.6041C166.211 39.7933 166.269 39.937 166.384 40.0354C166.507 40.1337 166.718 40.1829 167.017 40.1829C167.431 40.1829 167.846 40.1677 168.26 40.1375C168.674 40.0997 169.081 40.024 169.48 39.9105C169.825 39.8122 170.132 39.6798 170.401 39.5134C170.677 39.3469 170.877 39.1389 170.999 38.8892C171.015 38.859 171.038 38.8438 171.068 38.8438C171.122 38.8438 171.149 38.8854 171.149 38.9687C171.149 38.9838 171.145 39.0027 171.138 39.0254C171.138 39.0481 171.134 39.0746 171.126 39.1048C171.065 39.3015 170.992 39.4755 170.907 39.6268C170.823 39.7781 170.735 39.9067 170.643 40.0127C170.428 40.2699 170.152 40.4287 169.814 40.4893C169.476 40.5422 169.139 40.5687 168.801 40.5687H165.313Z" fill="white"/>
<path d="M171.627 40.5687C171.796 40.1451 171.988 39.676 172.203 39.1616C172.425 38.6396 172.655 38.1062 172.893 37.5615C173.131 37.0168 173.365 36.4872 173.595 35.9728C173.833 35.4584 174.048 34.9893 174.24 34.5657C174.44 34.1344 174.604 33.7789 174.735 33.499C174.865 33.219 174.95 33.045 174.988 32.977C174.651 32.9694 174.305 33.0034 173.952 33.0791C173.599 33.1472 173.269 33.2455 172.962 33.3741C172.655 33.5027 172.395 33.6503 172.18 33.8167C171.973 33.9831 171.838 34.1571 171.777 34.3387C171.769 34.3614 171.754 34.3727 171.731 34.3727C171.669 34.3727 171.639 34.3236 171.639 34.2252C171.639 34.2101 171.639 34.195 171.639 34.1798C171.646 34.1571 171.654 34.1344 171.662 34.1117C171.731 33.915 171.815 33.741 171.915 33.5897C172.022 33.4384 172.126 33.3098 172.226 33.2039C172.479 32.9467 172.763 32.7916 173.077 32.7386C173.392 32.6781 173.726 32.6479 174.079 32.6479H176.024C176.009 32.6781 175.978 32.7386 175.932 32.8294C175.886 32.9202 175.863 33.0715 175.863 33.2833C175.863 33.5027 175.905 33.8016 175.99 34.1798C176.082 34.5581 176.258 35.0461 176.519 35.6437C176.619 35.8782 176.711 36.0976 176.795 36.3019C176.88 36.4986 176.953 36.6839 177.014 36.8579C177.129 37.1606 177.213 37.4026 177.267 37.5842C177.321 37.7582 177.355 37.8944 177.371 37.9927C177.394 38.0911 177.405 38.1781 177.405 38.2537C177.413 38.3218 177.421 38.3975 177.428 38.4807C177.52 38.2537 177.647 37.9549 177.808 37.5842C177.969 37.2135 178.146 36.805 178.338 36.3586C178.537 35.9123 178.74 35.4584 178.948 34.9969C179.155 34.5354 179.35 34.1004 179.535 33.6919C179.719 33.2833 179.872 32.9353 179.995 32.6479C180.018 32.61 180.099 32.5911 180.237 32.5911C180.375 32.5911 180.532 32.6025 180.709 32.6252C180.885 32.6479 181.004 32.6592 181.065 32.6592C180.851 32.803 180.62 33.0791 180.375 33.4876C180.137 33.8961 179.876 34.3879 179.592 34.9628C179.354 35.447 179.116 35.9577 178.879 36.4948C178.648 37.0244 178.437 37.5426 178.245 38.0495C178.061 38.5488 177.912 39.0027 177.797 39.4112C177.689 39.8197 177.635 40.1375 177.635 40.3644C177.635 40.4023 177.635 40.4401 177.635 40.4779C177.643 40.5082 177.651 40.5384 177.658 40.5687H176.933C176.926 40.3417 176.899 40.1299 176.853 39.9332C176.807 39.7365 176.734 39.5134 176.634 39.2637C176.534 39.0065 176.396 38.6887 176.22 38.3105C176.051 37.9246 175.84 37.4367 175.587 36.8466C175.364 36.3322 175.199 35.882 175.092 35.4962C174.992 35.1104 174.931 34.7813 174.908 34.5089C174.785 34.7813 174.639 35.1066 174.47 35.4848C174.309 35.8555 174.14 36.2489 173.964 36.665C173.787 37.0811 173.618 37.4972 173.457 37.9133C173.296 38.3294 173.15 38.719 173.02 39.0821C172.897 39.4453 172.805 39.7592 172.744 40.024C172.682 40.2812 172.663 40.4628 172.686 40.5687H171.627Z" fill="white"/>
<path d="M181.128 40.8411C180.483 40.7351 180.011 40.459 179.712 40.0127C179.42 39.5663 179.275 39.0367 179.275 38.424C179.275 37.9776 179.348 37.5123 179.493 37.0282C179.639 36.5364 179.846 36.056 180.115 35.587C180.391 35.1179 180.721 34.6829 181.105 34.282C181.488 33.8734 181.922 33.5254 182.405 33.238C182.889 32.9505 183.414 32.75 183.982 32.6365C184.327 32.5684 184.657 32.5344 184.972 32.5344C185.586 32.5344 186.077 32.6554 186.445 32.8975C186.814 33.132 186.998 33.4347 186.998 33.8054C186.998 33.881 186.99 33.9567 186.975 34.0323C186.967 34.1004 186.944 34.1761 186.906 34.2593C186.821 34.4787 186.679 34.6754 186.48 34.8494C186.288 35.0158 186.065 35.1444 185.812 35.2352C185.567 35.326 185.313 35.3638 185.053 35.3487C184.93 35.3335 184.822 35.2919 184.73 35.2238C184.646 35.1482 184.604 35.0574 184.604 34.9515C184.604 34.8456 184.65 34.7321 184.742 34.6111C184.826 34.6413 184.922 34.6564 185.03 34.6564C185.221 34.6564 185.409 34.6111 185.594 34.5203C185.778 34.4295 185.931 34.3047 186.054 34.1458C186.177 33.9869 186.238 33.8091 186.238 33.6124C186.238 33.3477 186.146 33.1737 185.962 33.0904C185.778 32.9997 185.571 32.9543 185.34 32.9543C185.187 32.9543 185.033 32.9694 184.88 32.9997C184.734 33.0223 184.615 33.045 184.523 33.0677C184.086 33.1812 183.637 33.3893 183.176 33.6919C182.724 33.9869 182.309 34.3501 181.933 34.7813C181.557 35.2049 181.266 35.6702 181.059 36.1771C180.905 36.5478 180.786 36.9222 180.702 37.3005C180.617 37.6788 180.575 38.0381 180.575 38.3786C180.575 38.8173 180.648 39.2032 180.794 39.536C180.947 39.8689 181.189 40.0997 181.519 40.2283C181.818 40.3417 182.125 40.3985 182.44 40.3985C182.946 40.3985 183.457 40.2774 183.971 40.0354C184.492 39.7933 184.972 39.4869 185.409 39.1162C185.678 38.8816 185.92 38.6396 186.135 38.3899C186.349 38.1403 186.514 37.8755 186.629 37.5956C186.775 37.6863 186.848 37.8187 186.848 37.9927C186.848 38.1289 186.806 38.2764 186.722 38.4353C186.645 38.5942 186.553 38.7417 186.445 38.8779C186.346 39.014 186.257 39.12 186.181 39.1956C185.643 39.7479 184.999 40.1715 184.247 40.4666C183.503 40.7616 182.747 40.9091 181.979 40.9091C181.688 40.9091 181.404 40.8864 181.128 40.8411Z" fill="white"/>
<path d="M189.588 40.5687C189.649 40.2964 189.733 40.0013 189.841 39.6836C189.948 39.3583 190.063 39.0216 190.186 38.6736C190.363 38.2197 190.451 37.8074 190.451 37.4367C190.451 37.3989 190.451 37.361 190.451 37.3232C190.451 37.2778 190.447 37.2362 190.439 37.1984C190.393 36.8731 190.309 36.5099 190.186 36.109C190.063 35.708 189.929 35.3146 189.783 34.9288C189.637 34.5505 189.472 34.2252 189.288 33.9529C189.104 33.6805 188.882 33.5444 188.621 33.5444C188.46 33.5444 188.279 33.6124 188.08 33.7486C187.888 33.8848 187.669 34.1117 187.424 34.4295C187.416 34.4371 187.408 34.4408 187.401 34.4408C187.378 34.4408 187.362 34.4144 187.355 34.3614C187.347 34.3084 187.347 34.2706 187.355 34.2479C187.523 33.915 187.7 33.6276 187.884 33.3855C188.076 33.1434 188.302 32.9618 188.563 32.8408C188.832 32.7122 189.165 32.6592 189.565 32.6819C189.948 32.697 190.232 32.8408 190.416 33.1131C190.6 33.3855 190.765 33.7562 190.911 34.2252C191.026 34.6186 191.145 35.0423 191.268 35.4962C191.391 35.9425 191.502 36.3586 191.602 36.7445C191.893 36.3511 192.204 35.9198 192.534 35.4508C192.864 34.9818 193.19 34.5203 193.512 34.0664C193.842 33.6124 194.138 33.2153 194.399 32.8748C194.483 32.7689 194.614 32.7046 194.79 32.6819C194.966 32.6516 195.151 32.6365 195.342 32.6365C195.465 32.6365 195.584 32.6403 195.699 32.6479C195.814 32.6479 195.914 32.6479 195.999 32.6479C195.661 32.8824 195.296 33.1774 194.905 33.533C194.514 33.8886 194.126 34.2857 193.743 34.7245C193.405 35.1104 193.06 35.5681 192.707 36.0976C192.354 36.6272 192.035 37.1984 191.751 37.8112C191.467 38.4164 191.256 39.033 191.118 39.6609C191.088 39.7895 191.065 39.9105 191.049 40.024C191.034 40.1299 191.026 40.2245 191.026 40.3077C191.026 40.4287 191.042 40.5157 191.072 40.5687H189.588Z" fill="white"/>
<path d="M5.21729 38.6773H0L34.0457 1.79663H39.2534L5.21729 38.6773Z" fill="#EFB93F"/>
<path d="M23.5048 38.6773H11.623L45.6592 1.79663H57.5504L23.5048 38.6773Z" fill="#EFB93F"/>
<path d="M48.3406 24.8457H43.209V29.8949H48.3406V24.8457Z" fill="white"/>
<path d="M56.8601 24.8457H51.7285V29.8949H56.8601V24.8457Z" fill="white"/>
<path d="M48.3406 32.77H43.209V37.8192H48.3406V32.77Z" fill="white"/>
<path d="M56.8601 32.77H51.7285V37.8192H56.8601V32.77Z" fill="white"/>
</svg>
