<svg width="70" height="35" viewBox="0 0 70 35" fill="none" xmlns="http://www.w3.org/2000/svg">
<mask id="mask0_984_827" style="mask-type:alpha" maskUnits="userSpaceOnUse" x="0" y="0" width="70" height="35">
<rect width="70" height="35" fill="#D9D9D9"/>
</mask>
<g mask="url(#mask0_984_827)">
<path fill-rule="evenodd" clip-rule="evenodd" d="M34.7726 30.4635C37.7933 33.2872 41.8499 35 46.2624 35C55.7387 35 63.4085 27.1589 63.4085 17.5148C63.4085 7.84146 55.7387 0 46.2624 0C41.8499 0 37.7933 1.71241 34.7726 4.5365C31.3078 7.75094 29.1162 12.3776 29.1162 17.5148C29.1166 22.6521 31.3078 27.2791 34.7726 30.4635Z" fill="#E9B040"/>
<path fill-rule="evenodd" clip-rule="evenodd" d="M61.125 27.2506C61.125 26.95 61.362 26.71 61.6579 26.71C61.9834 26.71 62.2201 26.9504 62.2201 27.2506C62.2201 27.5815 61.9831 27.8216 61.6579 27.8216C61.362 27.8216 61.125 27.5815 61.125 27.2506ZM61.6579 27.7018C61.8949 27.7018 62.1016 27.491 62.1016 27.2509C62.1016 27.0109 61.8946 26.8305 61.6579 26.8305C61.4502 26.8305 61.2435 27.0109 61.2435 27.2509C61.2435 27.491 61.4505 27.7018 61.6579 27.7018ZM61.5987 27.5214H61.4802V27.0105H61.6872C61.7172 27.0105 61.7764 27.0105 61.8057 27.0409C61.8649 27.0706 61.8649 27.101 61.8649 27.1611C61.8649 27.2212 61.8357 27.2814 61.7764 27.2814L61.8949 27.5218H61.7464L61.6872 27.3111H61.5987V27.5214V27.2209H61.7172C61.7464 27.2209 61.7464 27.1905 61.7464 27.1608C61.7464 27.1304 61.7464 27.1304 61.7172 27.1007H61.5987V27.5214Z" fill="#E9B040"/>
<path fill-rule="evenodd" clip-rule="evenodd" d="M40.3284 15.6525C40.2692 15.0217 40.1507 14.421 40.0322 13.7898H29.5489C29.6674 13.159 29.8452 12.5583 30.0226 11.9572H39.5289C39.3225 11.3248 39.0853 10.7031 38.8182 10.0945H30.7632C31.0595 9.45815 31.3857 8.83654 31.7405 8.23182H37.8116C37.421 7.5902 36.9856 6.97776 36.5088 6.39919H33.0437C33.5797 5.73513 34.1637 5.11251 34.7909 4.5365C31.7409 1.74247 27.7132 0 23.2711 0C13.8245 0 6.125 7.84146 6.125 17.5148C6.125 27.1589 13.8245 35 23.2711 35C27.7132 35 31.7405 33.2872 34.7909 30.4635C35.4085 29.8976 35.9828 29.2848 36.5088 28.6305H33.0437C32.5697 28.0298 32.1553 27.429 31.7405 26.7678H37.8116C38.1934 26.1737 38.53 25.5511 38.8186 24.9051H30.7632C30.4966 24.3044 30.2303 23.7037 30.0226 23.0721H39.5289C39.7359 22.4714 39.8844 21.841 40.0318 21.2095C40.1503 20.6087 40.2688 19.9783 40.3281 19.3468C40.3881 18.7377 40.4179 18.1259 40.4173 17.5138C40.4173 16.8841 40.3877 16.2533 40.3284 15.6525Z" fill="#CC2131"/>
<path fill-rule="evenodd" clip-rule="evenodd" d="M61.125 21.5728C61.125 21.2425 61.362 21.0024 61.6579 21.0024C61.9834 21.0024 62.2201 21.2429 62.2201 21.5728C62.2201 21.8733 61.9831 22.1438 61.6579 22.1438C61.362 22.1438 61.125 21.873 61.125 21.5728ZM61.6579 21.9932C61.8949 21.9932 62.1016 21.8129 62.1016 21.5728C62.1016 21.3327 61.8946 21.1524 61.6579 21.1524C61.4502 21.1524 61.2435 21.3327 61.2435 21.5728C61.2435 21.8129 61.4505 21.9932 61.6579 21.9932ZM61.5987 21.8129H61.4802V21.3323H61.8057C61.8649 21.3627 61.8649 21.4229 61.8649 21.483C61.8649 21.5127 61.8357 21.5728 61.7764 21.6032L61.8949 21.8132H61.7464L61.6872 21.6329H61.5987V21.8129V21.5427H61.6579C61.6872 21.5427 61.7172 21.5427 61.7172 21.5123C61.7464 21.5123 61.7464 21.4826 61.7464 21.4522C61.7464 21.4522 61.7464 21.4225 61.7172 21.4225C61.7172 21.3921 61.6872 21.4225 61.6579 21.4225H61.5987V21.8129Z" fill="white"/>
<path fill-rule="evenodd" clip-rule="evenodd" d="M28.9473 22.5667C28.3847 22.7166 27.97 22.8071 27.5556 22.8071C26.6671 22.8071 26.1339 22.2361 26.1339 21.2146C26.1339 21.0046 26.1635 20.7942 26.1931 20.5537L26.3116 19.8632L26.4005 19.2921L27.2001 14.3653H28.9769L28.7695 15.4469H29.8949L29.6283 17.2495H28.5029L28.0292 20.1934C27.9996 20.3441 27.9996 20.4339 27.9996 20.494C27.9996 20.8847 28.1773 21.0346 28.6214 21.0346C28.8288 21.0346 29.0062 21.0049 29.1839 20.9745L28.9473 22.5667ZM34.6925 22.5066C34.0411 22.6869 33.4489 22.7767 32.7972 22.7767C30.7833 22.7767 29.6283 21.6951 29.6283 19.5626C29.6283 17.0688 30.9907 15.2662 32.8857 15.2662C34.3959 15.2662 35.3732 16.2877 35.3732 17.8796C35.3732 18.4209 35.3139 18.9315 35.1661 19.6524H31.4644C31.4347 19.7727 31.4347 19.8328 31.4347 19.8929C31.4347 20.7341 31.9973 21.1545 33.0634 21.1545C33.7445 21.1545 34.3366 21.0046 34.9884 20.7044L34.6925 22.5066ZM33.5967 18.2105V17.8499C33.5967 17.2491 33.2708 16.9185 32.7083 16.9185C32.1158 16.9185 31.7014 17.369 31.5236 18.2102L33.5967 18.2105ZM14.7326 22.6565H12.8966L13.9627 15.8373L11.5641 22.6565H10.2909L10.1428 15.8673L9.01739 22.6565H7.21094L8.66188 13.7942H11.3567L11.416 19.2624L13.2225 13.7942H16.1839L14.7326 22.6565ZM19.2047 19.4424C19.0269 19.412 18.9677 19.412 18.8492 19.412C17.783 19.412 17.2501 19.8324 17.2501 20.4936C17.2501 20.9444 17.5167 21.245 17.9311 21.245C18.8196 21.245 19.1747 20.4936 19.2047 19.4424ZM20.6853 22.6565H19.0862L19.1158 21.9058C18.7011 22.4762 18.1385 22.7767 17.1612 22.7767C16.2728 22.7767 15.5029 21.966 15.5029 20.7942C15.5029 20.4639 15.5622 20.1637 15.651 19.8632C15.9469 18.7512 17.0427 18.0606 18.7307 18.0302C18.9381 18.0302 19.2636 18.0302 19.5598 18.0606C19.6187 17.8202 19.6187 17.7296 19.6187 17.5797C19.6187 17.0988 19.234 16.9486 18.3752 16.9486C17.8423 16.9486 17.2498 17.0387 16.8354 17.189L16.5687 17.2491L16.4502 17.2788L16.7169 15.6566C17.5756 15.3861 18.1974 15.2662 18.8788 15.2662C20.4779 15.2662 21.3367 16.0172 21.3367 17.399C21.3367 17.7597 21.3663 18.0302 21.2478 18.8113L20.8334 21.3949L20.7741 21.8457L20.7445 22.2064L20.7149 22.4468L20.6853 22.6565ZM43.6359 15.5066C44.1688 15.5066 44.6428 15.6569 45.2942 15.9872L45.6197 14.0644C45.442 13.9742 45.3827 13.9742 45.1461 13.884L44.4061 13.6737C44.1691 13.6135 43.8732 13.5835 43.547 13.5835C42.6286 13.5835 42.0957 13.6135 41.5335 13.9442C41.2373 14.1545 40.8521 14.425 40.4374 14.9056L40.2004 14.8454L38.305 16.1972L38.3943 15.4462H36.4393L35.285 22.6561H37.151L37.8317 18.7812C37.8317 18.7812 38.0987 18.2399 38.2169 18.0602C38.5724 17.6094 38.8683 17.6094 39.2531 17.6094H39.4015C39.3394 18.0673 39.3096 18.5291 39.3123 18.9912C39.3123 21.3344 40.6151 22.8068 42.629 22.8068C43.1326 22.8068 43.5773 22.7467 44.258 22.5663L44.5842 20.5237C43.9921 20.8539 43.4588 21.0042 43.0144 21.0042C41.919 21.0042 41.2669 20.163 41.2669 18.8413C41.2662 16.8885 42.2438 15.5066 43.6359 15.5066ZM59.36 13.7942L58.9459 16.3178C58.5015 15.6269 57.9683 15.2963 57.2576 15.2963C56.28 15.2963 55.3623 15.867 54.7994 16.9486V16.9189L53.6151 16.1976L53.7336 15.4465H51.7494L50.624 22.6565H52.46L53.0822 18.7816C53.0822 18.7816 53.5558 18.2402 53.6743 18.0606C53.9706 17.6999 54.2665 17.6395 54.5035 17.6098C54.2965 18.2105 54.178 18.9315 54.178 19.743C54.178 21.5455 55.0957 22.747 56.4577 22.747C57.1391 22.747 57.672 22.5066 58.1753 21.9355L58.0868 22.6565H59.8343L61.2557 13.7942H59.36ZM57.0802 20.9444C56.4581 20.9444 56.1326 20.4639 56.1326 19.5322C56.1326 18.12 56.7247 17.0988 57.5832 17.0988C58.2346 17.0988 58.5608 17.6098 58.5608 18.5111C58.5608 19.953 57.9686 20.9444 57.0802 20.9444ZM48.5223 19.4424C48.3446 19.412 48.2853 19.412 48.1668 19.412C47.0999 19.412 46.567 19.8324 46.567 20.4936C46.567 20.9444 46.834 21.245 47.2484 21.245C48.1368 21.245 48.4923 20.4936 48.5223 19.4424ZM50.0029 22.6565H48.3738L48.4331 21.9058C48.0187 22.4762 47.4555 22.7767 46.4789 22.7767C45.5605 22.7767 44.7613 21.9957 44.7613 20.7942C44.7613 19.0821 46.0341 18.0305 48.048 18.0305C48.2557 18.0305 48.5809 18.0305 48.8478 18.061C48.9071 17.8205 48.9371 17.73 48.9371 17.5801C48.9371 17.0992 48.5519 16.9489 47.6635 16.9489C47.1599 16.9489 46.5381 17.0391 46.1237 17.1894L45.8867 17.2495L45.7682 17.2792L46.0345 15.6569C46.8936 15.3864 47.5157 15.2666 48.1964 15.2666C49.7955 15.2666 50.6247 16.0176 50.6247 17.3994C50.6247 17.7601 50.6839 18.0305 50.5361 18.8116L50.151 21.3953L50.0918 21.8461L50.0325 22.2067L50.0032 22.4472V22.6565H50.0029ZM24.5644 16.9786C24.9199 16.9786 25.4232 17.0087 25.9565 17.0988L26.2231 15.4165C25.6899 15.3564 24.9792 15.2662 24.5644 15.2662C22.4917 15.2662 21.8107 16.4079 21.8107 17.7296C21.8107 18.6012 22.1955 19.2317 23.2024 19.7122C23.9427 20.0729 24.0612 20.1326 24.0612 20.4636C24.0612 20.9137 23.6764 21.1845 22.9654 21.1845C22.4028 21.1845 21.8696 21.094 21.2774 20.884L21.07 22.5359L21.0993 22.5663L21.4548 22.6264C21.5733 22.6561 21.7214 22.6866 21.9288 22.7163C22.3729 22.7467 22.758 22.7764 22.995 22.7764C25.0681 22.7764 25.9269 21.9656 25.9269 20.373C25.9269 19.3819 25.4529 18.7812 24.5348 18.3608C23.7353 17.9998 23.6464 17.9404 23.6464 17.6094C23.6464 17.2792 24.0019 16.9786 24.5644 16.9786Z" fill="#1B3771"/>
<path fill-rule="evenodd" clip-rule="evenodd" d="M46.1094 13.49L45.7831 15.4128C45.1317 15.0822 44.6577 14.9323 44.1248 14.9323C42.7328 14.9323 41.7558 16.3141 41.7558 18.267C41.7558 19.6191 42.4072 20.4298 43.5034 20.4298C43.9471 20.4298 44.4803 20.2799 45.0725 19.9797L44.7469 21.992C44.0656 22.1723 43.6215 22.2628 43.1179 22.2628C41.1044 22.2628 39.8605 20.7905 39.8605 18.4176C39.8605 15.2629 41.5781 13.0396 44.0359 13.0396C44.3615 13.0396 44.6574 13.0696 44.8944 13.1297L45.635 13.31C45.8724 13.4002 45.9316 13.4303 46.1094 13.49ZM40.1271 14.8121H39.9494C39.3279 14.8121 38.9724 15.1126 38.4095 15.9835L38.5873 14.8718H36.899L35.7446 22.0821H37.6107C38.2914 17.6659 38.4691 16.9148 39.3575 16.9148H39.4761C39.6538 16.0436 39.8905 15.4125 40.1867 14.8418L40.1271 14.8121ZM29.4072 21.992C28.904 22.1723 28.4892 22.2324 28.0748 22.2324C27.1271 22.2324 26.5939 21.6918 26.5939 20.6406C26.5939 20.4602 26.6235 20.2202 26.6531 20.0094L26.7716 19.2885L26.8605 18.7181L27.66 13.7906H29.4961L29.2887 14.8722H30.2364L29.9994 16.6447H29.0517L28.5485 19.6491C28.5188 19.7693 28.5188 19.8599 28.5188 19.9497C28.5188 20.3103 28.6966 20.4606 29.1406 20.4606C29.348 20.4606 29.5254 20.4606 29.6439 20.4005L29.4072 21.992ZM22.2703 17.1553C22.2703 18.0569 22.6847 18.6874 23.662 19.1682C24.4319 19.5289 24.5504 19.6488 24.5504 19.9493C24.5504 20.4001 24.2245 20.6102 23.4842 20.6102C22.9217 20.6102 22.4181 20.5204 21.8259 20.34L21.5593 21.992L21.6482 22.0224L21.974 22.0825C22.0922 22.1122 22.2407 22.1426 22.4773 22.1426C22.8917 22.2027 23.2472 22.2027 23.4842 22.2027C25.4385 22.2027 26.3569 21.4513 26.3569 19.7994C26.3569 18.8076 25.9721 18.2365 25.054 17.7864C24.2545 17.4258 24.1656 17.336 24.1656 17.0054C24.1656 16.615 24.4915 16.4347 25.0837 16.4347C25.4392 16.4347 25.9425 16.4647 26.4165 16.5248L26.6827 14.8725C26.2091 14.7824 25.4688 14.7223 25.054 14.7223C22.981 14.7219 22.2407 15.8336 22.2703 17.1553ZM60.2944 22.0825H58.5468L58.636 21.3912C58.1324 21.9319 57.5991 22.1723 56.9178 22.1723C55.5557 22.1723 54.6673 21.0012 54.6673 19.1987C54.6673 16.795 56.0593 14.752 57.6877 14.752C58.4283 14.752 58.9612 15.0826 59.4652 15.7434L59.8796 13.2199H61.7157L60.2944 22.0825ZM57.5695 20.4001C58.4286 20.4001 59.0208 19.3786 59.0208 17.9664C59.0208 17.0351 58.6946 16.5542 58.0432 16.5542C57.214 16.5542 56.5926 17.5456 56.5926 18.9579C56.5926 19.9196 56.9181 20.4001 57.5695 20.4001ZM35.0929 21.9319C34.4411 22.1426 33.849 22.2324 33.1679 22.2324C31.0948 22.2324 30.0287 21.1211 30.0287 18.9879C30.0287 16.5245 31.3911 14.6919 33.2568 14.6919C34.7966 14.6919 35.7736 15.7134 35.7736 17.3056C35.7736 17.8465 35.7143 18.3575 35.5366 19.1081H31.8651C31.8355 19.1987 31.8355 19.2588 31.8355 19.3189C31.8355 20.16 32.3984 20.5805 33.4642 20.5805C34.1452 20.5805 34.7374 20.4602 35.3891 20.1296L35.0929 21.9319ZM34.0563 17.6358V17.2755C34.0563 16.6748 33.7305 16.3442 33.1679 16.3442C32.5758 16.3442 32.161 16.795 31.9833 17.6358H34.0563ZM15.1926 22.0825H13.3565L14.4227 15.2625L12.0241 22.0825H10.7505L10.6024 15.3227L9.47734 22.0825H7.75977L9.21071 13.2199H11.876L11.9648 18.7178L13.7413 13.2199H16.6436L15.1926 22.0825ZM19.7828 18.8677C19.6051 18.8677 19.5162 18.838 19.3681 18.838C18.3315 18.838 17.7986 19.2284 17.7986 19.9493C17.7986 20.4001 18.0356 20.6703 18.45 20.6703C19.2199 20.6703 19.7532 19.9493 19.7828 18.8677ZM21.1449 22.0825H19.6047L19.6343 21.3311C19.1603 21.9319 18.5385 22.2027 17.6798 22.2027C16.6728 22.2027 15.9918 21.4216 15.9918 20.2499C15.9918 18.4777 17.1761 17.4562 19.2492 17.4562C19.4566 17.4562 19.7232 17.4862 20.0191 17.5159C20.0784 17.2759 20.0784 17.1857 20.0784 17.0655C20.0784 16.5849 19.7525 16.4046 18.8937 16.4046C18.3608 16.4046 17.7683 16.4647 17.3539 16.5849L17.0872 16.6751L16.9095 16.7052L17.1761 15.0829C18.0942 14.8124 18.7159 14.7223 19.3973 14.7223C20.9964 14.7223 21.8552 15.4432 21.8552 16.825C21.8552 17.1857 21.8256 17.4562 21.7071 18.2673L21.2923 20.8213L21.2331 21.2714L21.2034 21.632L21.1738 21.9029L21.1449 22.0825ZM49.1005 18.8677C48.8928 18.8677 48.8042 18.838 48.6861 18.838C47.6199 18.838 47.0863 19.2284 47.0863 19.9493C47.0863 20.4001 47.3533 20.6703 47.7677 20.6703C48.5083 20.6703 49.0705 19.9493 49.1005 18.8677ZM50.4626 22.0825H48.9227L48.952 21.3311C48.4783 21.9319 47.8566 22.2027 46.9978 22.2027C45.9909 22.2027 45.3095 21.4216 45.3095 20.2499C45.3095 18.4777 46.4938 17.4562 48.5669 17.4562C48.7746 17.4562 49.0412 17.4862 49.3075 17.5159C49.3668 17.2759 49.3967 17.1857 49.3967 17.0655C49.3967 16.5849 49.0705 16.4046 48.2124 16.4046C47.6788 16.4046 47.0574 16.4647 46.6426 16.5849L46.4056 16.6751L46.2279 16.7052L46.4941 15.0829C47.4125 14.8124 48.034 14.7223 48.7154 14.7223C50.3144 14.7223 51.1436 15.4432 51.1436 16.825C51.1436 17.1857 51.1436 17.4562 50.9958 18.2673L50.6107 20.8213L50.5514 21.2714L50.4922 21.632L50.4629 21.9029L50.4626 22.0825ZM55.4375 14.8121H55.2598C54.6383 14.8121 54.2828 15.1126 53.72 15.9835L53.8977 14.8718H52.2094L51.084 22.0821H52.9201C53.6015 17.6659 53.7792 16.9148 54.6676 16.9148H54.7861C54.9639 16.0436 55.2005 15.4125 55.4968 14.8418L55.4375 14.8121Z" fill="white"/>
</g>
</svg>
