<svg width="14" height="14" viewBox="0 0 14 14" fill="none" xmlns="http://www.w3.org/2000/svg">
<g clip-path="url(#clip0_1054_175)">
<path d="M13.9682 0.600324C14 0.520819 14.0078 0.433721 13.9906 0.349829C13.9734 0.265937 13.9319 0.188941 13.8714 0.128385C13.8108 0.0678294 13.7338 0.0263776 13.6499 0.00916858C13.566 -0.00804044 13.4789 -0.000249879 13.3994 0.0315745L0.670805 5.1232H0.669929L0.27443 5.2807C0.199521 5.31058 0.134329 5.36058 0.0860557 5.42519C0.0377821 5.48979 0.00830523 5.56648 0.000881254 5.64679C-0.00654272 5.7271 0.0083751 5.80789 0.0439868 5.88025C0.0795986 5.95261 0.134518 6.01372 0.202679 6.05682L0.56143 6.28432L0.562304 6.28607L4.93293 9.06682L7.71368 13.4375L7.71543 13.4392L7.94293 13.7979C7.98618 13.8658 8.04732 13.9205 8.11962 13.9559C8.19193 13.9913 8.2726 14.006 8.35275 13.9985C8.43289 13.991 8.50942 13.9615 8.57389 13.9133C8.63837 13.8651 8.6883 13.8001 8.71818 13.7253L13.9682 0.600324ZM12.3643 2.25407L5.80705 8.81132L5.61893 8.51558C5.58446 8.4613 5.53845 8.41529 5.48418 8.38083L5.18843 8.1927L11.7457 1.63545L12.7764 1.22332L12.3652 2.25407H12.3643Z" fill="#16191E"/>
</g>
<defs>
<clipPath id="clip0_1054_175">
<rect width="14" height="14" fill="white"/>
</clipPath>
</defs>
</svg>
