<svg width="14" height="14" viewBox="0 0 14 14" fill="none" xmlns="http://www.w3.org/2000/svg">
<g clip-path="url(#clip0_1054_165)">
<path d="M7 13.125C5.37555 13.125 3.81763 12.4797 2.66897 11.331C1.52031 10.1824 0.875 8.62445 0.875 7C0.875 5.37555 1.52031 3.81763 2.66897 2.66897C3.81763 1.52031 5.37555 0.875 7 0.875C8.62445 0.875 10.1824 1.52031 11.331 2.66897C12.4797 3.81763 13.125 5.37555 13.125 7C13.125 8.62445 12.4797 10.1824 11.331 11.331C10.1824 12.4797 8.62445 13.125 7 13.125ZM7 14C8.85652 14 10.637 13.2625 11.9497 11.9497C13.2625 10.637 14 8.85652 14 7C14 5.14348 13.2625 3.36301 11.9497 2.05025C10.637 0.737498 8.85652 0 7 0C5.14348 0 3.36301 0.737498 2.05025 2.05025C0.737498 3.36301 0 5.14348 0 7C0 8.85652 0.737498 10.637 2.05025 11.9497C3.36301 13.2625 5.14348 14 7 14Z" fill="#16191E"/>
<path d="M3.7495 8.37113C3.84998 8.31311 3.9694 8.29739 4.08147 8.32742C4.19355 8.35745 4.28911 8.43077 4.34712 8.53125C4.61585 8.99705 5.00255 9.38382 5.46829 9.65264C5.93403 9.92145 6.46237 10.0628 7.00012 10.0625C7.53788 10.0628 8.06622 9.92145 8.53196 9.65264C8.9977 9.38382 9.3844 8.99705 9.65312 8.53125C9.68164 8.48109 9.7198 8.43707 9.7654 8.40172C9.811 8.36637 9.86314 8.34039 9.91882 8.32527C9.9745 8.31015 10.0326 8.3062 10.0898 8.31364C10.1471 8.32107 10.2022 8.33975 10.2522 8.3686C10.3022 8.39745 10.3459 8.4359 10.381 8.48173C10.416 8.52757 10.4417 8.57988 10.4564 8.63566C10.4712 8.69144 10.4747 8.74959 10.4669 8.80675C10.4591 8.86392 10.4401 8.91898 10.4109 8.96875C10.0654 9.56756 9.5682 10.0648 8.96945 10.4104C8.3707 10.756 7.69147 10.9378 7.00012 10.9375C6.30878 10.9378 5.62955 10.756 5.0308 10.4104C4.43205 10.0648 3.93489 9.56756 3.58937 8.96875C3.53136 8.86827 3.51564 8.74885 3.54567 8.63678C3.5757 8.5247 3.64902 8.42914 3.7495 8.37113ZM6.12512 5.6875C6.12512 6.412 5.73312 7 5.25012 7C4.76712 7 4.37512 6.412 4.37512 5.6875C4.37512 4.963 4.76712 4.375 5.25012 4.375C5.73312 4.375 6.12512 4.963 6.12512 5.6875ZM9.62512 5.6875C9.62512 6.412 9.23312 7 8.75012 7C8.26712 7 7.87512 6.412 7.87512 5.6875C7.87512 4.963 8.26712 4.375 8.75012 4.375C9.23312 4.375 9.62512 4.963 9.62512 5.6875Z" fill="#16191E"/>
</g>
<defs>
<clipPath id="clip0_1054_165">
<rect width="14" height="14" fill="white"/>
</clipPath>
</defs>
</svg>
