<svg width="24" height="24" viewBox="0 0 24 24" fill="none" xmlns="http://www.w3.org/2000/svg">
<path fill-rule="evenodd" clip-rule="evenodd" d="M6.14982 0H14.1738L20.9744 7.08846V20.8756C20.9744 22.6027 19.5771 24 17.8559 24H6.14982C4.42269 24 3.02539 22.6027 3.02539 20.8756V3.12443C3.02536 1.3973 4.42266 0 6.14982 0Z" fill="#E5252A"/>
<path opacity="0.302" fill-rule="evenodd" clip-rule="evenodd" d="M14.166 0V7.03449H20.9726L14.166 0Z" fill="white"/>
<path d="M6.49707 17.907V13.5232H8.36214C8.82392 13.5232 9.18974 13.6491 9.4656 13.907C9.74146 14.1589 9.8794 14.5007 9.8794 14.9265C9.8794 15.3523 9.74146 15.6941 9.4656 15.946C9.18974 16.2039 8.82392 16.3298 8.36214 16.3298H7.61851V17.907H6.49707ZM7.61851 15.3763H8.23621C8.40411 15.3763 8.53605 15.3403 8.62602 15.2564C8.71596 15.1784 8.76397 15.0704 8.76397 14.9265C8.76397 14.7826 8.71599 14.6747 8.62602 14.5967C8.53608 14.5127 8.40414 14.4768 8.23621 14.4768H7.61851V15.3763ZM10.3411 17.907V13.5232H11.8944C12.2002 13.5232 12.4881 13.5652 12.7579 13.6551C13.0278 13.7451 13.2737 13.871 13.4896 14.0449C13.7055 14.2129 13.8794 14.4407 14.0053 14.7286C14.1252 15.0165 14.1912 15.3463 14.1912 15.7181C14.1912 16.0839 14.1253 16.4138 14.0053 16.7016C13.8794 16.9895 13.7055 17.2173 13.4896 17.3852C13.2737 17.5592 13.0278 17.6851 12.7579 17.7751C12.4881 17.865 12.2002 17.907 11.8944 17.907H10.3411ZM11.4386 16.9535H11.7624C11.9363 16.9535 12.0983 16.9355 12.2482 16.8935C12.3921 16.8515 12.53 16.7856 12.662 16.6956C12.7879 16.6057 12.8899 16.4797 12.9618 16.3118C13.0338 16.1439 13.0698 15.946 13.0698 15.7181C13.0698 15.4842 13.0338 15.2863 12.9618 15.1184C12.8899 14.9505 12.7879 14.8246 12.662 14.7346C12.53 14.6447 12.3921 14.5787 12.2482 14.5367C12.0983 14.4947 11.9363 14.4767 11.7624 14.4767H11.4386V16.9535ZM14.7549 17.907V13.5232H17.8734V14.4767H15.8764V15.1784H17.4716V16.1259H15.8764V17.907H14.7549Z" fill="white"/>
</svg>
