<svg width="14" height="14" viewBox="0 0 14 14" fill="none" xmlns="http://www.w3.org/2000/svg">
<path fill-rule="evenodd" clip-rule="evenodd" d="M3.58723 0H8.26789L12.2349 4.13494V12.1774C12.2349 13.1849 11.4198 14 10.4158 14H3.58723C2.57974 14 1.76465 13.1849 1.76465 12.1774V1.82258C1.76463 0.81509 2.57972 0 3.58723 0Z" fill="#E5252A"/>
<path opacity="0.302" fill-rule="evenodd" clip-rule="evenodd" d="M8.26367 0V4.10345H12.2342L8.26367 0Z" fill="white"/>
<path d="M3.79004 10.4459V7.88867H4.878C5.14737 7.88867 5.36077 7.96213 5.52168 8.11256C5.6826 8.25949 5.76307 8.45889 5.76307 8.70726C5.76307 8.95563 5.6826 9.15504 5.52168 9.30197C5.36077 9.45239 5.14737 9.52586 4.878 9.52586H4.44421V10.4459H3.79004ZM4.44421 8.96964H4.80454C4.90248 8.96964 4.97944 8.94865 5.03193 8.89968C5.08439 8.85421 5.1124 8.79123 5.1124 8.70728C5.1124 8.62333 5.08441 8.56036 5.03193 8.51488C4.97946 8.4659 4.9025 8.44492 4.80454 8.44492H4.44421V8.96964ZM6.03242 10.4459V7.88867H6.93846C7.11687 7.88867 7.28479 7.91315 7.44221 7.96564C7.59962 8.0181 7.74306 8.09158 7.86899 8.19303C7.99494 8.29097 8.09638 8.4239 8.16984 8.59183C8.2398 8.75975 8.2783 8.95215 8.2783 9.16903C8.2783 9.38243 8.23982 9.57484 8.16984 9.74274C8.09638 9.91066 7.99494 10.0436 7.86899 10.1415C7.74304 10.243 7.59962 10.3164 7.44221 10.3689C7.28479 10.4214 7.11687 10.4459 6.93846 10.4459H6.03242ZM6.6726 9.88968H6.8615C6.96294 9.88968 7.0574 9.87919 7.14486 9.85469C7.22881 9.83021 7.30928 9.79172 7.38624 9.73926C7.4597 9.68679 7.51917 9.61331 7.56115 9.51537C7.60312 9.41742 7.62412 9.30197 7.62412 9.16903C7.62412 9.0326 7.60312 8.91716 7.56115 8.81922C7.51917 8.72127 7.4597 8.64781 7.38624 8.59533C7.30928 8.54286 7.22883 8.50437 7.14486 8.47989C7.0574 8.45541 6.96294 8.4449 6.8615 8.4449H6.6726V9.88968ZM8.60713 10.4459V7.88867H10.4262V8.4449H9.2613V8.85419H10.1918V9.40692H9.2613V10.4459H8.60713Z" fill="white"/>
</svg>
