<svg width="70" height="35" viewBox="0 0 70 35" fill="none" xmlns="http://www.w3.org/2000/svg">
<mask id="mask0_984_866" style="mask-type:alpha" maskUnits="userSpaceOnUse" x="0" y="0" width="70" height="35">
<rect width="70" height="35" fill="#D9D9D9"/>
</mask>
<g mask="url(#mask0_984_866)">
<path fill-rule="evenodd" clip-rule="evenodd" d="M20.0129 27.4318L26.206 7.43871H31.732L25.5384 27.4318H20.0129ZM17.5426 7.44417L12.5719 15.9193C11.3065 18.139 10.5668 19.2601 10.2112 20.6628H10.1355C10.2235 18.8846 9.97019 16.7015 9.94629 15.4677L9.39743 7.44417H0.0955917L0 7.98193C2.38979 7.98193 3.80693 9.15729 4.19686 11.5614L6.00991 27.4318H11.7346L23.31 7.44417H17.5426ZM60.5153 27.4318L60.3628 24.4583L53.4627 24.4529L52.0515 27.4314H46.0524L56.9303 7.47654H64.294L66.1361 27.4314L60.5153 27.4318ZM59.8816 15.6385C59.8203 14.1609 59.7689 12.1553 59.8717 10.9418H59.79C59.4539 11.9342 58.0093 14.9147 57.374 16.3806L55.318 20.763H60.1628L59.8816 15.6385ZM37.5332 28C33.6318 28 31.0429 26.7884 29.1944 25.7082L31.8268 21.7723C33.4861 22.6809 34.7889 23.7295 37.7865 23.7295C38.7504 23.7295 39.6792 23.4842 40.2065 22.59C40.9753 21.2895 40.0293 20.5899 37.8705 19.3935L36.8047 18.7149C33.6048 16.574 32.2207 14.5408 33.727 10.9913C34.6909 8.72092 37.2333 7 41.4273 7C44.3198 7 47.0314 8.22488 48.6114 9.42168L45.5852 12.8967C44.0433 11.6757 42.7652 11.058 41.3027 11.058C40.1364 11.058 39.2506 11.4982 38.9447 12.0922C38.3692 13.2086 39.1307 13.9698 40.8124 14.9919L42.0797 15.7812C45.9647 18.1803 46.8904 20.696 45.9165 23.0478C44.2421 27.0961 40.9633 28 37.5332 28ZM67.6477 10.5311H67.2836V8.36371H68.1236C68.6581 8.36371 68.931 8.54699 68.931 8.98687C68.931 9.37918 68.6844 9.5414 68.353 9.57806L68.9732 10.5311H68.5618L67.9898 9.60458H67.6477V10.5311ZM68.0535 9.30079C68.3268 9.30079 68.5669 9.27467 68.5669 8.96035C68.5669 8.69869 68.3048 8.6671 68.0862 8.6671H67.6473V9.30079H68.0535ZM68.0428 11.3688C66.8937 11.3688 66.0756 10.5261 66.0756 9.41076C66.0756 8.23268 66.9841 7.45275 68.0428 7.45275C69.0915 7.45275 70 8.23268 70 9.41076C70 10.5885 69.0915 11.3688 68.0428 11.3688ZM68.0428 7.79319C67.1769 7.79319 66.5033 8.45769 66.5033 9.41076C66.5033 10.3007 67.0916 11.0283 68.0428 11.0283C68.8983 11.0283 69.5722 10.3689 69.5722 9.41076C69.5722 8.45769 68.8983 7.79319 68.0428 7.79319Z" fill="#1D5B99"/>
</g>
</svg>
